<svg width="576" height="483" viewBox="0 0 576 483" fill="none" xmlns="http://www.w3.org/2000/svg">
<g clip-path="url(#clip0_124_170)">
<g clip-path="url(#clip1_124_170)">
<g clip-path="url(#clip2_124_170)">
<mask id="mask0_124_170" style="mask-type:luminance" maskUnits="userSpaceOnUse" x="0" y="0" width="576" height="483">
<path d="M576 0.0187988H0V482.801H576V0.0187988Z" fill="white"/>
</mask>
<g mask="url(#mask0_124_170)">
<path d="M576 0.0187988H0V482.801H576V0.0187988Z" fill="#F0FDF4"/>
<g filter="url(#filter0_d_124_170)">
<path d="M468.87 82.8015H106.435C91.0669 82.8015 78.6087 95.2597 78.6087 110.628V483.497C78.6087 498.865 91.0669 511.323 106.435 511.323H468.87C484.237 511.323 496.696 498.865 496.696 483.497V110.628C496.696 95.2597 484.237 82.8015 468.87 82.8015Z" fill="white"/>
</g>
<path d="M140.029 163.497V154.39H143.443C144.143 154.39 144.73 154.521 145.205 154.782C145.682 155.043 146.042 155.401 146.285 155.857C146.531 156.311 146.654 156.827 146.654 157.405C146.654 157.989 146.531 158.508 146.285 158.961C146.039 159.415 145.676 159.773 145.196 160.033C144.715 160.291 144.124 160.42 143.421 160.42H141.158V159.064H143.199C143.608 159.064 143.943 158.993 144.204 158.85C144.465 158.708 144.657 158.513 144.782 158.264C144.91 158.015 144.973 157.728 144.973 157.405C144.973 157.082 144.91 156.797 144.782 156.552C144.657 156.305 144.463 156.114 144.2 155.978C143.939 155.839 143.602 155.769 143.19 155.769H141.679V163.497H140.029ZM148.016 163.497V156.667H149.577V157.805H149.648C149.773 157.411 149.986 157.108 150.288 156.894C150.593 156.678 150.942 156.569 151.333 156.569C151.422 156.569 151.521 156.574 151.631 156.582C151.744 156.589 151.837 156.599 151.911 156.614V158.095C151.843 158.071 151.735 158.05 151.587 158.032C151.441 158.011 151.3 158.001 151.164 158.001C150.871 158.001 150.607 158.065 150.373 158.192C150.141 158.317 149.959 158.49 149.825 158.712C149.692 158.935 149.626 159.191 149.626 159.482V163.497H148.016ZM155.679 163.631C155.011 163.631 154.433 163.484 153.944 163.19C153.455 162.897 153.076 162.486 152.806 161.958C152.539 161.431 152.406 160.814 152.406 160.109C152.406 159.403 152.539 158.785 152.806 158.255C153.076 157.724 153.455 157.312 153.944 157.018C154.433 156.725 155.011 156.578 155.679 156.578C156.346 156.578 156.924 156.725 157.413 157.018C157.902 157.312 158.28 157.724 158.547 158.255C158.817 158.785 158.952 159.403 158.952 160.109C158.952 160.814 158.817 161.431 158.547 161.958C158.28 162.486 157.902 162.897 157.413 163.19C156.924 163.484 156.346 163.631 155.679 163.631ZM155.688 162.341C156.049 162.341 156.351 162.241 156.595 162.043C156.838 161.841 157.018 161.572 157.137 161.233C157.258 160.896 157.32 160.519 157.32 160.104C157.32 159.686 157.258 159.309 157.137 158.97C157.018 158.63 156.838 158.358 156.595 158.157C156.351 157.955 156.049 157.854 155.688 157.854C155.317 157.854 155.009 157.955 154.762 158.157C154.52 158.358 154.337 158.63 154.216 158.97C154.097 159.309 154.038 159.686 154.038 160.104C154.038 160.519 154.097 160.896 154.216 161.233C154.337 161.572 154.52 161.841 154.762 162.043C155.009 162.241 155.317 162.341 155.688 162.341ZM163.777 156.667V157.912H159.74V156.667H163.777ZM160.749 163.497V156.022C160.749 155.562 160.844 155.181 161.034 154.875C161.226 154.57 161.484 154.342 161.807 154.19C162.13 154.039 162.489 153.963 162.883 153.963C163.162 153.963 163.409 153.985 163.626 154.03C163.842 154.074 164.002 154.115 164.106 154.15L163.786 155.396C163.718 155.375 163.632 155.354 163.528 155.333C163.424 155.309 163.309 155.297 163.181 155.297C162.882 155.297 162.67 155.37 162.545 155.515C162.424 155.658 162.363 155.862 162.363 156.129V163.497H160.749ZM165.038 163.497V156.667H166.648V163.497H165.038ZM165.847 155.697C165.592 155.697 165.373 155.613 165.189 155.444C165.005 155.272 164.913 155.066 164.913 154.826C164.913 154.583 165.005 154.377 165.189 154.208C165.373 154.036 165.592 153.95 165.847 153.95C166.105 153.95 166.324 154.036 166.505 154.208C166.689 154.377 166.781 154.583 166.781 154.826C166.781 155.066 166.689 155.272 166.505 155.444C166.324 155.613 166.105 155.697 165.847 155.697ZM171.713 156.667V157.912H167.787V156.667H171.713ZM168.756 155.031H170.366V161.443C170.366 161.659 170.399 161.825 170.464 161.941C170.532 162.054 170.621 162.131 170.73 162.172C170.84 162.214 170.961 162.234 171.095 162.234C171.196 162.234 171.288 162.227 171.371 162.212C171.457 162.197 171.522 162.184 171.567 162.172L171.838 163.43C171.752 163.46 171.628 163.493 171.468 163.528C171.311 163.564 171.119 163.585 170.89 163.59C170.488 163.602 170.125 163.542 169.801 163.408C169.478 163.272 169.222 163.062 169.032 162.776C168.845 162.492 168.753 162.136 168.756 161.709V155.031ZM178.131 163.635C177.698 163.635 177.309 163.558 176.961 163.404C176.618 163.247 176.345 163.016 176.143 162.71C175.944 162.405 175.846 162.028 175.846 161.581C175.846 161.195 175.917 160.877 176.058 160.625C176.201 160.373 176.395 160.171 176.641 160.02C176.887 159.869 177.165 159.754 177.473 159.677C177.784 159.597 178.106 159.54 178.438 159.504C178.838 159.462 179.162 159.425 179.411 159.393C179.66 159.357 179.841 159.304 179.954 159.233C180.07 159.158 180.127 159.044 180.127 158.89V158.863C180.127 158.529 180.028 158.269 179.83 158.086C179.631 157.902 179.345 157.81 178.971 157.81C178.577 157.81 178.264 157.896 178.033 158.068C177.805 158.239 177.651 158.442 177.571 158.677L176.067 158.463C176.186 158.049 176.382 157.702 176.655 157.423C176.927 157.142 177.261 156.931 177.655 156.792C178.049 156.649 178.485 156.578 178.962 156.578C179.291 156.578 179.619 156.616 179.945 156.694C180.271 156.771 180.569 156.898 180.839 157.076C181.109 157.251 181.325 157.489 181.488 157.792C181.654 158.095 181.737 158.472 181.737 158.926V163.497H180.19V162.559H180.136C180.038 162.749 179.901 162.927 179.722 163.092C179.548 163.256 179.327 163.387 179.06 163.488C178.796 163.586 178.486 163.635 178.131 163.635ZM178.549 162.452C178.872 162.452 179.152 162.388 179.389 162.261C179.626 162.131 179.809 161.958 179.936 161.745C180.067 161.532 180.131 161.299 180.131 161.047V160.242C180.081 160.284 179.995 160.322 179.874 160.358C179.755 160.393 179.622 160.424 179.473 160.451C179.325 160.478 179.178 160.502 179.034 160.522C178.888 160.543 178.762 160.561 178.655 160.575C178.415 160.608 178.2 160.662 178.01 160.736C177.821 160.81 177.672 160.913 177.562 161.047C177.452 161.177 177.397 161.346 177.397 161.554C177.397 161.85 177.505 162.074 177.722 162.225C177.938 162.376 178.214 162.452 178.549 162.452ZM184.966 159.495V163.497H183.356V156.667H184.894V157.828H184.974C185.131 157.445 185.382 157.142 185.726 156.916C186.072 156.691 186.501 156.578 187.011 156.578C187.482 156.578 187.893 156.679 188.243 156.881C188.595 157.082 188.868 157.374 189.061 157.757C189.256 158.139 189.352 158.602 189.35 159.149V163.497H187.74V159.398C187.74 158.941 187.622 158.584 187.384 158.326C187.15 158.068 186.826 157.939 186.41 157.939C186.129 157.939 185.878 158.001 185.659 158.125C185.443 158.247 185.272 158.424 185.148 158.655C185.026 158.886 184.966 159.166 184.966 159.495ZM193.521 163.617C192.984 163.617 192.504 163.479 192.08 163.204C191.656 162.928 191.321 162.528 191.075 162.003C190.829 161.478 190.706 160.841 190.706 160.091C190.706 159.332 190.831 158.692 191.08 158.17C191.331 157.645 191.671 157.249 192.097 156.983C192.525 156.713 193 156.578 193.525 156.578C193.926 156.578 194.255 156.646 194.512 156.783C194.77 156.916 194.975 157.078 195.126 157.268C195.277 157.454 195.394 157.631 195.477 157.796H195.544V154.39H197.158V163.497H195.575V162.421H195.477C195.394 162.587 195.274 162.763 195.117 162.95C194.96 163.134 194.752 163.291 194.495 163.421C194.237 163.552 193.912 163.617 193.521 163.617ZM193.969 162.296C194.311 162.296 194.601 162.205 194.841 162.021C195.082 161.834 195.264 161.575 195.389 161.242C195.513 160.911 195.575 160.524 195.575 160.082C195.575 159.64 195.513 159.256 195.389 158.93C195.267 158.605 195.086 158.351 194.846 158.17C194.609 157.989 194.317 157.898 193.969 157.898C193.611 157.898 193.311 157.992 193.071 158.179C192.831 158.366 192.65 158.623 192.529 158.952C192.408 159.281 192.346 159.658 192.346 160.082C192.346 160.509 192.408 160.89 192.529 161.225C192.653 161.557 192.836 161.819 193.076 162.012C193.319 162.202 193.617 162.296 193.969 162.296ZM202.05 163.497V154.39H203.7V162.114H207.711V163.497H202.05ZM212.051 163.631C211.384 163.631 210.806 163.484 210.316 163.19C209.827 162.897 209.448 162.486 209.178 161.958C208.911 161.431 208.778 160.814 208.778 160.109C208.778 159.403 208.911 158.785 209.178 158.255C209.448 157.724 209.827 157.312 210.316 157.018C210.806 156.725 211.384 156.578 212.051 156.578C212.718 156.578 213.296 156.725 213.785 157.018C214.274 157.312 214.653 157.724 214.919 158.255C215.189 158.785 215.324 159.403 215.324 160.109C215.324 160.814 215.189 161.431 214.919 161.958C214.653 162.486 214.274 162.897 213.785 163.19C213.296 163.484 212.718 163.631 212.051 163.631ZM212.06 162.341C212.422 162.341 212.723 162.241 212.967 162.043C213.21 161.841 213.391 161.572 213.51 161.233C213.631 160.896 213.692 160.519 213.692 160.104C213.692 159.686 213.631 159.309 213.51 158.97C213.391 158.63 213.21 158.358 212.967 158.157C212.723 157.955 212.422 157.854 212.06 157.854C211.689 157.854 211.381 157.955 211.135 158.157C210.892 158.358 210.71 158.63 210.588 158.97C210.47 159.309 210.41 159.686 210.41 160.104C210.41 160.519 210.47 160.896 210.588 161.233C210.71 161.572 210.892 161.841 211.135 162.043C211.381 162.241 211.689 162.341 212.06 162.341ZM222.088 158.472L220.621 158.632C220.579 158.484 220.506 158.345 220.403 158.214C220.302 158.084 220.166 157.978 219.994 157.898C219.822 157.818 219.611 157.779 219.362 157.779C219.027 157.779 218.746 157.851 218.518 157.997C218.292 158.142 218.181 158.33 218.184 158.561C218.181 158.76 218.254 158.922 218.402 159.046C218.553 159.171 218.802 159.273 219.149 159.353L220.314 159.602C220.96 159.741 221.44 159.962 221.754 160.264C222.072 160.567 222.232 160.963 222.235 161.452C222.232 161.882 222.106 162.261 221.857 162.59C221.611 162.916 221.268 163.171 220.83 163.354C220.391 163.539 219.887 163.631 219.318 163.631C218.482 163.631 217.809 163.455 217.299 163.106C216.789 162.753 216.486 162.262 216.387 161.634L217.957 161.482C218.028 161.791 218.179 162.024 218.41 162.181C218.642 162.338 218.943 162.417 219.313 162.417C219.696 162.417 220.003 162.338 220.234 162.181C220.468 162.024 220.585 161.83 220.585 161.599C220.585 161.402 220.509 161.241 220.358 161.114C220.21 160.986 219.979 160.888 219.665 160.82L218.499 160.575C217.844 160.439 217.36 160.209 217.046 159.887C216.731 159.56 216.576 159.149 216.579 158.65C216.576 158.23 216.69 157.864 216.921 157.556C217.155 157.245 217.48 157.005 217.895 156.836C218.313 156.664 218.794 156.578 219.34 156.578C220.141 156.578 220.77 156.749 221.23 157.089C221.693 157.43 221.978 157.892 222.088 158.472ZM228.961 158.472L227.493 158.632C227.451 158.484 227.379 158.345 227.275 158.214C227.174 158.084 227.038 157.978 226.866 157.898C226.694 157.818 226.483 157.779 226.234 157.779C225.9 157.779 225.618 157.851 225.39 157.997C225.164 158.142 225.053 158.33 225.056 158.561C225.053 158.76 225.126 158.922 225.274 159.046C225.425 159.171 225.674 159.273 226.021 159.353L227.186 159.602C227.832 159.741 228.312 159.962 228.627 160.264C228.944 160.567 229.104 160.963 229.107 161.452C229.104 161.882 228.978 162.261 228.729 162.59C228.483 162.916 228.14 163.171 227.702 163.354C227.263 163.539 226.759 163.631 226.19 163.631C225.354 163.631 224.681 163.455 224.171 163.106C223.661 162.753 223.358 162.262 223.26 161.634L224.829 161.482C224.901 161.791 225.052 162.024 225.283 162.181C225.514 162.338 225.815 162.417 226.186 162.417C226.568 162.417 226.875 162.338 227.106 162.181C227.34 162.024 227.457 161.83 227.457 161.599C227.457 161.402 227.382 161.241 227.231 161.114C227.082 160.986 226.851 160.888 226.537 160.82L225.372 160.575C224.716 160.439 224.232 160.209 223.918 159.887C223.603 159.56 223.448 159.149 223.451 158.65C223.448 158.23 223.562 157.864 223.793 157.556C224.028 157.245 224.352 157.005 224.767 156.836C225.185 156.664 225.667 156.578 226.212 156.578C227.013 156.578 227.642 156.749 228.102 157.089C228.565 157.43 228.851 157.892 228.961 158.472Z" fill="#9CA3AF"/>
<path d="M142.577 141.236H139.642L144.985 126.058H148.379L153.73 141.236H150.795L146.742 129.171H146.623L142.577 141.236ZM142.673 135.285H150.677V137.494H142.673V135.285ZM162.866 136.449V129.852H165.549V141.236H162.947V139.213H162.829C162.573 139.85 162.15 140.371 161.562 140.776C160.979 141.182 160.26 141.384 159.405 141.384C158.659 141.384 157.999 141.219 157.427 140.888C156.858 140.552 156.414 140.065 156.093 139.428C155.771 138.785 155.611 138.01 155.611 137.1V129.852H158.294V136.686C158.294 137.407 158.491 137.98 158.886 138.405C159.282 138.83 159.8 139.043 160.443 139.043C160.838 139.043 161.221 138.946 161.592 138.753C161.962 138.561 162.266 138.274 162.503 137.894C162.745 137.508 162.866 137.027 162.866 136.449ZM173.258 145.742C172.295 145.742 171.467 145.611 170.776 145.35C170.084 145.092 169.528 144.746 169.108 144.312C168.688 143.877 168.397 143.395 168.234 142.867L170.65 142.281C170.758 142.504 170.916 142.723 171.124 142.94C171.331 143.163 171.61 143.346 171.962 143.489C172.317 143.638 172.765 143.711 173.303 143.711C174.064 143.711 174.694 143.526 175.192 143.155C175.692 142.79 175.941 142.187 175.941 141.347V139.191H175.808C175.67 139.467 175.467 139.752 175.2 140.043C174.938 140.335 174.59 140.579 174.155 140.776C173.725 140.975 173.184 141.073 172.532 141.073C171.658 141.073 170.865 140.868 170.153 140.458C169.447 140.043 168.883 139.425 168.463 138.605C168.049 137.78 167.841 136.748 167.841 135.507C167.841 134.257 168.049 133.203 168.463 132.343C168.883 131.478 169.449 130.824 170.161 130.379C170.872 129.929 171.665 129.704 172.54 129.704C173.206 129.704 173.755 129.818 174.185 130.045C174.62 130.268 174.966 130.537 175.222 130.854C175.479 131.164 175.674 131.459 175.808 131.735H175.956V129.852H178.602V141.421C178.602 142.394 178.369 143.2 177.905 143.837C177.441 144.475 176.806 144.952 176.001 145.267C175.195 145.584 174.281 145.742 173.258 145.742ZM173.281 138.968C173.849 138.968 174.333 138.83 174.733 138.553C175.133 138.277 175.437 137.879 175.645 137.36C175.853 136.842 175.956 136.219 175.956 135.493C175.956 134.776 175.853 134.149 175.645 133.61C175.442 133.071 175.141 132.654 174.741 132.358C174.345 132.056 173.859 131.905 173.281 131.905C172.683 131.905 172.184 132.061 171.784 132.373C171.384 132.684 171.082 133.111 170.879 133.655C170.677 134.193 170.575 134.806 170.575 135.493C170.575 136.189 170.677 136.799 170.879 137.323C171.087 137.842 171.391 138.247 171.791 138.538C172.196 138.825 172.693 138.968 173.281 138.968ZM188.607 136.449V129.852H191.29V141.236H188.688V139.213H188.57C188.313 139.85 187.89 140.371 187.302 140.776C186.719 141.182 186.001 141.384 185.146 141.384C184.4 141.384 183.74 141.219 183.167 140.888C182.599 140.552 182.154 140.065 181.833 139.428C181.512 138.785 181.351 138.01 181.351 137.1V129.852H184.034V136.686C184.034 137.407 184.232 137.98 184.627 138.405C185.022 138.83 185.541 139.043 186.183 139.043C186.579 139.043 186.961 138.946 187.332 138.753C187.702 138.561 188.006 138.274 188.243 137.894C188.486 137.508 188.607 137.027 188.607 136.449ZM203.046 132.862L200.6 133.128C200.531 132.881 200.41 132.649 200.237 132.432C200.069 132.214 199.841 132.039 199.555 131.905C199.268 131.772 198.918 131.706 198.502 131.706C197.944 131.706 197.475 131.827 197.094 132.069C196.719 132.311 196.534 132.625 196.538 133.01C196.534 133.341 196.655 133.61 196.902 133.818C197.153 134.025 197.569 134.195 198.147 134.329L200.088 134.744C201.165 134.976 201.966 135.345 202.49 135.848C203.018 136.352 203.285 137.012 203.29 137.827C203.285 138.543 203.075 139.176 202.66 139.724C202.25 140.268 201.679 140.693 200.948 140.999C200.217 141.305 199.377 141.459 198.429 141.459C197.035 141.459 195.914 141.167 195.064 140.584C194.214 139.996 193.707 139.178 193.544 138.131L196.161 137.879C196.279 138.393 196.531 138.78 196.916 139.043C197.302 139.304 197.803 139.435 198.421 139.435C199.058 139.435 199.569 139.304 199.955 139.043C200.345 138.78 200.541 138.457 200.541 138.072C200.541 137.745 200.415 137.476 200.162 137.264C199.915 137.051 199.53 136.888 199.007 136.775L197.064 136.367C195.973 136.14 195.165 135.757 194.641 135.218C194.118 134.675 193.858 133.988 193.863 133.158C193.858 132.456 194.048 131.849 194.433 131.335C194.824 130.816 195.365 130.416 196.056 130.134C196.753 129.848 197.556 129.704 198.465 129.704C199.799 129.704 200.849 129.989 201.615 130.556C202.386 131.125 202.863 131.894 203.046 132.862ZM211.186 129.852V131.928H204.642V129.852H211.186ZM206.258 127.126H208.94V137.812C208.94 138.173 208.995 138.449 209.104 138.642C209.217 138.83 209.366 138.959 209.549 139.027C209.731 139.097 209.934 139.131 210.157 139.131C210.324 139.131 210.477 139.119 210.616 139.094C210.759 139.07 210.867 139.048 210.942 139.027L211.394 141.125C211.251 141.174 211.046 141.228 210.778 141.288C210.517 141.347 210.195 141.382 209.816 141.392C209.144 141.411 208.538 141.311 207.999 141.088C207.461 140.86 207.034 140.51 206.717 140.035C206.406 139.561 206.253 138.968 206.258 138.257V127.126ZM218.577 141.236V139.25L223.846 134.084C224.351 133.576 224.77 133.123 225.106 132.728C225.442 132.333 225.694 131.95 225.862 131.58C226.03 131.209 226.114 130.814 226.114 130.394C226.114 129.914 226.006 129.505 225.788 129.164C225.571 128.817 225.272 128.551 224.891 128.363C224.511 128.175 224.079 128.081 223.594 128.081C223.096 128.081 222.658 128.185 222.282 128.393C221.907 128.595 221.615 128.884 221.408 129.26C221.206 129.635 221.104 130.083 221.104 130.601H218.488C218.488 129.638 218.708 128.801 219.148 128.089C219.587 127.377 220.193 126.826 220.963 126.436C221.739 126.046 222.628 125.851 223.631 125.851C224.649 125.851 225.544 126.041 226.314 126.422C227.085 126.802 227.683 127.323 228.108 127.985C228.538 128.647 228.753 129.403 228.753 130.253C228.753 130.821 228.643 131.379 228.426 131.928C228.209 132.476 227.826 133.084 227.278 133.751C226.734 134.418 225.971 135.226 224.988 136.175L222.371 138.835V138.938H228.982V141.236H218.577ZM237.149 141.525C235.929 141.525 234.881 141.217 234.007 140.599C233.137 139.976 232.468 139.08 231.999 137.909C231.534 136.732 231.302 135.317 231.302 133.662C231.307 132.007 231.542 130.599 232.006 129.438C232.475 128.272 233.145 127.382 234.015 126.77C234.889 126.157 235.934 125.851 237.149 125.851C238.365 125.851 239.409 126.157 240.284 126.77C241.158 127.382 241.828 128.272 242.292 129.438C242.762 130.604 242.997 132.012 242.997 133.662C242.997 135.322 242.762 136.74 242.292 137.916C241.828 139.087 241.158 139.981 240.284 140.599C239.414 141.217 238.369 141.525 237.149 141.525ZM237.149 139.206C238.098 139.206 238.847 138.739 239.395 137.804C239.948 136.866 240.225 135.485 240.225 133.662C240.225 132.456 240.099 131.443 239.847 130.623C239.595 129.803 239.239 129.186 238.78 128.771C238.32 128.351 237.777 128.14 237.149 128.14C236.205 128.14 235.459 128.61 234.911 129.549C234.362 130.483 234.086 131.854 234.081 133.662C234.076 134.872 234.197 135.89 234.444 136.715C234.696 137.54 235.052 138.163 235.512 138.583C235.971 138.998 236.517 139.206 237.149 139.206ZM245.459 141.236V139.25L250.728 134.084C251.232 133.576 251.652 133.123 251.988 132.728C252.324 132.333 252.576 131.95 252.744 131.58C252.912 131.209 252.996 130.814 252.996 130.394C252.996 129.914 252.887 129.505 252.67 129.164C252.452 128.817 252.154 128.551 251.773 128.363C251.393 128.175 250.961 128.081 250.476 128.081C249.977 128.081 249.54 128.185 249.165 128.393C248.789 128.595 248.497 128.884 248.29 129.26C248.088 129.635 247.986 130.083 247.986 130.601H245.37C245.37 129.638 245.59 128.801 246.029 128.089C246.47 127.377 247.075 126.826 247.846 126.436C248.621 126.046 249.51 125.851 250.513 125.851C251.531 125.851 252.425 126.041 253.196 126.422C253.967 126.802 254.565 127.323 254.989 127.985C255.419 128.647 255.634 129.403 255.634 130.253C255.634 130.821 255.526 131.379 255.309 131.928C255.091 132.476 254.708 133.084 254.159 133.751C253.616 134.418 252.853 135.226 251.869 136.175L249.254 138.835V138.938H255.864V141.236H245.459ZM257.821 138.42V136.234L264.261 126.058H266.084V129.171H264.973L260.637 136.041V136.159H269.626V138.42H257.821ZM265.061 141.236V137.753L265.091 136.775V126.058H267.685V141.236H265.061Z" fill="black"/>
<path d="M419.478 133.584C442.146 133.584 460.522 115.208 460.522 92.5406C460.522 69.8729 442.146 51.4971 419.478 51.4971C396.811 51.4971 378.435 69.8729 378.435 92.5406C378.435 115.208 396.811 133.584 419.478 133.584Z" fill="#BBF7D0"/>
<path d="M429.043 73.4102H409.913C406.869 73.4102 403.949 74.6192 401.797 76.7722C399.644 78.9246 398.435 81.8442 398.435 84.8884V100.193C398.435 103.237 399.644 106.157 401.797 108.309C403.949 110.462 406.869 111.671 409.913 111.671H429.043C432.088 111.671 435.007 110.462 437.16 108.309C439.313 106.157 440.522 103.237 440.522 100.193V84.8884C440.522 81.8442 439.313 78.9246 437.16 76.7722C435.007 74.6192 432.088 73.4102 429.043 73.4102ZM436.696 96.3667H429.043C428.029 96.3667 427.055 95.9639 426.338 95.246C425.62 94.5288 425.217 93.5555 425.217 92.5406C425.217 91.5256 425.62 90.5524 426.338 89.8352C427.055 89.1173 428.029 88.7145 429.043 88.7145H436.696V96.3667ZM429.043 84.8884C427.014 84.8884 425.068 85.6947 423.633 87.1298C422.198 88.5649 421.391 90.5114 421.391 92.5406C421.391 94.5698 422.198 96.5162 423.633 97.9514C425.068 99.3865 427.014 100.193 429.043 100.193H436.696C436.696 102.222 435.889 104.168 434.454 105.604C433.019 107.039 431.073 107.845 429.043 107.845H409.913C407.884 107.845 405.937 107.039 404.502 105.604C403.067 104.168 402.261 102.222 402.261 100.193V84.8884C402.261 82.8592 403.067 80.9128 404.502 79.4776C405.937 78.0425 407.884 77.2362 409.913 77.2362H429.043C431.073 77.2362 433.019 78.0425 434.454 79.4776C435.889 80.9128 436.696 82.8592 436.696 84.8884H429.043Z" fill="#166534"/>
<path d="M429.043 94.4536C428.792 94.455 428.542 94.407 428.309 94.3117C428.076 94.2164 427.864 94.0759 427.686 93.8985C427.508 93.7197 427.368 93.5082 427.272 93.2752C427.177 93.0422 427.129 92.7924 427.13 92.5406C427.133 92.0383 427.332 91.5576 427.686 91.2015C427.95 90.9295 428.289 90.7423 428.661 90.6644C429.032 90.5858 429.418 90.6199 429.77 90.7611C430.123 90.9058 430.424 91.1528 430.635 91.47C430.847 91.7865 430.959 92.1594 430.957 92.5406C430.962 92.7959 430.917 93.0491 430.823 93.2863C430.719 93.5131 430.576 93.7204 430.402 93.8985C430.223 94.0759 430.011 94.2164 429.778 94.3117C429.545 94.407 429.295 94.455 429.043 94.4536Z" fill="#166534"/>
<path d="M432.696 184.019H143.304C141.191 184.019 139.478 185.732 139.478 187.845V368.714C139.478 370.828 141.191 372.541 143.304 372.541H432.696C434.809 372.541 436.522 370.828 436.522 368.714V187.845C436.522 185.732 434.809 184.019 432.696 184.019Z" fill="white" stroke="#E4E4E7" stroke-width="0.695652"/>
<mask id="mask1_124_170" style="mask-type:luminance" maskUnits="userSpaceOnUse" x="159" y="326" width="28" height="30">
<path d="M186.296 326.28H159.944V355.497H186.296V326.28Z" fill="white"/>
</mask>
<g mask="url(#mask1_124_170)">
<path d="M186.296 326.28H159.944V355.497H186.296V326.28Z" fill="#4ADE80"/>
</g>
<mask id="mask2_124_170" style="mask-type:luminance" maskUnits="userSpaceOnUse" x="193" y="290" width="27" height="66">
<path d="M219.237 290.106H193.708V355.497H219.237V290.106Z" fill="white"/>
</mask>
<g mask="url(#mask2_124_170)">
<path d="M219.237 290.106H193.708V355.497H219.237V290.106Z" fill="#4ADE80"/>
</g>
<mask id="mask3_124_170" style="mask-type:luminance" maskUnits="userSpaceOnUse" x="226" y="317" width="28" height="39">
<path d="M253.001 317.932H226.648V355.497H253.001V317.932Z" fill="white"/>
</mask>
<g mask="url(#mask3_124_170)">
<path d="M253.001 317.932H226.648V355.497H253.001V317.932Z" fill="#4ADE80"/>
</g>
<mask id="mask4_124_170" style="mask-type:luminance" maskUnits="userSpaceOnUse" x="260" y="306" width="27" height="50">
<path d="M286.765 306.106H260.413V355.497H286.765V306.106Z" fill="white"/>
</mask>
<g mask="url(#mask4_124_170)">
<path d="M286.765 306.106H260.413V355.497H286.765V306.106Z" fill="#4ADE80"/>
</g>
<mask id="mask5_124_170" style="mask-type:luminance" maskUnits="userSpaceOnUse" x="293" y="326" width="27" height="30">
<path d="M319.705 326.28H293.353V355.497H319.705V326.28Z" fill="white"/>
</mask>
<g mask="url(#mask5_124_170)">
<path d="M319.705 326.28H293.353V355.497H319.705V326.28Z" fill="#4ADE80"/>
</g>
<mask id="mask6_124_170" style="mask-type:luminance" maskUnits="userSpaceOnUse" x="327" y="315" width="27" height="41">
<path d="M353.469 315.149H327.117V355.497H353.469V315.149Z" fill="white"/>
</mask>
<g mask="url(#mask6_124_170)">
<path d="M353.469 315.149H327.117V355.497H353.469V315.149Z" fill="#4ADE80"/>
</g>
<mask id="mask7_124_170" style="mask-type:luminance" maskUnits="userSpaceOnUse" x="361" y="326" width="26" height="30">
<path d="M386.713 326.28H361.216V355.497H386.713V326.28Z" fill="white"/>
</mask>
<g mask="url(#mask7_124_170)">
<path d="M386.713 326.28H361.216V355.497H386.713V326.28Z" fill="#4ADE80"/>
</g>
<mask id="mask8_124_170" style="mask-type:luminance" maskUnits="userSpaceOnUse" x="393" y="315" width="28" height="41">
<path d="M420.174 315.149H393.821V355.497H420.174V315.149Z" fill="white"/>
</mask>
<g mask="url(#mask8_124_170)">
<path d="M420.174 315.149H393.821V355.497H420.174V315.149Z" fill="#4ADE80"/>
</g>
<path d="M157.145 240.019V224.841H163.133C164.28 224.841 165.258 225.046 166.068 225.456C166.883 225.861 167.503 226.437 167.928 227.183C168.358 227.924 168.573 228.796 168.573 229.799C168.573 230.807 168.355 231.674 167.921 232.4C167.486 233.121 166.856 233.675 166.031 234.06C165.211 234.446 164.218 234.639 163.052 234.639H159.043V232.059H162.533C163.146 232.059 163.655 231.975 164.06 231.807C164.465 231.64 164.767 231.387 164.964 231.051C165.167 230.715 165.267 230.298 165.267 229.799C165.267 229.295 165.167 228.87 164.964 228.524C164.767 228.178 164.463 227.916 164.052 227.738C163.647 227.556 163.136 227.464 162.518 227.464H160.354V240.019H157.145ZM165.342 233.112L169.114 240.019H165.571L161.881 233.112H165.342ZM177.355 224.841V240.019H174.146V227.887H174.057L170.582 230.065V227.22L174.339 224.841H177.355ZM186.506 240.226C185.459 240.226 184.525 240.033 183.704 239.648C182.89 239.263 182.242 238.732 181.763 238.055C181.283 237.378 181.034 236.602 181.014 235.728H184.127C184.161 236.316 184.409 236.792 184.868 237.158C185.328 237.523 185.873 237.706 186.506 237.706C187.01 237.706 187.455 237.595 187.84 237.373C188.23 237.146 188.534 236.832 188.751 236.432C188.974 236.026 189.085 235.562 189.085 235.039C189.085 234.505 188.971 234.035 188.744 233.631C188.522 233.225 188.213 232.909 187.818 232.682C187.423 232.454 186.97 232.339 186.462 232.333C186.017 232.333 185.585 232.425 185.165 232.608C184.75 232.79 184.426 233.04 184.194 233.356L181.341 232.845L182.059 224.841H191.338V227.464H184.705L184.312 231.266H184.401C184.668 230.891 185.071 230.579 185.609 230.332C186.148 230.085 186.751 229.962 187.418 229.962C188.332 229.962 189.147 230.177 189.863 230.607C190.579 231.036 191.145 231.627 191.56 232.378C191.976 233.124 192.18 233.984 192.175 234.957C192.18 235.98 191.944 236.889 191.464 237.684C190.99 238.475 190.326 239.097 189.471 239.552C188.621 240.001 187.633 240.226 186.506 240.226ZM200.364 240.352C199.09 240.347 197.993 240.033 197.074 239.411C196.16 238.789 195.456 237.887 194.962 236.706C194.473 235.525 194.231 234.105 194.236 232.444C194.236 230.789 194.481 229.379 194.97 228.213C195.464 227.047 196.168 226.16 197.082 225.553C198.001 224.94 199.095 224.634 200.364 224.634C201.635 224.634 202.726 224.94 203.64 225.553C204.559 226.165 205.266 227.055 205.76 228.22C206.254 229.381 206.499 230.789 206.494 232.444C206.494 234.11 206.247 235.532 205.752 236.714C205.263 237.894 204.562 238.796 203.648 239.418C202.734 240.041 201.64 240.352 200.364 240.352ZM200.364 237.692C201.234 237.692 201.928 237.254 202.447 236.38C202.966 235.505 203.223 234.193 203.218 232.444C203.218 231.293 203.099 230.335 202.863 229.569C202.63 228.803 202.299 228.227 201.869 227.842C201.444 227.457 200.943 227.264 200.364 227.264C199.5 227.264 198.808 227.697 198.289 228.561C197.771 229.426 197.509 230.721 197.504 232.444C197.504 233.61 197.62 234.584 197.852 235.365C198.09 236.14 198.423 236.723 198.853 237.114C199.283 237.499 199.786 237.692 200.364 237.692ZM211.631 237.944L211.55 238.759C211.486 239.411 211.362 240.06 211.179 240.708C211.002 241.36 210.814 241.951 210.616 242.479C210.424 243.008 210.268 243.423 210.149 243.724H208.104C208.178 243.433 208.279 243.025 208.408 242.501C208.536 241.983 208.657 241.4 208.771 240.753C208.884 240.105 208.956 239.445 208.986 238.773L209.023 237.944H211.631ZM214.488 240.019V237.706L219.891 232.704C220.351 232.259 220.736 231.859 221.047 231.503C221.363 231.148 221.603 230.799 221.766 230.458C221.929 230.113 222.01 229.74 222.01 229.339C222.01 228.895 221.91 228.512 221.706 228.191C221.504 227.864 221.228 227.615 220.877 227.442C220.526 227.264 220.128 227.176 219.683 227.176C219.219 227.176 218.814 227.269 218.468 227.457C218.122 227.644 217.855 227.914 217.667 228.265C217.48 228.616 217.386 229.033 217.386 229.517H214.34C214.34 228.524 214.565 227.662 215.014 226.931C215.464 226.2 216.094 225.634 216.904 225.233C217.715 224.833 218.648 224.634 219.706 224.634C220.793 224.634 221.739 224.826 222.544 225.211C223.354 225.592 223.985 226.12 224.434 226.797C224.883 227.474 225.108 228.25 225.108 229.124C225.108 229.697 224.995 230.264 224.767 230.821C224.545 231.38 224.147 232 223.574 232.682C223.001 233.359 222.193 234.171 221.151 235.12L218.935 237.292V237.395H225.309V240.019H214.488ZM233.244 240.226C232.137 240.226 231.151 240.036 230.287 239.656C229.427 239.27 228.748 238.741 228.249 238.069C227.755 237.393 227.501 236.612 227.485 235.728H230.716C230.737 236.098 230.858 236.424 231.08 236.706C231.307 236.983 231.608 237.198 231.984 237.351C232.36 237.504 232.782 237.58 233.251 237.58C233.741 237.58 234.173 237.494 234.548 237.321C234.924 237.148 235.218 236.908 235.43 236.602C235.642 236.296 235.749 235.943 235.749 235.542C235.749 235.137 235.635 234.779 235.408 234.468C235.185 234.152 234.865 233.905 234.445 233.727C234.029 233.549 233.535 233.46 232.962 233.46H231.547V231.103H232.962C233.446 231.103 233.874 231.019 234.244 230.851C234.62 230.683 234.911 230.451 235.119 230.154C235.327 229.853 235.43 229.503 235.43 229.103C235.43 228.722 235.339 228.388 235.156 228.101C234.978 227.81 234.726 227.583 234.4 227.42C234.079 227.257 233.704 227.176 233.274 227.176C232.839 227.176 232.441 227.254 232.081 227.413C231.72 227.566 231.431 227.786 231.213 228.072C230.996 228.359 230.88 228.695 230.865 229.08H227.789C227.804 228.205 228.054 227.435 228.538 226.768C229.022 226.101 229.674 225.58 230.495 225.204C231.32 224.824 232.251 224.634 233.288 224.634C234.336 224.634 235.252 224.824 236.038 225.204C236.824 225.585 237.434 226.098 237.869 226.746C238.308 227.388 238.526 228.109 238.52 228.91C238.526 229.759 238.262 230.468 237.727 231.036C237.199 231.605 236.51 231.965 235.66 232.118V232.237C236.776 232.38 237.626 232.768 238.209 233.401C238.797 234.028 239.089 234.814 239.084 235.757C239.089 236.622 238.839 237.391 238.335 238.063C237.837 238.734 237.147 239.263 236.268 239.648C235.389 240.033 234.381 240.226 233.244 240.226ZM247.994 224.841V240.019H244.785V227.887H244.696L241.22 230.065V227.22L244.977 224.841H247.994ZM252.661 240.211C252.172 240.211 251.752 240.038 251.401 239.692C251.055 239.342 250.882 238.922 250.882 238.433C250.882 237.948 251.055 237.534 251.401 237.187C251.752 236.842 252.172 236.669 252.661 236.669C253.135 236.669 253.551 236.842 253.906 237.187C254.262 237.534 254.44 237.948 254.44 238.433C254.44 238.759 254.355 239.058 254.188 239.329C254.024 239.596 253.809 239.811 253.543 239.974C253.276 240.132 252.982 240.211 252.661 240.211ZM262.053 240.226C260.911 240.226 259.896 240.041 259.007 239.67C258.122 239.295 257.428 238.783 256.924 238.136C256.42 237.489 256.168 236.755 256.168 235.935C256.168 235.303 256.312 234.722 256.598 234.193C256.89 233.66 257.285 233.218 257.784 232.867C258.283 232.511 258.841 232.284 259.459 232.185V232.081C258.648 231.919 257.992 231.525 257.487 230.903C256.984 230.275 256.731 229.547 256.731 228.717C256.731 227.931 256.961 227.232 257.42 226.62C257.88 226.002 258.51 225.518 259.311 225.167C260.116 224.811 261.03 224.634 262.053 224.634C263.075 224.634 263.987 224.811 264.787 225.167C265.592 225.523 266.225 226.01 266.685 226.627C267.144 227.24 267.376 227.936 267.381 228.717C267.376 229.552 267.119 230.28 266.61 230.903C266.102 231.525 265.449 231.919 264.654 232.081V232.185C265.262 232.284 265.812 232.511 266.307 232.867C266.806 233.218 267.201 233.66 267.492 234.193C267.788 234.722 267.939 235.303 267.944 235.935C267.939 236.755 267.685 237.489 267.181 238.136C266.677 238.783 265.98 239.295 265.091 239.67C264.207 240.041 263.194 240.226 262.053 240.226ZM262.053 237.87C262.561 237.87 263.006 237.778 263.386 237.595C263.767 237.407 264.063 237.151 264.276 236.824C264.493 236.494 264.602 236.113 264.602 235.683C264.602 235.244 264.491 234.856 264.268 234.52C264.046 234.179 263.745 233.912 263.364 233.72C262.984 233.522 262.547 233.423 262.053 233.423C261.564 233.423 261.126 233.522 260.741 233.72C260.355 233.912 260.051 234.179 259.83 234.52C259.612 234.856 259.503 235.244 259.503 235.683C259.503 236.113 259.61 236.494 259.822 236.824C260.034 237.151 260.333 237.407 260.719 237.595C261.104 237.778 261.548 237.87 262.053 237.87ZM262.053 231.089C262.477 231.089 262.856 231.002 263.187 230.829C263.517 230.656 263.777 230.417 263.965 230.11C264.152 229.804 264.246 229.45 264.246 229.05C264.246 228.655 264.152 228.309 263.965 228.012C263.777 227.711 263.52 227.477 263.194 227.308C262.868 227.136 262.488 227.05 262.053 227.05C261.623 227.05 261.242 227.136 260.911 227.308C260.58 227.477 260.321 227.711 260.133 228.012C259.951 228.309 259.859 228.655 259.859 229.05C259.859 229.45 259.953 229.804 260.141 230.11C260.328 230.417 260.588 230.656 260.919 230.829C261.25 231.002 261.628 231.089 262.053 231.089ZM275.68 224.634C276.461 224.634 277.211 224.764 277.933 225.026C278.659 225.288 279.306 225.706 279.874 226.279C280.447 226.851 280.899 227.612 281.231 228.561C281.567 229.505 281.737 230.664 281.742 232.037C281.742 233.327 281.597 234.478 281.305 235.491C281.018 236.499 280.606 237.356 280.067 238.063C279.528 238.769 278.879 239.307 278.118 239.678C277.357 240.044 276.507 240.226 275.569 240.226C274.556 240.226 273.661 240.031 272.886 239.641C272.11 239.245 271.485 238.709 271.011 238.033C270.541 237.351 270.257 236.585 270.159 235.735H273.323C273.446 236.289 273.706 236.719 274.101 237.025C274.497 237.326 274.986 237.477 275.569 237.477C276.557 237.477 277.308 237.047 277.821 236.187C278.335 235.322 278.595 234.139 278.6 232.637H278.496C278.269 233.082 277.962 233.465 277.577 233.786C277.192 234.102 276.749 234.347 276.25 234.52C275.756 234.693 275.23 234.779 274.672 234.779C273.777 234.779 272.979 234.569 272.278 234.149C271.576 233.729 271.023 233.151 270.618 232.415C270.213 231.679 270.01 230.839 270.01 229.895C270.006 228.877 270.24 227.971 270.714 227.176C271.189 226.38 271.85 225.757 272.7 225.308C273.555 224.853 274.548 224.628 275.68 224.634ZM275.702 227.153C275.203 227.153 274.758 227.272 274.368 227.509C273.983 227.746 273.677 228.065 273.449 228.465C273.226 228.865 273.118 229.312 273.123 229.807C273.123 230.305 273.231 230.755 273.449 231.155C273.672 231.551 273.973 231.866 274.353 232.104C274.739 232.336 275.178 232.452 275.672 232.452C276.043 232.452 276.386 232.383 276.703 232.245C277.018 232.106 277.292 231.916 277.525 231.674C277.762 231.427 277.948 231.143 278.081 230.821C278.214 230.5 278.281 230.159 278.281 229.799C278.276 229.32 278.162 228.88 277.94 228.48C277.718 228.079 277.411 227.759 277.021 227.516C276.631 227.274 276.191 227.153 275.702 227.153Z" fill="#09090B"/>
<path d="M158.648 259.643V255.078H159.423V259.643H158.648ZM156.753 257.748V256.973H161.318V257.748H156.753ZM162.646 260.888V260.266L164.984 257.706C165.258 257.407 165.485 257.146 165.662 256.925C165.839 256.701 165.971 256.491 166.056 256.296C166.144 256.097 166.188 255.889 166.188 255.673C166.188 255.424 166.128 255.208 166.008 255.026C165.89 254.844 165.729 254.703 165.523 254.605C165.318 254.505 165.088 254.456 164.832 254.456C164.56 254.456 164.323 254.512 164.12 254.625C163.919 254.736 163.763 254.891 163.653 255.092C163.544 255.293 163.49 255.528 163.49 255.798H162.674C162.674 255.382 162.769 255.018 162.961 254.705C163.152 254.391 163.413 254.147 163.743 253.971C164.074 253.796 164.447 253.709 164.86 253.709C165.274 253.709 165.642 253.796 165.963 253.971C166.283 254.147 166.535 254.383 166.717 254.68C166.899 254.978 166.99 255.309 166.99 255.673C166.99 255.933 166.943 256.189 166.848 256.438C166.756 256.684 166.595 256.959 166.364 257.264C166.136 257.566 165.819 257.935 165.413 258.371L163.822 260.072V260.127H167.114V260.888H162.646ZM170.854 260.985C170.333 260.985 169.888 260.843 169.522 260.56C169.155 260.274 168.875 259.86 168.681 259.318C168.488 258.774 168.391 258.117 168.391 257.347C168.391 256.582 168.488 255.928 168.681 255.386C168.877 254.842 169.158 254.426 169.525 254.141C169.894 253.853 170.337 253.709 170.854 253.709C171.37 253.709 171.811 253.853 172.178 254.141C172.547 254.426 172.828 254.842 173.022 255.386C173.217 255.928 173.315 256.582 173.315 257.347C173.315 258.117 173.219 258.774 173.025 259.318C172.831 259.86 172.552 260.274 172.185 260.56C171.818 260.843 171.375 260.985 170.854 260.985ZM170.854 260.224C171.37 260.224 171.771 259.975 172.057 259.478C172.343 258.979 172.486 258.269 172.486 257.347C172.486 256.733 172.42 256.211 172.289 255.78C172.159 255.349 171.973 255.021 171.728 254.794C171.486 254.568 171.194 254.456 170.854 254.456C170.342 254.456 169.942 254.708 169.653 255.213C169.365 255.715 169.221 256.427 169.221 257.347C169.221 257.96 169.286 258.481 169.414 258.91C169.544 259.339 169.729 259.665 169.971 259.889C170.216 260.113 170.51 260.224 170.854 260.224ZM174.991 260.944C174.821 260.944 174.674 260.883 174.552 260.76C174.43 260.638 174.369 260.492 174.369 260.321C174.369 260.15 174.43 260.004 174.552 259.882C174.674 259.76 174.821 259.699 174.991 259.699C175.162 259.699 175.309 259.76 175.43 259.882C175.553 260.004 175.614 260.15 175.614 260.321C175.614 260.434 175.585 260.538 175.528 260.632C175.472 260.727 175.397 260.803 175.303 260.861C175.21 260.916 175.107 260.944 174.991 260.944ZM178.708 253.805V260.888H177.85V254.705H177.809L176.08 255.853V254.982L177.85 253.805H178.708ZM184.356 259.56V259.187C184.356 258.929 184.409 258.692 184.515 258.478C184.623 258.261 184.781 258.088 184.986 257.959C185.193 257.827 185.444 257.762 185.74 257.762C186.039 257.762 186.291 257.827 186.493 257.959C186.696 258.088 186.849 258.261 186.954 258.478C187.057 258.692 187.109 258.929 187.109 259.187V259.56C187.109 259.818 187.056 260.056 186.95 260.273C186.846 260.487 186.691 260.66 186.486 260.792C186.284 260.92 186.035 260.985 185.74 260.985C185.44 260.985 185.187 260.92 184.982 260.792C184.777 260.66 184.621 260.487 184.515 260.273C184.409 260.056 184.356 259.818 184.356 259.56ZM185.062 259.187V259.56C185.062 259.775 185.112 259.967 185.214 260.138C185.315 260.306 185.491 260.39 185.74 260.39C185.982 260.39 186.152 260.306 186.251 260.138C186.353 259.967 186.403 259.775 186.403 259.56V259.187C186.403 258.973 186.355 258.781 186.258 258.613C186.161 258.442 185.988 258.357 185.74 258.357C185.498 258.357 185.323 258.442 185.217 258.613C185.114 258.781 185.062 258.973 185.062 259.187ZM180.829 255.507V255.133C180.829 254.875 180.881 254.639 180.988 254.424C181.096 254.208 181.253 254.035 181.458 253.905C181.665 253.774 181.917 253.709 182.212 253.709C182.511 253.709 182.763 253.774 182.966 253.905C183.169 254.035 183.322 254.208 183.426 254.424C183.53 254.639 183.581 254.875 183.581 255.133V255.507C183.581 255.765 183.528 256.003 183.423 256.219C183.318 256.434 183.164 256.607 182.959 256.738C182.756 256.867 182.507 256.931 182.212 256.931C181.912 256.931 181.66 256.867 181.455 256.738C181.249 256.607 181.094 256.434 180.988 256.219C180.881 256.003 180.829 255.765 180.829 255.507ZM181.534 255.133V255.507C181.534 255.721 181.585 255.914 181.686 256.084C181.788 256.253 181.963 256.337 182.212 256.337C182.454 256.337 182.625 256.253 182.723 256.084C182.825 255.914 182.876 255.721 182.876 255.507V255.133C182.876 254.919 182.827 254.728 182.73 254.559C182.634 254.389 182.461 254.303 182.212 254.303C181.969 254.303 181.795 254.389 181.69 254.559C181.586 254.728 181.534 254.919 181.534 255.133ZM181.091 260.888L185.961 253.805H186.749L181.88 260.888H181.091ZM193.777 255.576V256.268H190.913V255.576H193.777ZM191.771 260.888V254.843C191.771 254.538 191.843 254.285 191.985 254.082C192.129 253.879 192.314 253.727 192.543 253.626C192.771 253.524 193.011 253.473 193.265 253.473C193.466 253.473 193.629 253.489 193.757 253.522C193.883 253.554 193.978 253.584 194.04 253.612L193.805 254.317C193.763 254.303 193.706 254.286 193.632 254.265C193.56 254.245 193.466 254.234 193.348 254.234C193.078 254.234 192.883 254.302 192.764 254.438C192.646 254.575 192.587 254.774 192.587 255.037V260.888H191.771ZM194.921 260.888V255.576H195.709V256.378H195.765C195.862 256.115 196.037 255.903 196.291 255.738C196.544 255.575 196.83 255.493 197.149 255.493C197.208 255.493 197.283 255.494 197.373 255.496C197.463 255.499 197.531 255.503 197.577 255.507V256.337C197.549 256.33 197.486 256.32 197.387 256.306C197.29 256.289 197.187 256.282 197.079 256.282C196.821 256.282 196.59 256.336 196.387 256.445C196.186 256.55 196.028 256.698 195.91 256.887C195.795 257.073 195.737 257.287 195.737 257.527V260.888H194.921ZM200.541 260.999C200.061 260.999 199.64 260.885 199.279 260.657C198.919 260.429 198.638 260.109 198.435 259.699C198.234 259.288 198.134 258.808 198.134 258.26C198.134 257.706 198.234 257.224 198.435 256.81C198.638 256.398 198.919 256.078 199.279 255.849C199.64 255.621 200.061 255.507 200.541 255.507C201.021 255.507 201.44 255.621 201.8 255.849C202.162 256.078 202.443 256.398 202.643 256.81C202.847 257.224 202.948 257.706 202.948 258.26C202.948 258.808 202.847 259.288 202.643 259.699C202.443 260.109 202.162 260.429 201.8 260.657C201.44 260.885 201.021 260.999 200.541 260.999ZM200.541 260.266C200.905 260.266 201.205 260.173 201.44 259.985C201.675 259.799 201.85 259.553 201.962 259.249C202.075 258.945 202.132 258.615 202.132 258.26C202.132 257.905 202.075 257.574 201.962 257.267C201.85 256.961 201.675 256.713 201.44 256.524C201.205 256.335 200.905 256.24 200.541 256.24C200.177 256.24 199.877 256.335 199.642 256.524C199.407 256.713 199.233 256.961 199.119 257.267C199.007 257.574 198.95 257.905 198.95 258.26C198.95 258.615 199.007 258.945 199.119 259.249C199.233 259.553 199.407 259.799 199.642 259.985C199.877 260.173 200.177 260.266 200.541 260.266ZM204.194 260.888V255.576H204.982V256.406H205.052C205.162 256.122 205.341 255.903 205.587 255.745C205.834 255.587 206.131 255.507 206.477 255.507C206.827 255.507 207.119 255.587 207.352 255.745C207.587 255.903 207.77 256.122 207.901 256.406H207.957C208.093 256.131 208.297 255.914 208.569 255.752C208.841 255.589 209.167 255.507 209.548 255.507C210.023 255.507 210.411 255.656 210.713 255.953C211.016 256.248 211.167 256.708 211.167 257.333V260.888H210.35V257.333C210.35 256.941 210.243 256.661 210.029 256.493C209.814 256.324 209.562 256.24 209.271 256.24C208.897 256.24 208.608 256.353 208.403 256.579C208.198 256.803 208.095 257.087 208.095 257.43V260.888H207.265V257.25C207.265 256.948 207.167 256.705 206.971 256.52C206.775 256.333 206.522 256.24 206.214 256.24C206.001 256.24 205.803 256.296 205.619 256.41C205.437 256.522 205.289 256.68 205.176 256.88C205.066 257.078 205.01 257.308 205.01 257.568V260.888H204.194ZM216.214 253.805V260.888H215.398V253.805H216.214ZM219.272 261.013C218.936 261.013 218.63 260.95 218.355 260.823C218.081 260.694 217.864 260.508 217.702 260.266C217.541 260.022 217.46 259.727 217.46 259.38C217.46 259.076 217.52 258.829 217.64 258.64C217.76 258.449 217.92 258.299 218.12 258.191C218.321 258.082 218.543 258.001 218.785 257.949C219.029 257.894 219.274 257.85 219.521 257.817C219.844 257.776 220.106 257.745 220.306 257.724C220.509 257.701 220.657 257.663 220.749 257.61C220.844 257.557 220.891 257.464 220.891 257.333V257.305C220.891 256.964 220.797 256.699 220.611 256.51C220.426 256.321 220.146 256.226 219.77 256.226C219.381 256.226 219.075 256.312 218.854 256.482C218.632 256.653 218.477 256.835 218.387 257.029L217.612 256.752C217.75 256.429 217.935 256.178 218.166 255.998C218.399 255.816 218.652 255.689 218.927 255.617C219.203 255.544 219.475 255.507 219.743 255.507C219.913 255.507 220.109 255.528 220.33 255.569C220.554 255.608 220.77 255.69 220.977 255.815C221.187 255.939 221.361 256.127 221.5 256.378C221.638 256.63 221.707 256.966 221.707 257.389V260.888H220.891V260.169H220.849C220.794 260.285 220.702 260.408 220.573 260.539C220.444 260.671 220.272 260.783 220.057 260.874C219.843 260.967 219.581 261.013 219.272 261.013ZM219.397 260.28C219.72 260.28 219.992 260.216 220.213 260.09C220.437 259.962 220.605 259.799 220.718 259.599C220.833 259.398 220.891 259.187 220.891 258.966V258.218C220.856 258.26 220.78 258.298 220.662 258.333C220.547 258.365 220.413 258.394 220.262 258.419C220.111 258.442 219.965 258.463 219.822 258.481C219.681 258.497 219.567 258.511 219.48 258.522C219.267 258.55 219.069 258.595 218.885 258.657C218.703 258.717 218.555 258.808 218.442 258.931C218.332 259.05 218.276 259.215 218.276 259.422C218.276 259.706 218.381 259.92 218.591 260.065C218.803 260.208 219.071 260.28 219.397 260.28ZM226.959 256.766L226.226 256.973C226.18 256.851 226.112 256.733 226.022 256.617C225.935 256.499 225.815 256.403 225.663 256.326C225.51 256.25 225.315 256.212 225.078 256.212C224.753 256.212 224.482 256.287 224.266 256.438C224.051 256.585 223.944 256.773 223.944 257.001C223.944 257.204 224.017 257.364 224.165 257.482C224.313 257.599 224.543 257.697 224.857 257.776L225.645 257.969C226.12 258.085 226.474 258.261 226.707 258.499C226.94 258.734 227.057 259.037 227.057 259.408C227.057 259.713 226.969 259.985 226.794 260.224C226.621 260.464 226.378 260.653 226.067 260.792C225.756 260.93 225.394 260.999 224.982 260.999C224.44 260.999 223.991 260.881 223.636 260.646C223.281 260.411 223.056 260.067 222.961 259.615L223.736 259.422C223.81 259.708 223.949 259.922 224.154 260.065C224.362 260.208 224.633 260.28 224.968 260.28C225.348 260.28 225.65 260.199 225.873 260.038C226.099 259.874 226.213 259.678 226.213 259.45C226.213 259.265 226.148 259.111 226.019 258.986C225.89 258.859 225.692 258.765 225.424 258.703L224.538 258.495C224.052 258.38 223.695 258.201 223.466 257.959C223.24 257.715 223.128 257.409 223.128 257.043C223.128 256.743 223.212 256.478 223.38 256.247C223.551 256.017 223.782 255.836 224.075 255.704C224.37 255.573 224.705 255.507 225.078 255.507C225.604 255.507 226.017 255.622 226.317 255.853C226.618 256.083 226.833 256.387 226.959 256.766ZM230.595 255.576V256.268H227.842V255.576H230.595ZM228.645 254.303H229.461V259.366C229.461 259.597 229.494 259.77 229.561 259.885C229.631 259.999 229.718 260.074 229.824 260.113C229.933 260.15 230.047 260.169 230.166 260.169C230.257 260.169 230.33 260.164 230.388 260.155C230.445 260.143 230.492 260.134 230.526 260.127L230.692 260.861C230.637 260.881 230.559 260.902 230.461 260.923C230.361 260.946 230.236 260.957 230.083 260.957C229.853 260.957 229.627 260.908 229.406 260.809C229.187 260.71 229.005 260.559 228.859 260.355C228.716 260.153 228.645 259.897 228.645 259.588V254.303ZM234.562 260.888V255.576H235.351V256.406H235.42C235.53 256.122 235.709 255.903 235.956 255.745C236.202 255.587 236.499 255.507 236.845 255.507C237.195 255.507 237.487 255.587 237.72 255.745C237.955 255.903 238.138 256.122 238.27 256.406H238.325C238.461 256.131 238.665 255.914 238.937 255.752C239.209 255.589 239.535 255.507 239.916 255.507C240.391 255.507 240.78 255.656 241.082 255.953C241.384 256.248 241.535 256.708 241.535 257.333V260.888H240.719V257.333C240.719 256.941 240.611 256.661 240.397 256.493C240.182 256.324 239.93 256.24 239.64 256.24C239.266 256.24 238.977 256.353 238.771 256.579C238.566 256.803 238.463 257.087 238.463 257.43V260.888H237.633V257.25C237.633 256.948 237.535 256.705 237.339 256.52C237.144 256.333 236.891 256.24 236.582 256.24C236.37 256.24 236.172 256.296 235.987 256.41C235.805 256.522 235.658 256.68 235.544 256.88C235.434 257.078 235.379 257.308 235.379 257.568V260.888H234.562ZM245.185 260.999C244.705 260.999 244.285 260.885 243.923 260.657C243.563 260.429 243.281 260.109 243.079 259.699C242.878 259.288 242.778 258.808 242.778 258.26C242.778 257.706 242.878 257.224 243.079 256.81C243.281 256.398 243.563 256.078 243.923 255.849C244.285 255.621 244.705 255.507 245.185 255.507C245.665 255.507 246.084 255.621 246.444 255.849C246.806 256.078 247.087 256.398 247.288 256.81C247.491 257.224 247.592 257.706 247.592 258.26C247.592 258.808 247.491 259.288 247.288 259.699C247.087 260.109 246.806 260.429 246.444 260.657C246.084 260.885 245.665 260.999 245.185 260.999ZM245.185 260.266C245.549 260.266 245.849 260.173 246.084 259.985C246.319 259.799 246.493 259.553 246.607 259.249C246.719 258.945 246.776 258.615 246.776 258.26C246.776 257.905 246.719 257.574 246.607 257.267C246.493 256.961 246.319 256.713 246.084 256.524C245.849 256.335 245.549 256.24 245.185 256.24C244.821 256.24 244.521 256.335 244.286 256.524C244.051 256.713 243.877 256.961 243.763 257.267C243.651 257.574 243.594 257.905 243.594 258.26C243.594 258.615 243.651 258.945 243.763 259.249C243.877 259.553 244.051 259.799 244.286 259.985C244.521 260.173 244.821 260.266 245.185 260.266ZM249.654 257.693V260.888H248.838V255.576H249.626V256.406H249.696C249.821 256.136 250.009 255.919 250.263 255.756C250.517 255.59 250.844 255.507 251.245 255.507C251.605 255.507 251.919 255.581 252.189 255.728C252.459 255.873 252.669 256.095 252.819 256.392C252.968 256.687 253.043 257.061 253.043 257.513V260.888H252.227V257.568C252.227 257.151 252.119 256.826 251.903 256.593C251.686 256.358 251.388 256.24 251.01 256.24C250.749 256.24 250.517 256.296 250.312 256.41C250.109 256.522 249.949 256.687 249.831 256.904C249.713 257.121 249.654 257.384 249.654 257.693ZM256.845 255.576V256.268H254.093V255.576H256.845ZM254.895 254.303H255.711V259.366C255.711 259.597 255.745 259.77 255.811 259.885C255.88 259.999 255.968 260.074 256.074 260.113C256.182 260.15 256.296 260.169 256.417 260.169C256.506 260.169 256.58 260.164 256.638 260.155C256.696 260.143 256.742 260.134 256.776 260.127L256.942 260.861C256.887 260.881 256.81 260.902 256.71 260.923C256.611 260.946 256.486 260.957 256.333 260.957C256.103 260.957 255.877 260.908 255.656 260.809C255.437 260.71 255.254 260.559 255.109 260.355C254.966 260.153 254.895 259.897 254.895 259.588V254.303ZM259.003 257.693V260.888H258.187V253.805H259.003V256.406H259.073C259.197 256.131 259.384 255.914 259.633 255.752C259.885 255.589 260.218 255.507 260.636 255.507C260.998 255.507 261.315 255.58 261.587 255.725C261.859 255.868 262.07 256.088 262.22 256.385C262.372 256.68 262.448 257.056 262.448 257.513V260.888H261.632V257.568C261.632 257.146 261.522 256.82 261.304 256.589C261.087 256.357 260.785 256.24 260.401 256.24C260.134 256.24 259.894 256.296 259.681 256.41C259.471 256.522 259.306 256.687 259.183 256.904C259.064 257.121 259.003 257.384 259.003 257.693Z" fill="#71717A"/>
<path d="M156.431 202.673V201.695H163.261V202.673H160.397V210.801H159.295V202.673H156.431ZM166.605 210.944C165.988 210.944 165.447 210.797 164.982 210.504C164.519 210.21 164.158 209.8 163.897 209.272C163.639 208.744 163.51 208.127 163.51 207.422C163.51 206.71 163.639 206.09 163.897 205.559C164.158 205.028 164.519 204.616 164.982 204.323C165.447 204.029 165.988 203.882 166.605 203.882C167.222 203.882 167.761 204.029 168.223 204.323C168.689 204.616 169.05 205.028 169.309 205.559C169.569 206.09 169.699 206.71 169.699 207.422C169.699 208.127 169.569 208.744 169.309 209.272C169.05 209.8 168.689 210.21 168.223 210.504C167.761 210.797 167.222 210.944 166.605 210.944ZM166.605 210.001C167.073 210.001 167.459 209.881 167.761 209.641C168.063 209.401 168.287 209.085 168.432 208.694C168.577 208.303 168.65 207.878 168.65 207.422C168.65 206.966 168.577 206.54 168.432 206.146C168.287 205.752 168.063 205.433 167.761 205.19C167.459 204.947 167.073 204.825 166.605 204.825C166.136 204.825 165.751 204.947 165.448 205.19C165.146 205.433 164.922 205.752 164.777 206.146C164.632 206.54 164.559 206.966 164.559 207.422C164.559 207.878 164.632 208.303 164.777 208.694C164.922 209.085 165.146 209.401 165.448 209.641C165.751 209.881 166.136 210.001 166.605 210.001ZM174.272 203.972V204.861H170.733V203.972H174.272ZM171.764 202.335H172.813V208.845C172.813 209.142 172.856 209.364 172.943 209.512C173.031 209.657 173.144 209.755 173.28 209.805C173.42 209.853 173.567 209.876 173.72 209.876C173.836 209.876 173.931 209.871 174.005 209.859C174.079 209.844 174.138 209.832 174.183 209.823L174.397 210.766C174.326 210.792 174.226 210.82 174.099 210.846C173.971 210.876 173.809 210.89 173.614 210.89C173.318 210.89 173.027 210.827 172.742 210.699C172.461 210.572 172.226 210.378 172.04 210.117C171.856 209.856 171.764 209.527 171.764 209.13V202.335ZM177.86 210.961C177.427 210.961 177.034 210.88 176.682 210.717C176.329 210.551 176.049 210.312 175.841 210.001C175.634 209.687 175.53 209.307 175.53 208.863C175.53 208.472 175.608 208.155 175.761 207.911C175.916 207.665 176.122 207.472 176.38 207.333C176.637 207.194 176.922 207.09 177.233 207.022C177.548 206.95 177.863 206.895 178.18 206.853C178.595 206.799 178.932 206.76 179.19 206.733C179.45 206.703 179.64 206.654 179.759 206.586C179.88 206.518 179.942 206.399 179.942 206.23V206.195C179.942 205.756 179.821 205.415 179.581 205.172C179.344 204.929 178.984 204.808 178.501 204.808C177.999 204.808 177.607 204.917 177.322 205.137C177.038 205.356 176.838 205.59 176.722 205.839L175.726 205.483C175.904 205.069 176.141 204.745 176.438 204.514C176.737 204.28 177.063 204.117 177.416 204.025C177.771 203.93 178.121 203.882 178.465 203.882C178.685 203.882 178.936 203.909 179.221 203.963C179.509 204.013 179.786 204.118 180.052 204.278C180.322 204.438 180.546 204.68 180.724 205.003C180.902 205.326 180.991 205.759 180.991 206.301V210.801H179.942V209.876H179.888C179.817 210.025 179.698 210.184 179.533 210.352C179.366 210.521 179.145 210.665 178.87 210.783C178.594 210.902 178.257 210.961 177.86 210.961ZM178.02 210.019C178.435 210.019 178.785 209.937 179.07 209.774C179.357 209.611 179.574 209.401 179.719 209.143C179.867 208.885 179.942 208.614 179.942 208.329V207.368C179.897 207.422 179.799 207.471 179.648 207.515C179.5 207.557 179.328 207.594 179.132 207.627C178.939 207.656 178.751 207.683 178.568 207.707C178.387 207.727 178.24 207.745 178.127 207.76C177.855 207.796 177.599 207.853 177.362 207.933C177.128 208.011 176.938 208.127 176.793 208.285C176.651 208.439 176.579 208.649 176.579 208.916C176.579 209.281 176.714 209.556 176.984 209.743C177.257 209.927 177.602 210.019 178.02 210.019ZM183.955 201.695V210.801H182.906V201.695H183.955ZM189.4 210.801V203.972H190.449V210.801H189.4ZM189.933 202.833C189.729 202.833 189.552 202.763 189.404 202.624C189.258 202.485 189.186 202.317 189.186 202.122C189.186 201.926 189.258 201.759 189.404 201.619C189.552 201.48 189.729 201.41 189.933 201.41C190.138 201.41 190.312 201.48 190.458 201.619C190.606 201.759 190.68 201.926 190.68 202.122C190.68 202.317 190.606 202.485 190.458 202.624C190.312 202.763 190.138 202.833 189.933 202.833ZM193.421 206.693V210.801H192.371V203.972H193.384V205.039H193.473C193.633 204.692 193.877 204.413 194.203 204.203C194.529 203.989 194.95 203.882 195.466 203.882C195.928 203.882 196.333 203.977 196.68 204.167C197.026 204.354 197.296 204.639 197.489 205.021C197.681 205.4 197.778 205.88 197.778 206.461V210.801H196.728V206.533C196.728 205.996 196.589 205.578 196.31 205.279C196.032 204.976 195.649 204.825 195.163 204.825C194.829 204.825 194.529 204.897 194.265 205.043C194.004 205.188 193.798 205.4 193.647 205.679C193.496 205.958 193.421 206.296 193.421 206.693ZM202.47 210.944C201.83 210.944 201.279 210.792 200.816 210.491C200.353 210.188 199.998 209.771 199.749 209.24C199.5 208.71 199.375 208.104 199.375 207.422C199.375 206.728 199.503 206.116 199.758 205.585C200.016 205.052 200.374 204.635 200.834 204.336C201.296 204.033 201.836 203.882 202.452 203.882C202.933 203.882 203.366 203.972 203.751 204.15C204.136 204.327 204.452 204.576 204.698 204.896C204.944 205.217 205.097 205.59 205.156 206.017H204.106C204.026 205.706 203.848 205.43 203.573 205.19C203.3 204.947 202.933 204.825 202.47 204.825C202.061 204.825 201.702 204.932 201.394 205.145C201.089 205.356 200.85 205.654 200.678 206.039C200.509 206.422 200.425 206.87 200.425 207.387C200.425 207.914 200.508 208.374 200.674 208.765C200.842 209.156 201.08 209.46 201.385 209.677C201.693 209.893 202.055 210.001 202.47 210.001C202.743 210.001 202.991 209.953 203.213 209.859C203.435 209.764 203.624 209.627 203.777 209.45C203.932 209.272 204.041 209.058 204.106 208.809H205.156C205.097 209.213 204.95 209.576 204.716 209.899C204.485 210.219 204.178 210.474 203.795 210.664C203.416 210.85 202.974 210.944 202.47 210.944ZM209.465 210.944C208.848 210.944 208.307 210.797 207.842 210.504C207.379 210.21 207.018 209.8 206.757 209.272C206.499 208.744 206.37 208.127 206.37 207.422C206.37 206.71 206.499 206.09 206.757 205.559C207.018 205.028 207.379 204.616 207.842 204.323C208.307 204.029 208.848 203.882 209.465 203.882C210.081 203.882 210.621 204.029 211.083 204.323C211.549 204.616 211.91 205.028 212.168 205.559C212.429 206.09 212.56 206.71 212.56 207.422C212.56 208.127 212.429 208.744 212.168 209.272C211.91 209.8 211.549 210.21 211.083 210.504C210.621 210.797 210.081 210.944 209.465 210.944ZM209.465 210.001C209.933 210.001 210.319 209.881 210.621 209.641C210.923 209.401 211.147 209.085 211.293 208.694C211.438 208.303 211.51 207.878 211.51 207.422C211.51 206.966 211.438 206.54 211.293 206.146C211.147 205.752 210.923 205.433 210.621 205.19C210.319 204.947 209.933 204.825 209.465 204.825C208.996 204.825 208.611 204.947 208.309 205.19C208.006 205.433 207.782 205.752 207.638 206.146C207.492 206.54 207.419 206.966 207.419 207.422C207.419 207.878 207.492 208.303 207.638 208.694C207.782 209.085 208.006 209.401 208.309 209.641C208.611 209.881 208.996 210.001 209.465 210.001ZM214.161 210.801V203.972H215.176V205.039H215.264C215.407 204.674 215.636 204.391 215.953 204.189C216.271 203.985 216.652 203.882 217.096 203.882C217.547 203.882 217.922 203.985 218.221 204.189C218.524 204.391 218.76 204.674 218.929 205.039H219C219.174 204.686 219.437 204.406 219.786 204.198C220.136 203.988 220.556 203.882 221.045 203.882C221.656 203.882 222.155 204.074 222.543 204.456C222.931 204.836 223.126 205.427 223.126 206.23V210.801H222.076V206.23C222.076 205.727 221.939 205.366 221.663 205.15C221.387 204.934 221.063 204.825 220.689 204.825C220.209 204.825 219.837 204.971 219.573 205.261C219.309 205.549 219.177 205.913 219.177 206.355V210.801H218.11V206.124C218.11 205.735 217.984 205.423 217.732 205.185C217.48 204.945 217.155 204.825 216.758 204.825C216.486 204.825 216.231 204.897 215.994 205.043C215.759 205.188 215.569 205.39 215.425 205.648C215.282 205.903 215.211 206.198 215.211 206.533V210.801H214.161ZM227.908 210.944C227.25 210.944 226.682 210.799 226.205 210.508C225.731 210.214 225.365 209.805 225.107 209.281C224.852 208.753 224.725 208.139 224.725 207.44C224.725 206.74 224.852 206.124 225.107 205.59C225.365 205.053 225.724 204.635 226.183 204.336C226.646 204.033 227.185 203.882 227.802 203.882C228.157 203.882 228.509 203.942 228.856 204.061C229.202 204.179 229.518 204.372 229.802 204.639C230.087 204.902 230.314 205.252 230.483 205.688C230.652 206.124 230.737 206.66 230.737 207.297V207.742H225.471V206.835H229.67C229.67 206.449 229.592 206.106 229.438 205.803C229.287 205.501 229.071 205.263 228.789 205.087C228.51 204.913 228.181 204.825 227.802 204.825C227.384 204.825 227.022 204.929 226.717 205.137C226.415 205.341 226.182 205.608 226.019 205.937C225.855 206.266 225.774 206.619 225.774 206.995V207.6C225.774 208.116 225.863 208.553 226.041 208.911C226.222 209.268 226.472 209.539 226.792 209.725C227.112 209.909 227.485 210.001 227.908 210.001C228.184 210.001 228.433 209.963 228.655 209.885C228.881 209.805 229.075 209.687 229.238 209.53C229.401 209.37 229.527 209.171 229.616 208.934L230.63 209.218C230.523 209.563 230.344 209.864 230.092 210.125C229.84 210.383 229.528 210.585 229.158 210.731C228.787 210.872 228.371 210.944 227.908 210.944Z" fill="#09090B"/>
<path d="M432.696 388.541H143.304C141.191 388.541 139.478 390.254 139.478 392.367V573.236C139.478 575.349 141.191 577.062 143.304 577.062H432.696C434.809 577.062 436.522 575.349 436.522 573.236V392.367C436.522 390.254 434.809 388.541 432.696 388.541Z" fill="white" stroke="#E4E4E7" stroke-width="0.695652"/>
<path d="M158.031 406.216V415.323H156.929V406.216H158.031ZM161.15 411.215V415.323H160.1V408.493H161.114V409.56H161.203C161.363 409.213 161.606 408.935 161.933 408.724C162.259 408.511 162.68 408.404 163.195 408.404C163.658 408.404 164.063 408.499 164.409 408.689C164.756 408.876 165.026 409.16 165.219 409.542C165.411 409.922 165.507 410.402 165.507 410.983V415.323H164.458V411.055C164.458 410.518 164.319 410.099 164.04 409.8C163.761 409.498 163.379 409.347 162.893 409.347C162.558 409.347 162.259 409.419 161.994 409.564C161.734 409.71 161.528 409.922 161.377 410.2C161.226 410.479 161.15 410.817 161.15 411.215ZM170.2 415.466C169.56 415.466 169.008 415.314 168.545 415.012C168.083 414.71 167.727 414.293 167.478 413.762C167.229 413.232 167.105 412.625 167.105 411.944C167.105 411.25 167.233 410.638 167.487 410.107C167.745 409.574 168.104 409.157 168.563 408.858C169.026 408.555 169.565 408.404 170.182 408.404C170.662 408.404 171.095 408.493 171.48 408.671C171.866 408.849 172.182 409.098 172.428 409.418C172.673 409.738 172.826 410.112 172.886 410.538H171.837C171.757 410.227 171.578 409.951 171.303 409.711C171.03 409.468 170.662 409.347 170.2 409.347C169.791 409.347 169.432 409.453 169.123 409.667C168.818 409.878 168.579 410.175 168.408 410.561C168.239 410.943 168.154 411.392 168.154 411.908C168.154 412.435 168.237 412.895 168.403 413.286C168.573 413.678 168.81 413.982 169.115 414.198C169.423 414.415 169.785 414.522 170.2 414.522C170.472 414.522 170.72 414.475 170.943 414.38C171.165 414.286 171.353 414.149 171.507 413.971C171.661 413.793 171.771 413.58 171.837 413.331H172.886C172.826 413.734 172.68 414.097 172.445 414.42C172.214 414.741 171.907 414.995 171.525 415.185C171.146 415.372 170.704 415.466 170.2 415.466ZM177.194 415.466C176.578 415.466 176.037 415.319 175.571 415.025C175.109 414.732 174.747 414.321 174.486 413.793C174.228 413.266 174.099 412.649 174.099 411.944C174.099 411.232 174.228 410.611 174.486 410.081C174.747 409.55 175.109 409.138 175.571 408.844C176.037 408.551 176.578 408.404 177.194 408.404C177.811 408.404 178.351 408.551 178.813 408.844C179.279 409.138 179.64 409.55 179.898 410.081C180.159 410.611 180.289 411.232 180.289 411.944C180.289 412.649 180.159 413.266 179.898 413.793C179.64 414.321 179.279 414.732 178.813 415.025C178.351 415.319 177.811 415.466 177.194 415.466ZM177.194 414.522C177.663 414.522 178.048 414.403 178.351 414.163C178.653 413.923 178.877 413.607 179.022 413.215C179.167 412.824 179.24 412.4 179.24 411.944C179.24 411.487 179.167 411.062 179.022 410.668C178.877 410.273 178.653 409.955 178.351 409.711C178.048 409.468 177.663 409.347 177.194 409.347C176.726 409.347 176.341 409.468 176.038 409.711C175.736 409.955 175.512 410.273 175.367 410.668C175.222 411.062 175.149 411.487 175.149 411.944C175.149 412.4 175.222 412.824 175.367 413.215C175.512 413.607 175.736 413.923 176.038 414.163C176.341 414.403 176.726 414.522 177.194 414.522ZM181.891 415.323V408.493H182.905V409.56H182.994C183.136 409.196 183.366 408.913 183.683 408.711C184.001 408.506 184.381 408.404 184.826 408.404C185.277 408.404 185.651 408.506 185.951 408.711C186.253 408.913 186.489 409.196 186.658 409.56H186.729C186.904 409.208 187.167 408.927 187.517 408.72C187.866 408.509 188.285 408.404 188.774 408.404C189.385 408.404 189.885 408.595 190.273 408.978C190.662 409.357 190.856 409.948 190.856 410.752V415.323H189.806V410.752C189.806 410.248 189.668 409.888 189.393 409.672C189.117 409.455 188.792 409.347 188.419 409.347C187.939 409.347 187.567 409.492 187.303 409.783C187.039 410.07 186.907 410.435 186.907 410.876V415.323H185.84V410.646C185.84 410.257 185.714 409.944 185.462 409.707C185.21 409.467 184.886 409.347 184.488 409.347C184.215 409.347 183.96 409.419 183.723 409.564C183.489 409.71 183.299 409.912 183.154 410.17C183.011 410.424 182.941 410.719 182.941 411.055V415.323H181.891ZM195.638 415.466C194.98 415.466 194.413 415.32 193.935 415.03C193.461 414.736 193.094 414.327 192.837 413.802C192.582 413.274 192.454 412.661 192.454 411.962C192.454 411.262 192.582 410.646 192.837 410.112C193.094 409.575 193.453 409.157 193.912 408.858C194.375 408.555 194.915 408.404 195.531 408.404C195.887 408.404 196.239 408.463 196.585 408.582C196.932 408.7 197.248 408.893 197.533 409.16C197.817 409.424 198.044 409.774 198.213 410.209C198.381 410.646 198.466 411.182 198.466 411.819V412.264H193.201V411.356H197.399C197.399 410.971 197.322 410.627 197.167 410.325C197.016 410.023 196.8 409.784 196.518 409.609C196.24 409.434 195.911 409.347 195.531 409.347C195.113 409.347 194.751 409.45 194.447 409.658C194.144 409.863 193.911 410.129 193.748 410.458C193.585 410.787 193.503 411.14 193.503 411.516V412.122C193.503 412.637 193.592 413.075 193.77 413.433C193.951 413.789 194.202 414.06 194.522 414.247C194.842 414.431 195.214 414.522 195.638 414.522C195.914 414.522 196.163 414.484 196.385 414.407C196.61 414.327 196.804 414.209 196.968 414.051C197.13 413.891 197.256 413.692 197.345 413.455L198.36 413.74C198.253 414.084 198.073 414.386 197.821 414.647C197.569 414.905 197.258 415.107 196.888 415.252C196.517 415.394 196.1 415.466 195.638 415.466ZM204.9 410.023L203.958 410.289C203.898 410.132 203.811 409.98 203.695 409.832C203.583 409.68 203.428 409.556 203.233 409.458C203.037 409.36 202.787 409.311 202.481 409.311C202.063 409.311 201.715 409.407 201.437 409.6C201.161 409.79 201.023 410.031 201.023 410.325C201.023 410.586 201.118 410.792 201.307 410.943C201.497 411.094 201.793 411.22 202.197 411.321L203.21 411.57C203.821 411.718 204.276 411.945 204.576 412.25C204.875 412.553 205.025 412.943 205.025 413.42C205.025 413.811 204.912 414.161 204.687 414.47C204.465 414.778 204.153 415.02 203.753 415.199C203.353 415.377 202.888 415.466 202.357 415.466C201.661 415.466 201.084 415.314 200.627 415.012C200.17 414.71 199.882 414.268 199.76 413.687L200.756 413.438C200.851 413.805 201.03 414.081 201.294 414.265C201.561 414.449 201.909 414.54 202.339 414.54C202.829 414.54 203.217 414.437 203.504 414.23C203.795 414.019 203.94 413.767 203.94 413.473C203.94 413.236 203.857 413.037 203.691 412.877C203.525 412.714 203.27 412.593 202.926 412.513L201.788 412.246C201.162 412.098 200.703 411.868 200.409 411.557C200.119 411.242 199.974 410.85 199.974 410.378C199.974 409.993 200.081 409.652 200.298 409.356C200.518 409.059 200.815 408.826 201.192 408.657C201.571 408.488 202.001 408.404 202.481 408.404C203.158 408.404 203.688 408.552 204.073 408.849C204.462 409.145 204.737 409.537 204.9 410.023Z" fill="#09090B"/>
<path d="M215.101 451.041C215.046 450.522 214.813 450.12 214.401 449.831C213.994 449.542 213.464 449.398 212.813 449.398C212.354 449.398 211.96 449.467 211.633 449.605C211.304 449.744 211.053 449.932 210.879 450.169C210.705 450.406 210.616 450.677 210.613 450.981C210.613 451.234 210.67 451.453 210.785 451.64C210.903 451.825 211.063 451.983 211.265 452.113C211.466 452.24 211.69 452.347 211.935 452.434C212.18 452.521 212.427 452.594 212.676 452.653L213.814 452.938C214.273 453.044 214.714 453.189 215.137 453.37C215.563 453.553 215.944 453.781 216.28 454.058C216.621 454.335 216.889 454.669 217.087 455.06C217.285 455.452 217.384 455.91 217.384 456.435C217.384 457.147 217.201 457.774 216.838 458.315C216.474 458.853 215.949 459.274 215.261 459.578C214.577 459.878 213.749 460.028 212.776 460.028C211.832 460.028 211.012 459.882 210.316 459.59C209.624 459.297 209.083 458.87 208.691 458.31C208.305 457.748 208.095 457.064 208.063 456.258H210.227C210.259 456.681 210.39 457.032 210.618 457.313C210.848 457.594 211.146 457.803 211.514 457.941C211.885 458.08 212.301 458.149 212.759 458.149C213.237 458.149 213.656 458.078 214.016 457.936C214.379 457.789 214.664 457.588 214.87 457.331C215.075 457.07 215.18 456.766 215.184 456.418C215.18 456.101 215.087 455.841 214.905 455.635C214.723 455.426 214.468 455.252 214.141 455.114C213.816 454.971 213.437 454.844 213.002 454.734L211.621 454.378C210.62 454.122 209.83 453.732 209.249 453.21C208.672 452.684 208.383 451.987 208.383 451.118C208.383 450.402 208.577 449.776 208.964 449.238C209.356 448.7 209.887 448.284 210.559 447.987C211.231 447.687 211.992 447.537 212.842 447.537C213.704 447.537 214.458 447.687 215.107 447.987C215.759 448.284 216.271 448.696 216.642 449.226C217.014 449.752 217.206 450.357 217.217 451.041H215.101ZM221.87 460.028C221.293 460.028 220.774 459.925 220.311 459.72C219.853 459.511 219.489 459.203 219.22 458.795C218.955 458.388 218.823 457.887 218.823 457.29C218.823 456.776 218.918 456.351 219.107 456.015C219.297 455.679 219.556 455.41 219.884 455.208C220.212 455.007 220.582 454.855 220.993 454.752C221.407 454.645 221.837 454.568 222.279 454.521C222.813 454.465 223.245 454.416 223.578 454.373C223.91 454.325 224.151 454.254 224.301 454.159C224.455 454.06 224.532 453.908 224.532 453.702V453.667C224.532 453.22 224.4 452.874 224.135 452.629C223.87 452.385 223.489 452.261 222.991 452.261C222.465 452.261 222.048 452.376 221.74 452.606C221.435 452.835 221.23 453.105 221.123 453.418L219.119 453.133C219.277 452.58 219.538 452.117 219.902 451.746C220.265 451.37 220.71 451.09 221.235 450.904C221.761 450.714 222.342 450.62 222.979 450.62C223.418 450.62 223.854 450.671 224.289 450.774C224.723 450.876 225.121 451.046 225.481 451.283C225.841 451.516 226.129 451.835 226.346 452.238C226.568 452.641 226.678 453.145 226.678 453.75V459.845H224.615V458.594H224.544C224.413 458.847 224.23 459.084 223.992 459.305C223.759 459.523 223.465 459.699 223.109 459.833C222.758 459.963 222.344 460.028 221.87 460.028ZM222.427 458.451C222.858 458.451 223.232 458.367 223.548 458.197C223.864 458.023 224.107 457.793 224.277 457.509C224.451 457.224 224.538 456.914 224.538 456.578V455.505C224.471 455.56 224.356 455.612 224.194 455.659C224.036 455.706 223.858 455.748 223.661 455.784C223.463 455.819 223.267 455.851 223.073 455.878C222.88 455.906 222.712 455.93 222.57 455.95C222.25 455.993 221.963 456.064 221.71 456.163C221.457 456.261 221.258 456.4 221.111 456.578C220.965 456.752 220.892 456.977 220.892 457.254C220.892 457.649 221.036 457.948 221.325 458.149C221.613 458.351 221.981 458.451 222.427 458.451ZM230.983 447.702V459.845H228.836V447.702H230.983ZM237.222 460.023C236.308 460.023 235.52 459.833 234.856 459.454C234.195 459.07 233.688 458.529 233.332 457.829C232.976 457.125 232.799 456.298 232.799 455.345C232.799 454.408 232.976 453.586 233.332 452.879C233.692 452.167 234.193 451.614 234.838 451.218C235.482 450.819 236.239 450.62 237.109 450.62C237.67 450.62 238.2 450.71 238.698 450.892C239.199 451.07 239.642 451.347 240.026 451.722C240.413 452.098 240.717 452.576 240.938 453.157C241.16 453.734 241.271 454.422 241.271 455.22V455.878H233.807V454.432H239.213C239.21 454.021 239.121 453.655 238.947 453.335C238.773 453.011 238.529 452.756 238.218 452.57C237.909 452.385 237.549 452.291 237.138 452.291C236.7 452.291 236.314 452.398 235.982 452.611C235.65 452.821 235.391 453.098 235.206 453.441C235.024 453.781 234.931 454.155 234.927 454.562V455.825C234.927 456.355 235.024 456.809 235.217 457.189C235.411 457.564 235.682 457.852 236.03 458.054C236.378 458.252 236.785 458.351 237.251 458.351C237.563 458.351 237.846 458.307 238.099 458.22C238.352 458.129 238.571 457.997 238.757 457.823C238.943 457.649 239.083 457.434 239.178 457.177L241.182 457.402C241.055 457.932 240.814 458.394 240.458 458.789C240.106 459.18 239.656 459.485 239.107 459.702C238.557 459.916 237.929 460.023 237.222 460.023ZM250.284 453.145L248.328 453.359C248.272 453.161 248.175 452.975 248.037 452.801C247.903 452.627 247.721 452.487 247.491 452.38C247.263 452.273 246.982 452.22 246.65 452.22C246.203 452.22 245.827 452.317 245.523 452.511C245.223 452.705 245.075 452.956 245.078 453.264C245.075 453.528 245.171 453.744 245.369 453.91C245.571 454.076 245.903 454.212 246.365 454.319L247.919 454.651C248.78 454.837 249.421 455.131 249.839 455.535C250.262 455.938 250.476 456.465 250.48 457.118C250.476 457.69 250.307 458.197 249.976 458.635C249.648 459.07 249.191 459.41 248.606 459.655C248.022 459.9 247.35 460.023 246.591 460.023C245.475 460.023 244.579 459.789 243.898 459.323C243.219 458.853 242.814 458.199 242.683 457.361L244.776 457.159C244.871 457.57 245.073 457.88 245.381 458.09C245.689 458.299 246.09 458.404 246.584 458.404C247.094 458.404 247.503 458.299 247.811 458.09C248.124 457.88 248.28 457.622 248.28 457.313C248.28 457.052 248.179 456.837 247.978 456.667C247.78 456.497 247.472 456.367 247.053 456.275L245.5 455.95C244.626 455.768 243.98 455.461 243.561 455.031C243.142 454.596 242.934 454.047 242.938 453.382C242.934 452.821 243.087 452.335 243.395 451.924C243.707 451.509 244.14 451.189 244.693 450.963C245.251 450.734 245.893 450.62 246.62 450.62C247.687 450.62 248.527 450.847 249.139 451.301C249.757 451.756 250.138 452.371 250.284 453.145Z" fill="black"/>
<path d="M317.72 459.845V447.702H322.273C323.206 447.702 323.988 447.864 324.621 448.188C325.257 448.513 325.737 448.968 326.061 449.553C326.39 450.133 326.553 450.811 326.553 451.586C326.553 452.364 326.387 453.041 326.056 453.614C325.727 454.183 325.243 454.623 324.602 454.936C323.962 455.244 323.176 455.398 322.243 455.398H319V453.572H321.946C322.492 453.572 322.938 453.497 323.286 453.347C323.634 453.192 323.891 452.969 324.057 452.677C324.227 452.38 324.312 452.017 324.312 451.586C324.312 451.155 324.227 450.787 324.057 450.483C323.887 450.175 323.629 449.941 323.281 449.784C322.933 449.621 322.484 449.541 321.935 449.541H319.919V459.845H317.72ZM323.992 454.343L326.998 459.845H324.543L321.591 454.343H323.992ZM333.398 447.702V459.845H331.199V449.843H331.128L328.287 451.657V449.641L331.305 447.702H333.398ZM340.839 460.011C339.985 460.011 339.226 459.864 338.562 459.572C337.902 459.279 337.38 458.872 336.997 458.351C336.614 457.829 336.41 457.226 336.386 456.543H338.616C338.635 456.87 338.744 457.157 338.942 457.402C339.139 457.643 339.402 457.831 339.73 457.965C340.058 458.099 340.426 458.167 340.833 458.167C341.267 458.167 341.653 458.092 341.989 457.941C342.325 457.788 342.588 457.574 342.778 457.301C342.968 457.029 343.06 456.714 343.056 456.359C343.06 455.991 342.966 455.667 342.771 455.386C342.578 455.105 342.298 454.886 341.93 454.728C341.566 454.57 341.128 454.491 340.614 454.491H339.54V452.795H340.614C341.037 452.795 341.406 452.722 341.722 452.576C342.042 452.43 342.294 452.224 342.475 451.96C342.657 451.69 342.746 451.38 342.742 451.029C342.746 450.684 342.669 450.386 342.511 450.133C342.357 449.876 342.137 449.677 341.853 449.535C341.572 449.392 341.242 449.321 340.863 449.321C340.491 449.321 340.147 449.388 339.831 449.523C339.515 449.657 339.26 449.849 339.066 450.098C338.872 450.343 338.77 450.635 338.758 450.975H336.641C336.657 450.296 336.853 449.699 337.229 449.185C337.608 448.667 338.113 448.264 338.746 447.976C339.379 447.683 340.088 447.537 340.874 447.537C341.685 447.537 342.388 447.689 342.985 447.993C343.586 448.293 344.05 448.698 344.378 449.208C344.707 449.718 344.87 450.282 344.87 450.898C344.874 451.582 344.673 452.155 344.266 452.618C343.863 453.08 343.333 453.382 342.677 453.525V453.619C343.53 453.738 344.185 454.054 344.639 454.568C345.098 455.078 345.325 455.713 345.321 456.472C345.321 457.151 345.128 457.76 344.74 458.298C344.357 458.831 343.827 459.25 343.151 459.554C342.479 459.859 341.709 460.011 340.839 460.011ZM347.357 459.845V458.256L351.571 454.124C351.975 453.716 352.311 453.354 352.579 453.039C352.848 452.722 353.05 452.416 353.184 452.12C353.319 451.823 353.386 451.507 353.386 451.171C353.386 450.787 353.299 450.46 353.125 450.186C352.951 449.91 352.712 449.697 352.408 449.546C352.103 449.396 351.757 449.321 351.37 449.321C350.971 449.321 350.621 449.404 350.321 449.57C350.02 449.732 349.787 449.963 349.621 450.264C349.459 450.564 349.378 450.922 349.378 451.337H347.285C347.285 450.566 347.461 449.896 347.813 449.327C348.165 448.757 348.649 448.317 349.265 448.005C349.886 447.692 350.598 447.537 351.4 447.537C352.214 447.537 352.929 447.689 353.546 447.993C354.163 448.298 354.641 448.714 354.981 449.244C355.325 449.774 355.496 450.378 355.496 451.058C355.496 451.513 355.409 451.96 355.235 452.398C355.062 452.837 354.755 453.323 354.317 453.857C353.882 454.39 353.271 455.036 352.485 455.795L350.392 457.924V458.007H355.68V459.845H347.357ZM360.269 458.185L360.192 458.837C360.137 459.335 360.038 459.841 359.896 460.355C359.757 460.872 359.611 461.349 359.457 461.784C359.303 462.218 359.178 462.56 359.084 462.809H357.637C357.693 462.568 357.767 462.24 357.862 461.825C357.961 461.41 358.056 460.944 358.147 460.426C358.238 459.908 358.299 459.382 358.33 458.849L358.372 458.185H360.269ZM366.724 460.011C365.934 460.011 365.226 459.863 364.602 459.566C363.977 459.266 363.481 458.855 363.114 458.333C362.75 457.811 362.557 457.215 362.533 456.543H364.667C364.707 457.041 364.922 457.448 365.313 457.764C365.704 458.076 366.175 458.232 366.724 458.232C367.155 458.232 367.539 458.133 367.875 457.936C368.211 457.738 368.475 457.464 368.669 457.112C368.863 456.76 368.957 456.359 368.954 455.908C368.957 455.45 368.861 455.043 368.663 454.687C368.465 454.331 368.195 454.052 367.851 453.851C367.507 453.645 367.112 453.542 366.665 453.542C366.301 453.539 365.944 453.605 365.592 453.744C365.24 453.882 364.961 454.064 364.756 454.289L362.77 453.963L363.404 447.702H370.447V449.541H365.224L364.874 452.76H364.945C365.171 452.495 365.489 452.275 365.901 452.101C366.311 451.924 366.762 451.835 367.252 451.835C367.987 451.835 368.643 452.009 369.22 452.357C369.798 452.7 370.252 453.175 370.584 453.779C370.916 454.385 371.082 455.076 371.082 455.855C371.082 456.657 370.896 457.372 370.525 458.001C370.157 458.625 369.645 459.118 368.989 459.477C368.337 459.833 367.582 460.011 366.724 460.011ZM377.29 460.011C376.499 460.011 375.791 459.863 375.167 459.566C374.543 459.266 374.047 458.855 373.679 458.333C373.315 457.811 373.121 457.215 373.098 456.543H375.232C375.272 457.041 375.487 457.448 375.878 457.764C376.27 458.076 376.74 458.232 377.29 458.232C377.72 458.232 378.104 458.133 378.44 457.936C378.776 457.738 379.041 457.464 379.234 457.112C379.428 456.76 379.523 456.359 379.519 455.908C379.523 455.45 379.426 455.043 379.229 454.687C379.031 454.331 378.76 454.052 378.416 453.851C378.072 453.645 377.677 453.542 377.23 453.542C376.867 453.539 376.509 453.605 376.157 453.744C375.805 453.882 375.527 454.064 375.321 454.289L373.335 453.963L373.969 447.702H381.013V449.541H375.789L375.44 452.76H375.511C375.736 452.495 376.054 452.275 376.465 452.101C376.877 451.924 377.327 451.835 377.817 451.835C378.552 451.835 379.208 452.009 379.786 452.357C380.362 452.7 380.817 453.175 381.149 453.779C381.481 454.385 381.647 455.076 381.647 455.855C381.647 456.657 381.462 457.372 381.09 458.001C380.722 458.625 380.211 459.118 379.554 459.477C378.902 459.833 378.147 460.011 377.29 460.011ZM388.122 460.076C387.145 460.076 386.307 459.829 385.608 459.335C384.912 458.837 384.376 458.12 384.001 457.183C383.629 456.242 383.443 455.109 383.443 453.786C383.448 452.461 383.635 451.335 384.007 450.406C384.383 449.473 384.918 448.762 385.614 448.272C386.313 447.781 387.149 447.537 388.122 447.537C389.094 447.537 389.93 447.781 390.63 448.272C391.329 448.762 391.864 449.473 392.236 450.406C392.611 451.339 392.799 452.465 392.799 453.786C392.799 455.114 392.611 456.248 392.236 457.189C391.864 458.125 391.329 458.841 390.63 459.335C389.934 459.829 389.098 460.076 388.122 460.076ZM388.122 458.22C388.881 458.22 389.479 457.847 389.918 457.1C390.36 456.348 390.582 455.244 390.582 453.786C390.582 452.821 390.481 452.011 390.28 451.354C390.078 450.698 389.793 450.204 389.426 449.873C389.058 449.537 388.623 449.368 388.122 449.368C387.366 449.368 386.77 449.744 386.331 450.495C385.892 451.242 385.671 452.339 385.667 453.786C385.663 454.754 385.76 455.568 385.958 456.228C386.159 456.888 386.444 457.386 386.811 457.722C387.179 458.054 387.615 458.22 388.122 458.22ZM395.642 459.976C395.283 459.976 394.975 459.849 394.717 459.596C394.461 459.343 394.334 459.034 394.338 458.671C394.334 458.315 394.461 458.011 394.717 457.758C394.975 457.505 395.283 457.379 395.642 457.379C395.99 457.379 396.292 457.505 396.55 457.758C396.81 458.011 396.943 458.315 396.947 458.671C396.943 458.912 396.879 459.131 396.757 459.329C396.639 459.527 396.48 459.685 396.282 459.803C396.089 459.918 395.875 459.976 395.642 459.976ZM403.154 460.076C402.178 460.076 401.34 459.829 400.64 459.335C399.944 458.837 399.409 458.12 399.034 457.183C398.662 456.242 398.477 455.109 398.477 453.786C398.48 452.461 398.668 451.335 399.039 450.406C399.415 449.473 399.951 448.762 400.646 448.272C401.346 447.781 402.182 447.537 403.154 447.537C404.127 447.537 404.963 447.781 405.662 448.272C406.362 448.762 406.897 449.473 407.269 450.406C407.644 451.339 407.832 452.465 407.832 453.786C407.832 455.114 407.644 456.248 407.269 457.189C406.897 458.125 406.362 458.841 405.662 459.335C404.966 459.829 404.131 460.076 403.154 460.076ZM403.154 458.22C403.913 458.22 404.512 457.847 404.95 457.1C405.393 456.348 405.615 455.244 405.615 453.786C405.615 452.821 405.514 452.011 405.312 451.354C405.111 450.698 404.826 450.204 404.458 449.873C404.091 449.537 403.656 449.368 403.154 449.368C402.399 449.368 401.802 449.744 401.363 450.495C400.925 451.242 400.703 452.339 400.7 453.786C400.696 454.754 400.792 455.568 400.99 456.228C401.192 456.888 401.476 457.386 401.844 457.722C402.211 458.054 402.648 458.22 403.154 458.22ZM414.29 460.076C413.313 460.076 412.476 459.829 411.776 459.335C411.08 458.837 410.545 458.12 410.17 457.183C409.798 456.242 409.612 455.109 409.612 453.786C409.616 452.461 409.804 451.335 410.175 450.406C410.551 449.473 411.087 448.762 411.782 448.272C412.481 447.781 413.318 447.537 414.29 447.537C415.263 447.537 416.098 447.781 416.798 448.272C417.498 448.762 418.033 449.473 418.405 450.406C418.78 451.339 418.968 452.465 418.968 453.786C418.968 455.114 418.78 456.248 418.405 457.189C418.033 458.125 417.498 458.841 416.798 459.335C416.102 459.829 415.266 460.076 414.29 460.076ZM414.29 458.22C415.049 458.22 415.648 457.847 416.086 457.1C416.529 456.348 416.751 455.244 416.751 453.786C416.751 452.821 416.65 452.011 416.448 451.354C416.246 450.698 415.962 450.204 415.594 449.873C415.226 449.537 414.792 449.368 414.29 449.368C413.535 449.368 412.938 449.744 412.499 450.495C412.061 451.242 411.839 452.339 411.835 453.786C411.832 454.754 411.928 455.568 412.126 456.228C412.328 456.888 412.612 457.386 412.979 457.722C413.347 458.054 413.784 458.22 414.29 458.22Z" fill="black"/>
<path d="M173.913 471.671C183.518 471.671 191.304 463.885 191.304 454.28C191.304 444.675 183.518 436.888 173.913 436.888C164.308 436.888 156.522 444.675 156.522 454.28C156.522 463.885 164.308 471.671 173.913 471.671Z" fill="#BBF7D0"/>
<path d="M179.304 447.903H169.217C168.326 447.903 167.471 448.257 166.84 448.888C166.209 449.518 165.855 450.374 165.855 451.265V457.99C165.855 458.881 166.209 459.737 166.84 460.367C167.471 460.998 168.326 461.352 169.217 461.352H179.304C179.746 461.352 180.183 461.265 180.591 461.096C180.999 460.927 181.37 460.68 181.682 460.367C181.994 460.055 182.242 459.684 182.411 459.276C182.579 458.868 182.666 458.431 182.666 457.99V451.265C182.666 450.824 182.579 450.386 182.411 449.978C182.242 449.571 181.994 449.2 181.682 448.888C181.37 448.575 180.999 448.328 180.591 448.159C180.183 447.99 179.746 447.903 179.304 447.903ZM180.986 457.99C180.986 458.435 180.808 458.863 180.493 459.178C180.178 459.494 179.75 459.671 179.304 459.671H169.217C168.771 459.671 168.344 459.494 168.029 459.178C167.713 458.863 167.536 458.435 167.536 457.99V453.787H180.986V457.99ZM180.986 452.106H167.536V451.265C167.536 450.819 167.713 450.392 168.029 450.077C168.344 449.761 168.771 449.584 169.217 449.584H179.304C179.75 449.584 180.178 449.761 180.493 450.077C180.808 450.392 180.986 450.819 180.986 451.265V452.106Z" fill="#166534"/>
<path d="M176.783 457.99H173.841C173.617 457.99 173.404 457.901 173.246 457.743C173.089 457.586 173 457.372 173 457.149C173 456.926 173.089 456.712 173.246 456.554C173.404 456.397 173.617 456.309 173.841 456.309H176.783C177.005 456.309 177.219 456.397 177.377 456.554C177.535 456.712 177.623 456.926 177.623 457.149C177.623 457.372 177.535 457.586 177.377 457.743C177.219 457.901 177.005 457.99 176.783 457.99Z" fill="#166534"/>
<path d="M170.899 457.99H170.058C169.835 457.99 169.622 457.901 169.464 457.743C169.306 457.586 169.217 457.372 169.217 457.149C169.217 456.926 169.306 456.712 169.464 456.554C169.622 456.397 169.835 456.309 170.058 456.309H170.899C171.121 456.309 171.335 456.397 171.493 456.554C171.651 456.712 171.739 456.926 171.739 457.149C171.739 457.372 171.651 457.586 171.493 457.743C171.335 457.901 171.121 457.99 170.899 457.99Z" fill="#166534"/>
</g>
</g>
</g>
</g>
<defs>
<filter id="filter0_d_124_170" x="43.8261" y="65.4102" width="487.652" height="498.087" filterUnits="userSpaceOnUse" color-interpolation-filters="sRGB">
<feFlood flood-opacity="0" result="BackgroundImageFix"/>
<feColorMatrix in="SourceAlpha" type="matrix" values="0 0 0 0 0 0 0 0 0 0 0 0 0 0 0 0 0 0 127 0" result="hardAlpha"/>
<feOffset dy="17.3913"/>
<feGaussianBlur stdDeviation="17.3913"/>
<feComposite in2="hardAlpha" operator="out"/>
<feColorMatrix type="matrix" values="0 0 0 0 0 0 0 0 0 0 0 0 0 0 0 0 0 0 0.2 0"/>
<feBlend mode="normal" in2="BackgroundImageFix" result="effect1_dropShadow_124_170"/>
<feBlend mode="normal" in="SourceGraphic" in2="effect1_dropShadow_124_170" result="shape"/>
</filter>
<clipPath id="clip0_124_170">
<rect y="0.0200195" width="576" height="482.78" rx="18" fill="white"/>
</clipPath>
<clipPath id="clip1_124_170">
<rect width="576" height="482.78" fill="white" transform="translate(0 0.0200195)"/>
</clipPath>
<clipPath id="clip2_124_170">
<rect width="576" height="482.783" fill="white" transform="translate(0 0.0187988)"/>
</clipPath>
</defs>
</svg>
