<svg width="576" height="483" viewBox="0 0 576 483" fill="none" xmlns="http://www.w3.org/2000/svg">
<g clip-path="url(#clip0_124_139)">
<g clip-path="url(#clip1_124_139)">
<g clip-path="url(#clip2_124_139)">
<mask id="mask0_124_139" style="mask-type:luminance" maskUnits="userSpaceOnUse" x="0" y="0" width="576" height="484">
<path d="M576 0.22876H0V483.011H576V0.22876Z" fill="white"/>
</mask>
<g mask="url(#mask0_124_139)">
<path d="M576 0.22876H0V483.011H576V0.22876Z" fill="#FEFCE8"/>
<g filter="url(#filter0_d_124_139)">
<path d="M591.304 83.0115H106.435C91.0669 83.0115 78.6087 95.4696 78.6087 110.838V371.707C78.6087 387.075 91.0669 399.533 106.435 399.533H591.304C606.672 399.533 619.13 387.075 619.13 371.707V110.838C619.13 95.4696 606.672 83.0115 591.304 83.0115Z" fill="white"/>
</g>
<path d="M119.652 241.968H588.522C590.635 241.968 592.348 243.68 592.348 245.794V289.968H115.826V245.794C115.826 243.68 117.539 241.968 119.652 241.968Z" fill="white" stroke="#E5E7EB" stroke-width="0.695652"/>
<path d="M115.826 289.968H592.348V334.142C592.348 336.255 590.635 337.968 588.522 337.968H119.652C117.539 337.968 115.826 336.255 115.826 334.142V289.968Z" fill="white" stroke="#E5E7EB" stroke-width="0.695652"/>
<path d="M175.295 263.578C175.247 263.1 175.043 262.729 174.684 262.464C174.324 262.199 173.836 262.067 173.219 262.067C172.801 262.067 172.447 262.126 172.158 262.245C171.87 262.359 171.648 262.52 171.494 262.725C171.344 262.931 171.269 263.164 171.269 263.425C171.261 263.642 171.306 263.832 171.405 263.994C171.508 264.156 171.648 264.296 171.826 264.415C172.004 264.529 172.209 264.63 172.442 264.717C172.676 264.8 172.925 264.871 173.19 264.931L174.28 265.192C174.81 265.31 175.297 265.468 175.739 265.665C176.182 265.863 176.566 266.106 176.889 266.395C177.213 266.683 177.464 267.023 177.642 267.415C177.824 267.806 177.917 268.255 177.921 268.76C177.917 269.503 177.727 270.148 177.352 270.694C176.98 271.235 176.442 271.656 175.739 271.956C175.039 272.252 174.195 272.401 173.208 272.401C172.227 272.401 171.373 272.25 170.646 271.95C169.923 271.65 169.358 271.205 168.95 270.616C168.547 270.024 168.336 269.29 168.317 268.417H170.801C170.828 268.824 170.945 269.164 171.15 269.436C171.36 269.705 171.638 269.909 171.986 270.047C172.338 270.182 172.735 270.248 173.178 270.248C173.613 270.248 173.99 270.185 174.31 270.059C174.634 269.932 174.886 269.756 175.063 269.531C175.241 269.306 175.33 269.047 175.33 268.755C175.33 268.482 175.249 268.252 175.087 268.067C174.929 267.881 174.696 267.723 174.387 267.592C174.083 267.462 173.709 267.343 173.267 267.237L171.944 266.905C170.921 266.656 170.113 266.266 169.52 265.737C168.927 265.207 168.632 264.494 168.637 263.596C168.632 262.861 168.828 262.219 169.224 261.67C169.622 261.12 170.17 260.691 170.865 260.383C171.561 260.074 172.352 259.921 173.237 259.921C174.138 259.921 174.925 260.074 175.597 260.383C176.273 260.691 176.799 261.12 177.174 261.67C177.549 262.219 177.743 262.856 177.755 263.578H175.295ZM181.464 272.229H178.712L182.904 260.086H186.212L190.398 272.229H187.647L184.606 262.861H184.511L181.464 272.229ZM181.292 267.456H187.789V269.46H181.292V267.456ZM191.859 272.229V260.086H196.65C197.567 260.086 198.35 260.25 198.998 260.579C199.65 260.903 200.146 261.363 200.486 261.96C200.83 262.553 201.002 263.251 201.002 264.053C201.002 264.859 200.828 265.553 200.48 266.134C200.132 266.711 199.629 267.154 198.968 267.462C198.312 267.77 197.518 267.924 196.585 267.924H193.377V265.862H196.17C196.66 265.862 197.067 265.794 197.391 265.66C197.715 265.526 197.957 265.324 198.115 265.055C198.277 264.786 198.358 264.452 198.358 264.053C198.358 263.65 198.277 263.31 198.115 263.033C197.957 262.757 197.713 262.547 197.385 262.405C197.062 262.259 196.653 262.185 196.158 262.185H194.427V272.229H191.859ZM198.417 266.703L201.434 272.229H198.601L195.648 266.703H198.417ZM209.403 263.578C209.356 263.1 209.152 262.729 208.792 262.464C208.433 262.199 207.944 262.067 207.328 262.067C206.909 262.067 206.555 262.126 206.267 262.245C205.978 262.359 205.757 262.52 205.603 262.725C205.453 262.931 205.377 263.164 205.377 263.425C205.37 263.642 205.415 263.832 205.514 263.994C205.617 264.156 205.757 264.296 205.935 264.415C206.113 264.529 206.318 264.63 206.552 264.717C206.785 264.8 207.034 264.871 207.298 264.931L208.39 265.192C208.919 265.31 209.405 265.468 209.848 265.665C210.291 265.863 210.674 266.106 210.998 266.395C211.322 266.683 211.573 267.023 211.751 267.415C211.933 267.806 212.026 268.255 212.03 268.76C212.026 269.503 211.836 270.148 211.46 270.694C211.089 271.235 210.552 271.656 209.848 271.956C209.149 272.252 208.305 272.401 207.316 272.401C206.336 272.401 205.482 272.25 204.755 271.95C204.031 271.65 203.466 271.205 203.059 270.616C202.656 270.024 202.445 269.29 202.425 268.417H204.909C204.937 268.824 205.053 269.164 205.259 269.436C205.469 269.705 205.747 269.909 206.095 270.047C206.447 270.182 206.844 270.248 207.286 270.248C207.721 270.248 208.099 270.185 208.419 270.059C208.743 269.932 208.994 269.756 209.172 269.531C209.35 269.306 209.439 269.047 209.439 268.755C209.439 268.482 209.358 268.252 209.196 268.067C209.037 267.881 208.804 267.723 208.496 267.592C208.192 267.462 207.818 267.343 207.375 267.237L206.054 266.905C205.03 266.656 204.221 266.266 203.629 265.737C203.036 265.207 202.741 264.494 202.745 263.596C202.741 262.861 202.937 262.219 203.332 261.67C203.731 261.12 204.279 260.691 204.975 260.383C205.67 260.074 206.461 259.921 207.346 259.921C208.247 259.921 209.034 260.074 209.706 260.383C210.381 260.691 210.907 261.12 211.283 261.67C211.658 262.219 211.852 262.856 211.864 263.578H209.403Z" fill="#1F2937"/>
<path d="M156.522 133.794C179.189 133.794 197.565 115.418 197.565 92.7505C197.565 70.0828 179.189 51.707 156.522 51.707C133.854 51.707 115.478 70.0828 115.478 92.7505C115.478 115.418 133.854 133.794 156.522 133.794Z" fill="#FEF08A"/>
<path d="M166.087 76.2267V74.1418C166.087 73.6347 165.885 73.1477 165.527 72.7888C165.168 72.4305 164.681 72.2288 164.174 72.2288C163.667 72.2288 163.18 72.4305 162.821 72.7888C162.463 73.1477 162.261 73.6347 162.261 74.1418V76.0548H150.783V74.1418C150.783 73.6347 150.581 73.1477 150.223 72.7888C149.864 72.4305 149.377 72.2288 148.87 72.2288C148.362 72.2288 147.875 72.4305 147.517 72.7888C147.158 73.1477 146.957 73.6347 146.957 74.1418V76.2267C144.284 76.6788 141.857 78.0618 140.106 80.1314C138.356 82.2002 137.394 84.8228 137.391 87.5331V99.0114C137.391 102.056 138.6 104.975 140.753 107.128C142.906 109.281 145.825 110.49 148.87 110.49H164.174C167.218 110.49 170.138 109.281 172.29 107.128C174.443 104.975 175.652 102.056 175.652 99.0114V87.5331C175.649 84.8228 174.687 82.2002 172.937 80.1314C171.186 78.0618 168.76 76.6788 166.087 76.2267ZM171.826 99.0114C171.826 101.041 171.02 102.987 169.585 104.422C168.15 105.857 166.203 106.664 164.174 106.664H148.87C146.84 106.664 144.894 105.857 143.459 104.422C142.024 102.987 141.217 101.041 141.217 99.0114V87.5331C141.219 85.8378 141.783 84.1905 142.822 82.8507C143.86 81.5108 145.315 80.5536 146.957 80.13V81.794C146.957 82.3011 147.158 82.7881 147.517 83.147C147.875 83.5053 148.362 83.707 148.87 83.707C149.377 83.707 149.864 83.5053 150.223 83.147C150.581 82.7881 150.783 82.3011 150.783 81.794V79.8809H162.261V81.794C162.261 82.3011 162.463 82.7881 162.821 83.147C163.18 83.5053 163.667 83.707 164.174 83.707C164.681 83.707 165.168 83.5053 165.527 83.147C165.885 82.7881 166.087 82.3011 166.087 81.794V80.13C167.729 80.5536 169.183 81.5108 170.222 82.8507C171.261 84.1905 171.825 85.8378 171.826 87.5331V99.0114Z" fill="#854D0E"/>
<path fill-rule="evenodd" clip-rule="evenodd" d="M146.957 91.3591C146.957 90.3024 147.813 89.446 148.87 89.446H164.174C165.231 89.446 166.087 90.3024 166.087 91.3591C166.087 92.4158 165.231 93.2721 164.174 93.2721H148.87C147.813 93.2721 146.957 92.4158 146.957 91.3591Z" fill="#854D0E"/>
<path fill-rule="evenodd" clip-rule="evenodd" d="M146.957 99.0114C146.957 97.9547 147.813 97.0984 148.87 97.0984H158.435C159.491 97.0984 160.348 97.9547 160.348 99.0114C160.348 100.068 159.491 100.924 158.435 100.924H148.87C147.813 100.924 146.957 100.068 146.957 99.0114Z" fill="#854D0E"/>
<path d="M605.913 160.229H119.652C117.347 160.229 115.478 162.097 115.478 164.403V204.75C115.478 207.056 117.347 208.924 119.652 208.924H605.913C608.218 208.924 610.087 207.056 610.087 204.75V164.403C610.087 162.097 608.218 160.229 605.913 160.229Z" fill="#FEFCE8"/>
<path d="M274.087 297.272H167.652C165.347 297.272 163.478 299.141 163.478 301.446V326.49C163.478 328.795 165.347 330.664 167.652 330.664H274.087C276.392 330.664 278.261 328.795 278.261 326.49V301.446C278.261 299.141 276.392 297.272 274.087 297.272Z" fill="#FEFCE8"/>
<path d="M168.049 178.695H170.13L173.302 184.215H173.433L176.605 178.695H178.686L174.28 186.071V190.837H172.454V186.071L168.049 178.695ZM182.609 191.021C181.755 191.021 181.01 190.826 180.374 190.434C179.738 190.043 179.244 189.495 178.892 188.792C178.54 188.088 178.364 187.266 178.364 186.325C178.364 185.381 178.54 184.555 178.892 183.847C179.244 183.14 179.738 182.59 180.374 182.199C181.01 181.808 181.755 181.612 182.609 181.612C183.463 181.612 184.208 181.808 184.845 182.199C185.481 182.59 185.975 183.14 186.326 183.847C186.678 184.555 186.854 185.381 186.854 186.325C186.854 187.266 186.678 188.088 186.326 188.792C185.975 189.495 185.481 190.043 184.845 190.434C184.208 190.826 183.463 191.021 182.609 191.021ZM182.615 189.533C183.169 189.533 183.627 189.387 183.991 189.094C184.354 188.802 184.623 188.412 184.797 187.926C184.975 187.44 185.064 186.905 185.064 186.32C185.064 185.738 184.975 185.205 184.797 184.719C184.623 184.229 184.354 183.836 183.991 183.539C183.627 183.242 183.169 183.094 182.615 183.094C182.058 183.094 181.595 183.242 181.228 183.539C180.864 183.836 180.593 184.229 180.415 184.719C180.241 185.205 180.154 185.738 180.154 186.32C180.154 186.905 180.241 187.44 180.415 187.926C180.593 188.412 180.864 188.802 181.228 189.094C181.595 189.387 182.058 189.533 182.615 189.533ZM194.602 187.061V181.731H196.381V190.837H194.637V189.26H194.543C194.333 189.747 193.997 190.151 193.535 190.476C193.076 190.796 192.505 190.956 191.821 190.956C191.236 190.956 190.719 190.828 190.268 190.57C189.821 190.309 189.469 189.925 189.213 189.415C188.959 188.905 188.833 188.274 188.833 187.523V181.731H190.606V187.31C190.606 187.93 190.778 188.424 191.121 188.792C191.466 189.159 191.912 189.343 192.461 189.343C192.794 189.343 193.123 189.26 193.452 189.094C193.784 188.929 194.058 188.677 194.275 188.341C194.497 188.005 194.606 187.578 194.602 187.061ZM198.762 190.837V181.731H200.476V183.178H200.57C200.737 182.687 201.029 182.302 201.448 182.021C201.871 181.737 202.349 181.594 202.883 181.594C202.993 181.594 203.124 181.598 203.274 181.606C203.428 181.614 203.549 181.624 203.636 181.636V183.331C203.565 183.312 203.438 183.29 203.256 183.266C203.075 183.239 202.893 183.225 202.711 183.225C202.292 183.225 201.919 183.314 201.59 183.491C201.266 183.665 201.009 183.909 200.819 184.221C200.63 184.529 200.535 184.881 200.535 185.276V190.837H198.762ZM213.425 191.021C212.543 191.021 211.784 190.821 211.148 190.422C210.515 190.019 210.029 189.464 209.689 188.757C209.35 188.049 209.179 187.239 209.179 186.325C209.179 185.401 209.353 184.584 209.701 183.877C210.049 183.166 210.539 182.61 211.171 182.211C211.804 181.812 212.549 181.612 213.407 181.612C214.098 181.612 214.715 181.74 215.256 181.998C215.798 182.25 216.234 182.606 216.567 183.065C216.903 183.523 217.103 184.059 217.165 184.671H215.44C215.345 184.245 215.128 183.877 214.788 183.569C214.452 183.26 214.001 183.106 213.437 183.106C212.942 183.106 212.509 183.237 212.138 183.498C211.77 183.754 211.484 184.122 211.278 184.6C211.073 185.075 210.97 185.636 210.97 186.284C210.97 186.948 211.071 187.521 211.272 188.003C211.474 188.485 211.759 188.859 212.126 189.124C212.497 189.389 212.934 189.521 213.437 189.521C213.773 189.521 214.077 189.46 214.349 189.338C214.626 189.211 214.857 189.031 215.043 188.798C215.233 188.565 215.365 188.284 215.44 187.956H217.165C217.103 188.545 216.911 189.07 216.591 189.533C216.27 189.996 215.841 190.359 215.304 190.624C214.77 190.889 214.144 191.021 213.425 191.021ZM222.897 191.021C222.044 191.021 221.298 190.826 220.662 190.434C220.026 190.043 219.532 189.495 219.18 188.792C218.828 188.088 218.652 187.266 218.652 186.325C218.652 185.381 218.828 184.555 219.18 183.847C219.532 183.14 220.026 182.59 220.662 182.199C221.298 181.808 222.044 181.612 222.897 181.612C223.751 181.612 224.496 181.808 225.133 182.199C225.769 182.59 226.263 183.14 226.615 183.847C226.966 184.555 227.142 185.381 227.142 186.325C227.142 187.266 226.966 188.088 226.615 188.792C226.263 189.495 225.769 190.043 225.133 190.434C224.496 190.826 223.751 191.021 222.897 191.021ZM222.903 189.533C223.457 189.533 223.915 189.387 224.279 189.094C224.642 188.802 224.911 188.412 225.085 187.926C225.263 187.44 225.352 186.905 225.352 186.32C225.352 185.738 225.263 185.205 225.085 184.719C224.911 184.229 224.642 183.836 224.279 183.539C223.915 183.242 223.457 183.094 222.903 183.094C222.346 183.094 221.883 183.242 221.516 183.539C221.152 183.836 220.881 184.229 220.703 184.719C220.529 185.205 220.442 185.738 220.442 186.32C220.442 186.905 220.529 187.44 220.703 187.926C220.881 188.412 221.152 188.802 221.516 189.094C221.883 189.387 222.346 189.533 222.903 189.533ZM229.121 190.837V181.731H230.823V183.213H230.935C231.125 182.711 231.435 182.32 231.866 182.039C232.297 181.754 232.813 181.612 233.414 181.612C234.022 181.612 234.532 181.754 234.943 182.039C235.358 182.323 235.665 182.715 235.862 183.213H235.957C236.175 182.727 236.52 182.339 236.995 182.051C237.469 181.758 238.034 181.612 238.69 181.612C239.517 181.612 240.19 181.871 240.712 182.389C241.238 182.906 241.501 183.687 241.501 184.731V190.837H239.728V184.897C239.728 184.28 239.56 183.834 239.224 183.557C238.888 183.28 238.487 183.142 238.02 183.142C237.443 183.142 236.995 183.319 236.674 183.676C236.354 184.027 236.194 184.48 236.194 185.033V190.837H234.427V184.784C234.427 184.29 234.273 183.893 233.965 183.592C233.656 183.292 233.256 183.142 232.761 183.142C232.426 183.142 232.115 183.23 231.83 183.409C231.55 183.582 231.322 183.825 231.149 184.138C230.979 184.45 230.894 184.812 230.894 185.223V190.837H229.121ZM243.876 194.252V181.731H245.608V183.207H245.756C245.859 183.018 246.007 182.798 246.2 182.549C246.394 182.3 246.663 182.083 247.007 181.897C247.351 181.707 247.805 181.612 248.371 181.612C249.105 181.612 249.762 181.798 250.339 182.17C250.916 182.541 251.368 183.077 251.697 183.776C252.029 184.476 252.195 185.317 252.195 186.302C252.195 187.286 252.031 188.13 251.702 188.833C251.375 189.533 250.924 190.073 250.351 190.452C249.777 190.828 249.123 191.015 248.388 191.015C247.835 191.015 247.382 190.922 247.031 190.737C246.683 190.551 246.41 190.334 246.212 190.085C246.015 189.836 245.863 189.614 245.756 189.42H245.649V194.252H243.876ZM245.614 186.284C245.614 186.924 245.706 187.486 245.892 187.968C246.078 188.45 246.347 188.828 246.698 189.1C247.05 189.369 247.481 189.503 247.991 189.503C248.521 189.503 248.963 189.363 249.319 189.082C249.675 188.798 249.944 188.412 250.125 187.926C250.311 187.44 250.404 186.893 250.404 186.284C250.404 185.683 250.313 185.143 250.131 184.666C249.953 184.187 249.685 183.81 249.325 183.533C248.969 183.256 248.525 183.118 247.991 183.118C247.478 183.118 247.043 183.251 246.687 183.515C246.335 183.78 246.068 184.149 245.887 184.624C245.704 185.098 245.614 185.651 245.614 186.284ZM256.831 191.039C256.254 191.039 255.732 190.932 255.266 190.719C254.799 190.501 254.43 190.187 254.157 189.776C253.888 189.365 253.754 188.861 253.754 188.264C253.754 187.75 253.853 187.328 254.05 186.995C254.248 186.663 254.515 186.401 254.851 186.207C255.187 186.013 255.562 185.867 255.977 185.768C256.392 185.669 256.815 185.594 257.246 185.543C257.791 185.479 258.234 185.428 258.574 185.389C258.914 185.345 259.161 185.276 259.315 185.181C259.469 185.086 259.546 184.932 259.546 184.719V184.677C259.546 184.16 259.4 183.758 259.107 183.474C258.819 183.189 258.388 183.047 257.815 183.047C257.218 183.047 256.748 183.179 256.404 183.444C256.064 183.705 255.829 183.996 255.699 184.316L254.033 183.937C254.23 183.383 254.519 182.936 254.898 182.596C255.281 182.252 255.722 182.003 256.221 181.85C256.719 181.691 257.242 181.612 257.791 181.612C258.155 181.612 258.541 181.655 258.947 181.742C259.359 181.825 259.742 181.98 260.098 182.205C260.458 182.43 260.752 182.753 260.982 183.171C261.21 183.587 261.325 184.126 261.325 184.79V190.837H259.594V189.592H259.523C259.408 189.822 259.236 190.047 259.007 190.268C258.778 190.49 258.483 190.673 258.124 190.819C257.764 190.966 257.333 191.039 256.831 191.039ZM257.217 189.616C257.706 189.616 258.125 189.519 258.473 189.326C258.825 189.132 259.092 188.879 259.274 188.567C259.459 188.25 259.553 187.912 259.553 187.553V186.379C259.489 186.442 259.366 186.501 259.185 186.557C259.007 186.608 258.803 186.654 258.574 186.693C258.345 186.729 258.122 186.762 257.904 186.794C257.687 186.821 257.505 186.845 257.359 186.865C257.015 186.908 256.701 186.981 256.416 187.084C256.136 187.187 255.91 187.335 255.74 187.529C255.574 187.719 255.491 187.972 255.491 188.288C255.491 188.727 255.653 189.059 255.977 189.284C256.301 189.505 256.714 189.616 257.217 189.616ZM265.459 185.43V190.837H263.686V181.731H265.388V183.213H265.501C265.71 182.731 266.038 182.343 266.485 182.051C266.935 181.758 267.503 181.612 268.186 181.612C268.807 181.612 269.35 181.742 269.817 182.003C270.283 182.26 270.645 182.644 270.902 183.154C271.158 183.663 271.287 184.294 271.287 185.045V190.837H269.514V185.258C269.514 184.598 269.343 184.083 268.998 183.711C268.655 183.335 268.182 183.148 267.581 183.148C267.171 183.148 266.805 183.237 266.485 183.415C266.168 183.592 265.917 183.853 265.731 184.197C265.55 184.537 265.459 184.948 265.459 185.43ZM274.459 194.252C274.194 194.252 273.953 194.231 273.736 194.187C273.519 194.148 273.357 194.104 273.249 194.057L273.677 192.604C274.001 192.691 274.289 192.729 274.542 192.717C274.795 192.705 275.018 192.61 275.212 192.433C275.409 192.254 275.583 191.964 275.734 191.561L275.953 190.956L272.621 181.731H274.518L276.824 188.798H276.92L279.226 181.731H281.129L277.376 192.053C277.202 192.527 276.981 192.929 276.712 193.256C276.443 193.589 276.123 193.838 275.752 194.003C275.38 194.17 274.949 194.252 274.459 194.252ZM288.986 185.43V190.837H287.213V178.695H288.963V183.213H289.075C289.288 182.723 289.615 182.334 290.054 182.045C290.492 181.756 291.065 181.612 291.773 181.612C292.397 181.612 292.943 181.74 293.409 181.998C293.88 182.254 294.243 182.638 294.5 183.148C294.761 183.653 294.891 184.286 294.891 185.045V190.837H293.119V185.258C293.119 184.59 292.947 184.073 292.602 183.705C292.259 183.333 291.781 183.148 291.168 183.148C290.749 183.148 290.374 183.237 290.042 183.415C289.713 183.592 289.455 183.853 289.265 184.197C289.079 184.537 288.986 184.948 288.986 185.43ZM299.907 191.039C299.33 191.039 298.808 190.932 298.342 190.719C297.875 190.501 297.506 190.187 297.233 189.776C296.964 189.365 296.83 188.861 296.83 188.264C296.83 187.75 296.929 187.328 297.126 186.995C297.324 186.663 297.591 186.401 297.927 186.207C298.263 186.013 298.639 185.867 299.053 185.768C299.469 185.669 299.891 185.594 300.322 185.543C300.867 185.479 301.311 185.428 301.65 185.389C301.99 185.345 302.237 185.276 302.392 185.181C302.545 185.086 302.623 184.932 302.623 184.719V184.677C302.623 184.16 302.477 183.758 302.184 183.474C301.895 183.189 301.464 183.047 300.891 183.047C300.294 183.047 299.824 183.179 299.48 183.444C299.14 183.705 298.905 183.996 298.775 184.316L297.109 183.937C297.306 183.383 297.595 182.936 297.974 182.596C298.358 182.252 298.799 182.003 299.297 181.85C299.795 181.691 300.318 181.612 300.867 181.612C301.231 181.612 301.617 181.655 302.024 181.742C302.435 181.825 302.818 181.98 303.174 182.205C303.534 182.43 303.828 182.753 304.057 183.171C304.287 183.587 304.401 184.126 304.401 184.79V190.837H302.67V189.592H302.599C302.484 189.822 302.312 190.047 302.083 190.268C301.854 190.49 301.559 190.673 301.199 190.819C300.84 190.966 300.409 191.039 299.907 191.039ZM300.292 189.616C300.783 189.616 301.201 189.519 301.549 189.326C301.901 189.132 302.168 188.879 302.35 188.567C302.536 188.25 302.628 187.912 302.628 187.553V186.379C302.566 186.442 302.442 186.501 302.261 186.557C302.083 186.608 301.88 186.654 301.65 186.693C301.421 186.729 301.198 186.762 300.98 186.794C300.763 186.821 300.581 186.845 300.435 186.865C300.091 186.908 299.777 186.981 299.492 187.084C299.211 187.187 298.986 187.335 298.816 187.529C298.65 187.719 298.567 187.972 298.567 188.288C298.567 188.727 298.729 189.059 299.053 189.284C299.377 189.505 299.791 189.616 300.292 189.616ZM313.587 183.954L311.98 184.238C311.912 184.033 311.806 183.837 311.66 183.651C311.517 183.466 311.324 183.314 311.078 183.195C310.833 183.077 310.527 183.018 310.159 183.018C309.658 183.018 309.239 183.13 308.903 183.355C308.567 183.576 308.399 183.863 308.399 184.215C308.399 184.519 308.511 184.764 308.737 184.95C308.962 185.136 309.326 185.288 309.827 185.406L311.274 185.738C312.112 185.932 312.737 186.231 313.148 186.634C313.559 187.037 313.764 187.561 313.764 188.205C313.764 188.75 313.606 189.237 313.29 189.663C312.978 190.086 312.541 190.419 311.98 190.659C311.423 190.901 310.776 191.021 310.041 191.021C309.021 191.021 308.189 190.804 307.545 190.369C306.901 189.93 306.506 189.308 306.359 188.501L308.072 188.241C308.179 188.687 308.399 189.025 308.73 189.254C309.063 189.479 309.496 189.592 310.029 189.592C310.61 189.592 311.075 189.472 311.423 189.23C311.77 188.986 311.944 188.687 311.944 188.335C311.944 188.051 311.837 187.812 311.624 187.618C311.414 187.425 311.092 187.278 310.657 187.179L309.116 186.842C308.266 186.647 307.638 186.339 307.231 185.916C306.828 185.493 306.626 184.958 306.626 184.309C306.626 183.772 306.776 183.302 307.077 182.899C307.377 182.496 307.792 182.181 308.321 181.956C308.851 181.726 309.458 181.612 310.142 181.612C311.126 181.612 311.901 181.825 312.466 182.252C313.031 182.675 313.405 183.242 313.587 183.954ZM323.968 191.021C323.087 191.021 322.328 190.821 321.691 190.422C321.059 190.019 320.573 189.464 320.233 188.757C319.893 188.049 319.723 187.239 319.723 186.325C319.723 185.401 319.897 184.584 320.245 183.877C320.593 183.166 321.082 182.61 321.715 182.211C322.347 181.812 323.092 181.612 323.95 181.612C324.642 181.612 325.258 181.74 325.8 181.998C326.342 182.25 326.778 182.606 327.11 183.065C327.446 183.523 327.646 184.059 327.709 184.671H325.984C325.889 184.245 325.672 183.877 325.331 183.569C324.995 183.26 324.545 183.106 323.98 183.106C323.486 183.106 323.053 183.237 322.681 183.498C322.314 183.754 322.027 184.122 321.822 184.6C321.616 185.075 321.513 185.636 321.513 186.284C321.513 186.948 321.614 187.521 321.816 188.003C322.017 188.485 322.302 188.859 322.669 189.124C323.041 189.389 323.478 189.521 323.98 189.521C324.316 189.521 324.62 189.46 324.893 189.338C325.169 189.211 325.4 189.031 325.587 188.798C325.776 188.565 325.909 188.284 325.984 187.956H327.709C327.646 188.545 327.454 189.07 327.134 189.533C326.814 189.996 326.385 190.359 325.848 190.624C325.313 190.889 324.687 191.021 323.968 191.021ZM333.441 191.021C332.587 191.021 331.842 190.826 331.206 190.434C330.569 190.043 330.075 189.495 329.723 188.792C329.372 188.088 329.196 187.266 329.196 186.325C329.196 185.381 329.372 184.555 329.723 183.847C330.075 183.14 330.569 182.59 331.206 182.199C331.842 181.808 332.587 181.612 333.441 181.612C334.294 181.612 335.039 181.808 335.676 182.199C336.312 182.59 336.806 183.14 337.158 183.847C337.51 184.555 337.686 185.381 337.686 186.325C337.686 187.266 337.51 188.088 337.158 188.792C336.806 189.495 336.312 190.043 335.676 190.434C335.039 190.826 334.294 191.021 333.441 191.021ZM333.447 189.533C334 189.533 334.458 189.387 334.822 189.094C335.186 188.802 335.455 188.412 335.629 187.926C335.807 187.44 335.895 186.905 335.895 186.32C335.895 185.738 335.807 185.205 335.629 184.719C335.455 184.229 335.186 183.836 334.822 183.539C334.458 183.242 334 183.094 333.447 183.094C332.889 183.094 332.427 183.242 332.059 183.539C331.696 183.836 331.425 184.229 331.247 184.719C331.073 185.205 330.986 185.738 330.986 186.32C330.986 186.905 331.073 187.44 331.247 187.926C331.425 188.412 331.696 188.802 332.059 189.094C332.427 189.387 332.889 189.533 333.447 189.533ZM339.665 190.837V181.731H341.366V183.213H341.479C341.668 182.711 341.978 182.32 342.41 182.039C342.84 181.754 343.357 181.612 343.957 181.612C344.566 181.612 345.075 181.754 345.487 182.039C345.902 182.323 346.208 182.715 346.406 183.213H346.5C346.718 182.727 347.064 182.339 347.538 182.051C348.013 181.758 348.577 181.612 349.233 181.612C350.06 181.612 350.734 181.871 351.256 182.389C351.781 182.906 352.044 183.687 352.044 184.731V190.837H350.271V184.897C350.271 184.28 350.103 183.834 349.767 183.557C349.432 183.28 349.03 183.142 348.563 183.142C347.987 183.142 347.538 183.319 347.218 183.676C346.897 184.027 346.737 184.48 346.737 185.033V190.837H344.971V184.784C344.971 184.29 344.817 183.893 344.509 183.592C344.2 183.292 343.799 183.142 343.305 183.142C342.969 183.142 342.659 183.23 342.374 183.409C342.093 183.582 341.866 183.825 341.693 184.138C341.522 184.45 341.437 184.812 341.437 185.223V190.837H339.665ZM354.42 194.252V181.731H356.151V183.207H356.299C356.402 183.018 356.55 182.798 356.744 182.549C356.938 182.3 357.206 182.083 357.551 181.897C357.894 181.707 358.349 181.612 358.914 181.612C359.649 181.612 360.305 181.798 360.882 182.17C361.46 182.541 361.912 183.077 362.24 183.776C362.572 184.476 362.738 185.317 362.738 186.302C362.738 187.286 362.574 188.13 362.246 188.833C361.918 189.533 361.467 190.073 360.895 190.452C360.321 190.828 359.667 191.015 358.931 191.015C358.378 191.015 357.926 190.922 357.574 190.737C357.226 190.551 356.954 190.334 356.756 190.085C356.559 189.836 356.406 189.614 356.299 189.42H356.193V194.252H354.42ZM356.157 186.284C356.157 186.924 356.25 187.486 356.435 187.968C356.621 188.45 356.89 188.828 357.242 189.1C357.594 189.369 358.025 189.503 358.534 189.503C359.064 189.503 359.507 189.363 359.863 189.082C360.218 188.798 360.487 188.412 360.669 187.926C360.855 187.44 360.947 186.893 360.947 186.284C360.947 185.683 360.857 185.143 360.675 184.666C360.497 184.187 360.228 183.81 359.869 183.533C359.513 183.256 359.069 183.118 358.534 183.118C358.021 183.118 357.586 183.251 357.23 183.515C356.879 183.78 356.611 184.149 356.43 184.624C356.248 185.098 356.157 185.651 356.157 186.284ZM366.497 178.695V190.837H364.724V178.695H366.497ZM368.882 190.837V181.731H370.655V190.837H368.882ZM369.777 180.325C369.469 180.325 369.204 180.222 368.983 180.017C368.765 179.808 368.657 179.559 368.657 179.27C368.657 178.978 368.765 178.729 368.983 178.523C369.204 178.314 369.469 178.209 369.777 178.209C370.086 178.209 370.349 178.314 370.566 178.523C370.787 178.729 370.897 178.978 370.897 179.27C370.897 179.559 370.787 179.808 370.566 180.017C370.349 180.222 370.086 180.325 369.777 180.325ZM375.69 191.039C375.112 191.039 374.591 190.932 374.125 190.719C373.658 190.501 373.288 190.187 373.016 189.776C372.747 189.365 372.613 188.861 372.613 188.264C372.613 187.75 372.712 187.328 372.909 186.995C373.107 186.663 373.373 186.401 373.709 186.207C374.045 186.013 374.421 185.867 374.836 185.768C375.251 185.669 375.674 185.594 376.105 185.543C376.65 185.479 377.093 185.428 377.433 185.389C377.773 185.345 378.02 185.276 378.174 185.181C378.328 185.086 378.405 184.932 378.405 184.719V184.677C378.405 184.16 378.259 183.758 377.967 183.474C377.678 183.189 377.247 183.047 376.674 183.047C376.077 183.047 375.607 183.179 375.263 183.444C374.923 183.705 374.688 183.996 374.557 184.316L372.891 183.937C373.089 183.383 373.377 182.936 373.757 182.596C374.141 182.252 374.581 182.003 375.079 181.85C375.577 181.691 376.101 181.612 376.65 181.612C377.014 181.612 377.399 181.655 377.807 181.742C378.218 181.825 378.601 181.98 378.957 182.205C379.316 182.43 379.61 182.753 379.84 183.171C380.069 183.587 380.184 184.126 380.184 184.79V190.837H378.453V189.592H378.381C378.267 189.822 378.095 190.047 377.866 190.268C377.636 190.49 377.342 190.673 376.982 190.819C376.623 190.966 376.192 191.039 375.69 191.039ZM376.075 189.616C376.566 189.616 376.984 189.519 377.332 189.326C377.683 189.132 377.951 188.879 378.132 188.567C378.318 188.25 378.411 187.912 378.411 187.553V186.379C378.348 186.442 378.225 186.501 378.044 186.557C377.866 186.608 377.662 186.654 377.433 186.693C377.203 186.729 376.98 186.762 376.763 186.794C376.545 186.821 376.364 186.845 376.217 186.865C375.873 186.908 375.559 186.981 375.274 187.084C374.994 187.187 374.769 187.335 374.599 187.529C374.433 187.719 374.35 187.972 374.35 188.288C374.35 188.727 374.512 189.059 374.836 189.284C375.16 189.505 375.573 189.616 376.075 189.616ZM384.318 185.43V190.837H382.545V181.731H384.246V183.213H384.359C384.568 182.731 384.897 182.343 385.343 182.051C385.794 181.758 386.361 181.612 387.045 181.612C387.665 181.612 388.209 181.742 388.676 182.003C389.142 182.26 389.503 182.644 389.761 183.154C390.017 183.663 390.146 184.294 390.146 185.045V190.837H388.373V185.258C388.373 184.598 388.201 184.083 387.857 183.711C387.513 183.335 387.041 183.148 386.44 183.148C386.029 183.148 385.663 183.237 385.343 183.415C385.028 183.592 384.776 183.853 384.591 184.197C384.408 184.537 384.318 184.948 384.318 185.43ZM396.359 191.021C395.478 191.021 394.719 190.821 394.083 190.422C393.45 190.019 392.964 189.464 392.624 188.757C392.284 188.049 392.114 187.239 392.114 186.325C392.114 185.401 392.288 184.584 392.636 183.877C392.984 183.166 393.474 182.61 394.106 182.211C394.739 181.812 395.484 181.612 396.342 181.612C397.033 181.612 397.649 181.74 398.191 181.998C398.733 182.25 399.169 182.606 399.501 183.065C399.837 183.523 400.037 184.059 400.1 184.671H398.375C398.28 184.245 398.063 183.877 397.723 183.569C397.387 183.26 396.936 183.106 396.371 183.106C395.877 183.106 395.444 183.237 395.073 183.498C394.705 183.754 394.419 184.122 394.213 184.6C394.008 185.075 393.905 185.636 393.905 186.284C393.905 186.948 394.006 187.521 394.207 188.003C394.408 188.485 394.693 188.859 395.061 189.124C395.432 189.389 395.869 189.521 396.371 189.521C396.707 189.521 397.012 189.46 397.284 189.338C397.561 189.211 397.792 189.031 397.978 188.798C398.168 188.565 398.3 188.284 398.375 187.956H400.1C400.037 188.545 399.846 189.07 399.525 189.533C399.205 189.996 398.776 190.359 398.239 190.624C397.705 190.889 397.078 191.021 396.359 191.021ZM405.921 191.021C405.024 191.021 404.251 190.83 403.603 190.446C402.959 190.059 402.461 189.515 402.109 188.816C401.761 188.112 401.587 187.288 401.587 186.343C401.587 185.411 401.761 184.588 402.109 183.877C402.461 183.166 402.95 182.61 403.579 182.211C404.212 181.812 404.95 181.612 405.796 181.612C406.31 181.612 406.808 181.697 407.29 181.867C407.773 182.037 408.205 182.304 408.589 182.668C408.973 183.031 409.274 183.503 409.496 184.085C409.718 184.661 409.828 185.363 409.828 186.189V186.818H402.589V185.489H408.091C408.091 185.023 407.996 184.61 407.807 184.25C407.617 183.887 407.35 183.601 407.006 183.39C406.666 183.181 406.267 183.077 405.808 183.077C405.311 183.077 404.876 183.199 404.504 183.444C404.136 183.685 403.852 184.001 403.65 184.393C403.453 184.78 403.354 185.201 403.354 185.655V186.693C403.354 187.302 403.46 187.82 403.674 188.247C403.891 188.673 404.193 188.999 404.581 189.225C404.968 189.446 405.421 189.557 405.939 189.557C406.275 189.557 406.581 189.509 406.858 189.415C407.135 189.315 407.373 189.169 407.575 188.976C407.777 188.782 407.931 188.543 408.038 188.259L409.715 188.561C409.581 189.054 409.34 189.488 408.992 189.859C408.648 190.227 408.216 190.513 407.694 190.719C407.176 190.92 406.585 191.021 405.921 191.021ZM420.465 181.731V183.154H415.49V181.731H420.465ZM416.824 179.549H418.597V188.163C418.597 188.508 418.648 188.766 418.751 188.94C418.854 189.11 418.986 189.227 419.149 189.29C419.314 189.349 419.494 189.379 419.688 189.379C419.83 189.379 419.955 189.369 420.061 189.349C420.168 189.329 420.251 189.314 420.31 189.302L420.63 190.766C420.528 190.806 420.381 190.845 420.192 190.885C420.002 190.929 419.765 190.952 419.48 190.956C419.014 190.964 418.579 190.881 418.176 190.707C417.773 190.533 417.447 190.264 417.198 189.9C416.949 189.537 416.824 189.08 416.824 188.531V179.549ZM425.076 191.039C424.499 191.039 423.977 190.932 423.51 190.719C423.044 190.501 422.674 190.187 422.401 189.776C422.133 189.365 421.999 188.861 421.999 188.264C421.999 187.75 422.097 187.328 422.295 186.995C422.493 186.663 422.76 186.401 423.096 186.207C423.432 186.013 423.807 185.867 424.222 185.768C424.637 185.669 425.059 185.594 425.491 185.543C426.036 185.479 426.479 185.428 426.819 185.389C427.158 185.345 427.406 185.276 427.56 185.181C427.714 185.086 427.791 184.932 427.791 184.719V184.677C427.791 184.16 427.645 183.758 427.352 183.474C427.064 183.189 426.633 183.047 426.06 183.047C425.463 183.047 424.993 183.179 424.649 183.444C424.309 183.705 424.074 183.996 423.943 184.316L422.277 183.937C422.475 183.383 422.763 182.936 423.143 182.596C423.526 182.252 423.967 182.003 424.465 181.85C424.963 181.691 425.487 181.612 426.036 181.612C426.4 181.612 426.785 181.655 427.192 181.742C427.604 181.825 427.987 181.98 428.342 182.205C428.702 182.43 428.997 182.753 429.226 183.171C429.455 183.587 429.569 184.126 429.569 184.79V190.837H427.839V189.592H427.767C427.653 189.822 427.481 190.047 427.252 190.268C427.022 190.49 426.728 190.673 426.368 190.819C426.008 190.966 425.578 191.039 425.076 191.039ZM425.461 189.616C425.951 189.616 426.37 189.519 426.718 189.326C427.07 189.132 427.336 188.879 427.519 188.567C427.704 188.25 427.797 187.912 427.797 187.553V186.379C427.734 186.442 427.611 186.501 427.43 186.557C427.251 186.608 427.048 186.654 426.819 186.693C426.589 186.729 426.366 186.762 426.149 186.794C425.931 186.821 425.75 186.845 425.604 186.865C425.259 186.908 424.945 186.981 424.661 187.084C424.38 187.187 424.154 187.335 423.985 187.529C423.818 187.719 423.736 187.972 423.736 188.288C423.736 188.727 423.898 189.059 424.222 189.284C424.546 189.505 424.959 189.616 425.461 189.616ZM438.755 183.954L437.149 184.238C437.081 184.033 436.975 183.837 436.828 183.651C436.686 183.466 436.492 183.314 436.247 183.195C436.002 183.077 435.696 183.018 435.328 183.018C434.826 183.018 434.407 183.13 434.071 183.355C433.735 183.576 433.567 183.863 433.567 184.215C433.567 184.519 433.68 184.764 433.905 184.95C434.131 185.136 434.494 185.288 434.996 185.406L436.442 185.738C437.281 185.932 437.905 186.231 438.317 186.634C438.727 187.037 438.933 187.561 438.933 188.205C438.933 188.75 438.775 189.237 438.458 189.663C438.146 190.086 437.709 190.419 437.149 190.659C436.591 190.901 435.944 191.021 435.21 191.021C434.19 191.021 433.358 190.804 432.714 190.369C432.069 189.93 431.674 189.308 431.528 188.501L433.241 188.241C433.348 188.687 433.567 189.025 433.899 189.254C434.231 189.479 434.664 189.592 435.198 189.592C435.779 189.592 436.243 189.472 436.591 189.23C436.938 188.986 437.112 188.687 437.112 188.335C437.112 188.051 437.006 187.812 436.792 187.618C436.583 187.425 436.261 187.278 435.826 187.179L434.285 186.842C433.435 186.647 432.806 186.339 432.399 185.916C431.996 185.493 431.795 184.958 431.795 184.309C431.795 183.772 431.944 183.302 432.245 182.899C432.545 182.496 432.961 182.181 433.49 181.956C434.02 181.726 434.627 181.612 435.311 181.612C436.294 181.612 437.069 181.825 437.634 182.252C438.2 182.675 438.573 183.242 438.755 183.954ZM442.513 187.749L442.5 185.585H442.809L446.438 181.731H448.56L444.422 186.118H444.143L442.513 187.749ZM440.882 190.837V178.695H442.655V190.837H440.882ZM446.633 190.837L443.372 186.509L444.593 185.27L448.809 190.837H446.633ZM457 183.954L455.393 184.238C455.326 184.033 455.219 183.837 455.073 183.651C454.93 183.466 454.737 183.314 454.492 183.195C454.246 183.077 453.94 183.018 453.573 183.018C453.071 183.018 452.652 183.13 452.316 183.355C451.98 183.576 451.812 183.863 451.812 184.215C451.812 184.519 451.924 184.764 452.15 184.95C452.375 185.136 452.739 185.288 453.24 185.406L454.687 185.738C455.525 185.932 456.15 186.231 456.561 186.634C456.972 187.037 457.177 187.561 457.177 188.205C457.177 188.75 457.019 189.237 456.703 189.663C456.391 190.086 455.954 190.419 455.393 190.659C454.835 190.901 454.189 191.021 453.454 191.021C452.434 191.021 451.602 190.804 450.958 190.369C450.314 189.93 449.919 189.308 449.773 188.501L451.486 188.241C451.592 188.687 451.811 189.025 452.144 189.254C452.476 189.479 452.909 189.592 453.442 189.592C454.023 189.592 454.488 189.472 454.835 189.23C455.183 188.986 455.357 188.687 455.357 188.335C455.357 188.051 455.251 187.812 455.037 187.618C454.828 187.425 454.506 187.278 454.071 187.179L452.529 186.842C451.679 186.647 451.051 186.339 450.643 185.916C450.241 185.493 450.039 184.958 450.039 184.309C450.039 183.772 450.189 183.302 450.49 182.899C450.79 182.496 451.205 182.181 451.735 181.956C452.264 181.726 452.871 181.612 453.555 181.612C454.539 181.612 455.313 181.825 455.879 182.252C456.444 182.675 456.817 183.242 457 183.954ZM466.954 191.015C466.219 191.015 465.562 190.828 464.986 190.452C464.413 190.073 463.962 189.533 463.634 188.833C463.31 188.13 463.148 187.286 463.148 186.302C463.148 185.317 463.312 184.476 463.64 183.776C463.972 183.077 464.426 182.541 465.003 182.17C465.581 181.798 466.234 181.612 466.966 181.612C467.531 181.612 467.985 181.707 468.33 181.897C468.678 182.083 468.946 182.3 469.136 182.549C469.329 182.798 469.48 183.018 469.587 183.207H469.693V178.695H471.466V190.837H469.735V189.42H469.587C469.48 189.614 469.326 189.836 469.124 190.085C468.927 190.334 468.654 190.551 468.306 190.737C467.958 190.922 467.507 191.015 466.954 191.015ZM467.345 189.503C467.855 189.503 468.286 189.369 468.638 189.1C468.993 188.828 469.263 188.45 469.444 187.968C469.63 187.486 469.723 186.924 469.723 186.284C469.723 185.651 469.632 185.098 469.45 184.624C469.268 184.149 469.002 183.78 468.65 183.515C468.298 183.251 467.863 183.118 467.345 183.118C466.812 183.118 466.367 183.256 466.011 183.533C465.656 183.81 465.387 184.187 465.205 184.666C465.027 185.143 464.938 185.683 464.938 186.284C464.938 186.893 465.029 187.44 465.211 187.926C465.393 188.412 465.661 188.798 466.017 189.082C466.377 189.363 466.82 189.503 467.345 189.503ZM479.765 187.061V181.731H481.544V190.837H479.8V189.26H479.706C479.496 189.747 479.16 190.151 478.698 190.476C478.239 190.796 477.668 190.956 476.984 190.956C476.399 190.956 475.882 190.828 475.431 190.57C474.984 190.309 474.632 189.925 474.376 189.415C474.122 188.905 473.996 188.274 473.996 187.523V181.731H475.769V187.31C475.769 187.93 475.941 188.424 476.285 188.792C476.628 189.159 477.075 189.343 477.624 189.343C477.957 189.343 478.287 189.26 478.615 189.094C478.947 188.929 479.222 188.677 479.439 188.341C479.66 188.005 479.769 187.578 479.765 187.061ZM487.85 191.021C486.953 191.021 486.18 190.83 485.532 190.446C484.888 190.059 484.39 189.515 484.038 188.816C483.69 188.112 483.517 187.288 483.517 186.343C483.517 185.411 483.69 184.588 484.038 183.877C484.39 183.166 484.88 182.61 485.508 182.211C486.141 181.812 486.88 181.612 487.726 181.612C488.239 181.612 488.737 181.697 489.22 181.867C489.702 182.037 490.135 182.304 490.518 182.668C490.902 183.031 491.204 183.503 491.425 184.085C491.647 184.661 491.757 185.363 491.757 186.189V186.818H484.518V185.489H490.02C490.02 185.023 489.926 184.61 489.736 184.25C489.546 183.887 489.279 183.601 488.935 183.39C488.596 183.181 488.196 183.077 487.738 183.077C487.24 183.077 486.805 183.199 486.433 183.444C486.065 183.685 485.781 184.001 485.58 184.393C485.382 184.78 485.283 185.201 485.283 185.655V186.693C485.283 187.302 485.39 187.82 485.604 188.247C485.821 188.673 486.123 188.999 486.511 189.225C486.897 189.446 487.35 189.557 487.868 189.557C488.204 189.557 488.511 189.509 488.787 189.415C489.064 189.315 489.303 189.169 489.505 188.976C489.706 188.782 489.86 188.543 489.967 188.259L491.645 188.561C491.51 189.054 491.27 189.488 490.922 189.859C490.577 190.227 490.145 190.513 489.623 190.719C489.105 190.92 488.514 191.021 487.85 191.021ZM504.967 183.954L503.36 184.238C503.293 184.033 503.186 183.837 503.04 183.651C502.897 183.466 502.704 183.314 502.459 183.195C502.214 183.077 501.907 183.018 501.54 183.018C501.038 183.018 500.619 183.13 500.283 183.355C499.947 183.576 499.779 183.863 499.779 184.215C499.779 184.519 499.892 184.764 500.117 184.95C500.342 185.136 500.706 185.288 501.208 185.406L502.655 185.738C503.493 185.932 504.117 186.231 504.528 186.634C504.939 187.037 505.145 187.561 505.145 188.205C505.145 188.75 504.986 189.237 504.671 189.663C504.358 190.086 503.921 190.419 503.36 190.659C502.803 190.901 502.157 191.021 501.421 191.021C500.401 191.021 499.569 190.804 498.925 190.369C498.281 189.93 497.886 189.308 497.74 188.501L499.453 188.241C499.56 188.687 499.779 189.025 500.111 189.254C500.443 189.479 500.876 189.592 501.409 189.592C501.991 189.592 502.455 189.472 502.803 189.23C503.151 188.986 503.325 188.687 503.325 188.335C503.325 188.051 503.218 187.812 503.005 187.618C502.795 187.425 502.473 187.278 502.038 187.179L500.497 186.842C499.647 186.647 499.018 186.339 498.612 185.916C498.208 185.493 498.006 184.958 498.006 184.309C498.006 183.772 498.157 183.302 498.457 182.899C498.758 182.496 499.172 182.181 499.702 181.956C500.232 181.726 500.838 181.612 501.522 181.612C502.506 181.612 503.281 181.825 503.846 182.252C504.412 182.675 504.785 183.242 504.967 183.954ZM510.93 191.021C510.076 191.021 509.331 190.826 508.695 190.434C508.058 190.043 507.565 189.495 507.213 188.792C506.861 188.088 506.685 187.266 506.685 186.325C506.685 185.381 506.861 184.555 507.213 183.847C507.565 183.14 508.058 182.59 508.695 182.199C509.331 181.808 510.076 181.612 510.93 181.612C511.784 181.612 512.529 181.808 513.165 182.199C513.801 182.59 514.296 183.14 514.647 183.847C514.999 184.555 515.175 185.381 515.175 186.325C515.175 187.266 514.999 188.088 514.647 188.792C514.296 189.495 513.801 190.043 513.165 190.434C512.529 190.826 511.784 191.021 510.93 191.021ZM510.936 189.533C511.489 189.533 511.948 189.387 512.311 189.094C512.675 188.802 512.944 188.412 513.118 187.926C513.295 187.44 513.384 186.905 513.384 186.32C513.384 185.738 513.295 185.205 513.118 184.719C512.944 184.229 512.675 183.836 512.311 183.539C511.948 183.242 511.489 183.094 510.936 183.094C510.378 183.094 509.916 183.242 509.549 183.539C509.185 183.836 508.914 184.229 508.736 184.719C508.562 185.205 508.475 185.738 508.475 186.32C508.475 186.905 508.562 187.44 508.736 187.926C508.914 188.412 509.185 188.802 509.549 189.094C509.916 189.387 510.378 189.533 510.936 189.533ZM520.99 191.021C520.136 191.021 519.391 190.826 518.755 190.434C518.118 190.043 517.624 189.495 517.272 188.792C516.92 188.088 516.744 187.266 516.744 186.325C516.744 185.381 516.92 184.555 517.272 183.847C517.624 183.14 518.118 182.59 518.755 182.199C519.391 181.808 520.136 181.612 520.99 181.612C521.843 181.612 522.589 181.808 523.225 182.199C523.861 182.59 524.355 183.14 524.707 183.847C525.059 184.555 525.235 185.381 525.235 186.325C525.235 187.266 525.059 188.088 524.707 188.792C524.355 189.495 523.861 190.043 523.225 190.434C522.589 190.826 521.843 191.021 520.99 191.021ZM520.996 189.533C521.549 189.533 522.008 189.387 522.371 189.094C522.735 188.802 523.003 188.412 523.177 187.926C523.355 187.44 523.444 186.905 523.444 186.32C523.444 185.738 523.355 185.205 523.177 184.719C523.003 184.229 522.735 183.836 522.371 183.539C522.008 183.242 521.549 183.094 520.996 183.094C520.438 183.094 519.976 183.242 519.608 183.539C519.245 183.836 518.974 184.229 518.796 184.719C518.622 185.205 518.535 185.738 518.535 186.32C518.535 186.905 518.622 187.44 518.796 187.926C518.974 188.412 519.245 188.802 519.608 189.094C519.976 189.387 520.438 189.533 520.996 189.533ZM528.986 185.43V190.837H527.213V181.731H528.915V183.213H529.027C529.237 182.731 529.565 182.343 530.012 182.051C530.463 181.758 531.03 181.612 531.713 181.612C532.334 181.612 532.877 181.742 533.344 182.003C533.81 182.26 534.172 182.644 534.429 183.154C534.686 183.663 534.814 184.294 534.814 185.045V190.837H533.041V185.258C533.041 184.598 532.87 184.083 532.526 183.711C532.182 183.335 531.709 183.148 531.109 183.148C530.698 183.148 530.332 183.237 530.012 183.415C529.696 183.592 529.445 183.853 529.259 184.197C529.077 184.537 528.986 184.948 528.986 185.43Z" fill="#A16207"/>
<path fill-rule="evenodd" clip-rule="evenodd" d="M141 175.455C142.011 173.658 144.598 173.658 145.608 175.455L152.984 188.567C153.976 190.33 152.702 192.507 150.68 192.507H135.929C133.907 192.507 132.634 190.33 133.625 188.567L141 175.455ZM144.626 188.542C144.626 189.271 144.034 189.863 143.304 189.863C142.575 189.863 141.983 189.271 141.983 188.542C141.983 187.812 142.575 187.22 143.304 187.22C144.034 187.22 144.626 187.812 144.626 188.542ZM143.304 177.968C142.575 177.968 141.983 178.56 141.983 179.29V183.255C141.983 183.984 142.575 184.576 143.304 184.576C144.034 184.576 144.626 183.984 144.626 183.255V179.29C144.626 178.56 144.034 177.968 143.304 177.968Z" fill="#FACC15"/>
<path d="M140.522 270.142C142.827 270.142 144.696 268.273 144.696 265.968C144.696 263.663 142.827 261.794 140.522 261.794C138.217 261.794 136.348 263.663 136.348 265.968C136.348 268.273 138.217 270.142 140.522 270.142Z" fill="#FACC15"/>
<path d="M140.522 318.142C142.827 318.142 144.696 316.273 144.696 313.968C144.696 311.663 142.827 309.794 140.522 309.794C138.217 309.794 136.348 311.663 136.348 313.968C136.348 316.273 138.217 318.142 140.522 318.142Z" fill="#FACC15"/>
<path d="M182.613 318.837V317.948L185.953 314.292C186.344 313.864 186.667 313.491 186.921 313.176C187.174 312.856 187.362 312.556 187.485 312.276C187.609 311.993 187.672 311.697 187.672 311.387C187.672 311.031 187.586 310.723 187.415 310.463C187.247 310.203 187.016 310.002 186.723 309.86C186.43 309.719 186.101 309.648 185.735 309.648C185.347 309.648 185.007 309.729 184.717 309.89C184.431 310.048 184.209 310.271 184.05 310.557C183.896 310.844 183.818 311.179 183.818 311.564H182.652C182.652 310.972 182.789 310.451 183.062 310.003C183.336 309.555 183.708 309.206 184.179 308.956C184.653 308.706 185.185 308.581 185.775 308.581C186.367 308.581 186.893 308.706 187.351 308.956C187.809 309.206 188.168 309.544 188.428 309.969C188.688 310.394 188.818 310.867 188.818 311.387C188.818 311.759 188.751 312.123 188.616 312.479C188.484 312.831 188.253 313.225 187.924 313.66C187.598 314.091 187.145 314.618 186.566 315.241L184.292 317.672V317.751H188.996V318.837H182.613ZM194.337 318.976C193.592 318.976 192.959 318.774 192.435 318.368C191.911 317.96 191.511 317.368 191.234 316.595C190.957 315.817 190.819 314.879 190.819 313.778C190.819 312.684 190.957 311.751 191.234 310.977C191.514 310.2 191.916 309.607 192.44 309.198C192.967 308.787 193.599 308.581 194.337 308.581C195.075 308.581 195.706 308.787 196.23 309.198C196.756 309.607 197.158 310.2 197.434 310.977C197.715 311.751 197.855 312.684 197.855 313.778C197.855 314.879 197.716 315.817 197.44 316.595C197.163 317.368 196.763 317.96 196.239 318.368C195.715 318.774 195.081 318.976 194.337 318.976ZM194.337 317.889C195.075 317.889 195.648 317.533 196.056 316.821C196.465 316.111 196.669 315.096 196.669 313.778C196.669 312.902 196.575 312.156 196.387 311.54C196.203 310.924 195.936 310.455 195.587 310.132C195.241 309.809 194.824 309.648 194.337 309.648C193.606 309.648 193.034 310.008 192.623 310.73C192.211 311.448 192.005 312.464 192.005 313.778C192.005 314.655 192.097 315.399 192.282 316.012C192.466 316.624 192.731 317.09 193.077 317.409C193.426 317.729 193.846 317.889 194.337 317.889ZM199.732 318.837V317.948L203.072 314.292C203.464 313.864 203.787 313.491 204.04 313.176C204.294 312.856 204.482 312.556 204.604 312.276C204.729 311.993 204.792 311.697 204.792 311.387C204.792 311.031 204.706 310.723 204.534 310.463C204.367 310.203 204.136 310.002 203.843 309.86C203.55 309.719 203.22 309.648 202.855 309.648C202.466 309.648 202.127 309.729 201.837 309.89C201.551 310.048 201.328 310.271 201.17 310.557C201.015 310.844 200.938 311.179 200.938 311.564H199.772C199.772 310.972 199.908 310.451 200.182 310.003C200.455 309.555 200.827 309.206 201.298 308.956C201.773 308.706 202.305 308.581 202.895 308.581C203.487 308.581 204.013 308.706 204.47 308.956C204.928 309.206 205.287 309.544 205.547 309.969C205.807 310.394 205.938 310.867 205.938 311.387C205.938 311.759 205.87 312.123 205.735 312.479C205.603 312.831 205.373 313.225 205.043 313.66C204.717 314.091 204.264 314.618 203.685 315.241L201.412 317.672V317.751H206.115V318.837H199.732ZM211.318 318.976C210.739 318.976 210.216 318.86 209.752 318.63C209.288 318.399 208.915 318.083 208.635 317.681C208.355 317.279 208.202 316.822 208.176 316.308H209.361C209.408 316.766 209.615 317.144 209.984 317.444C210.356 317.74 210.801 317.889 211.318 317.889C211.733 317.889 212.102 317.792 212.425 317.597C212.751 317.403 213.006 317.136 213.191 316.797C213.379 316.454 213.472 316.067 213.472 315.636C213.472 315.194 213.375 314.801 213.181 314.455C212.99 314.106 212.726 313.831 212.39 313.63C212.054 313.429 211.671 313.327 211.239 313.324C210.929 313.32 210.611 313.368 210.286 313.467C209.96 313.562 209.691 313.686 209.48 313.837L208.334 313.699L208.947 308.719H214.204V309.806H209.974L209.619 312.79H209.678C209.885 312.625 210.145 312.489 210.458 312.38C210.771 312.271 211.098 312.217 211.437 312.217C212.056 312.217 212.608 312.365 213.092 312.662C213.579 312.955 213.962 313.356 214.238 313.867C214.518 314.378 214.658 314.961 214.658 315.616C214.658 316.261 214.513 316.838 214.223 317.345C213.937 317.85 213.542 318.248 213.037 318.541C212.534 318.831 211.96 318.976 211.318 318.976ZM220.989 313.235V314.322H216.561V313.235H220.989ZM226.321 318.976C225.576 318.976 224.942 318.774 224.419 318.368C223.895 317.96 223.494 317.368 223.218 316.595C222.941 315.817 222.803 314.879 222.803 313.778C222.803 312.684 222.941 311.751 223.218 310.977C223.498 310.2 223.9 309.607 224.424 309.198C224.95 308.787 225.583 308.581 226.321 308.581C227.059 308.581 227.689 308.787 228.213 309.198C228.74 309.607 229.142 310.2 229.418 310.977C229.699 311.751 229.839 312.684 229.839 313.778C229.839 314.879 229.7 315.817 229.423 316.595C229.146 317.368 228.746 317.96 228.223 318.368C227.699 318.774 227.065 318.976 226.321 318.976ZM226.321 317.889C227.059 317.889 227.631 317.533 228.04 316.821C228.449 316.111 228.653 315.096 228.653 313.778C228.653 312.902 228.559 312.156 228.371 311.54C228.186 310.924 227.92 310.455 227.571 310.132C227.225 309.809 226.808 309.648 226.321 309.648C225.59 309.648 225.018 310.008 224.606 310.73C224.195 311.448 223.989 312.464 223.989 313.778C223.989 314.655 224.081 315.399 224.265 316.012C224.45 316.624 224.715 317.09 225.061 317.409C225.41 317.729 225.83 317.889 226.321 317.889ZM234.957 318.976C234.278 318.976 233.679 318.856 233.158 318.615C232.641 318.371 232.238 318.037 231.948 317.612C231.658 317.184 231.515 316.696 231.519 316.149C231.515 315.722 231.599 315.327 231.77 314.964C231.942 314.598 232.175 314.294 232.472 314.05C232.771 313.803 233.106 313.647 233.475 313.58V313.521C232.991 313.396 232.605 313.124 232.319 312.706C232.032 312.284 231.891 311.805 231.894 311.268C231.891 310.755 232.021 310.295 232.284 309.89C232.547 309.484 232.91 309.165 233.371 308.931C233.835 308.698 234.364 308.581 234.957 308.581C235.544 308.581 236.067 308.698 236.528 308.931C236.989 309.165 237.352 309.484 237.615 309.89C237.882 310.295 238.017 310.755 238.02 311.268C238.017 311.805 237.871 312.284 237.581 312.706C237.294 313.124 236.913 313.396 236.439 313.521V313.58C236.805 313.647 237.134 313.803 237.427 314.05C237.72 314.294 237.954 314.598 238.129 314.964C238.303 315.327 238.392 315.722 238.396 316.149C238.392 316.696 238.244 317.184 237.951 317.612C237.661 318.037 237.258 318.371 236.741 318.615C236.227 318.856 235.632 318.976 234.957 318.976ZM234.957 317.889C235.415 317.889 235.81 317.815 236.143 317.667C236.475 317.519 236.733 317.309 236.913 317.039C237.095 316.769 237.187 316.453 237.19 316.09C237.187 315.708 237.088 315.371 236.894 315.077C236.699 314.785 236.434 314.554 236.098 314.386C235.766 314.218 235.385 314.134 234.957 314.134C234.525 314.134 234.14 314.218 233.801 314.386C233.465 314.554 233.2 314.785 233.005 315.077C232.815 315.371 232.721 315.708 232.723 316.09C232.721 316.453 232.808 316.769 232.986 317.039C233.167 317.309 233.425 317.519 233.761 317.667C234.097 317.815 234.496 317.889 234.957 317.889ZM234.957 313.087C235.32 313.087 235.64 313.014 235.921 312.869C236.204 312.724 236.426 312.522 236.587 312.261C236.749 312.001 236.831 311.697 236.835 311.347C236.831 311.005 236.751 310.707 236.593 310.453C236.434 310.196 236.215 309.999 235.935 309.86C235.655 309.719 235.329 309.648 234.957 309.648C234.578 309.648 234.247 309.719 233.964 309.86C233.681 309.999 233.462 310.196 233.307 310.453C233.152 310.707 233.076 311.005 233.08 311.347C233.076 311.697 233.153 312.001 233.312 312.261C233.473 312.522 233.695 312.724 233.978 312.869C234.262 313.014 234.588 313.087 234.957 313.087ZM244.657 313.235V314.322H240.23V313.235H244.657ZM246.213 318.837V317.948L249.553 314.292C249.945 313.864 250.268 313.491 250.522 313.176C250.775 312.856 250.963 312.556 251.085 312.276C251.21 311.993 251.272 311.697 251.272 311.387C251.272 311.031 251.187 310.723 251.016 310.463C250.847 310.203 250.617 310.002 250.324 309.86C250.031 309.719 249.702 309.648 249.336 309.648C248.947 309.648 248.608 309.729 248.318 309.89C248.031 310.048 247.809 310.271 247.651 310.557C247.496 310.844 247.418 311.179 247.418 311.564H246.253C246.253 310.972 246.39 310.451 246.663 310.003C246.936 309.555 247.309 309.206 247.779 308.956C248.254 308.706 248.785 308.581 249.375 308.581C249.968 308.581 250.493 308.706 250.952 308.956C251.409 309.206 251.768 309.544 252.029 309.969C252.289 310.394 252.419 310.867 252.419 311.387C252.419 311.759 252.351 312.123 252.216 312.479C252.084 312.831 251.854 313.225 251.524 313.66C251.199 314.091 250.746 314.618 250.166 315.241L247.893 317.672V317.751H252.597V318.837H246.213ZM257.878 318.976C257.2 318.976 256.6 318.856 256.08 318.615C255.562 318.371 255.159 318.037 254.87 317.612C254.579 317.184 254.436 316.696 254.44 316.149C254.436 315.722 254.52 315.327 254.691 314.964C254.863 314.598 255.096 314.294 255.393 314.05C255.693 313.803 256.027 313.647 256.396 313.58V313.521C255.912 313.396 255.526 313.124 255.24 312.706C254.953 312.284 254.812 311.805 254.815 311.268C254.812 310.755 254.942 310.295 255.206 309.89C255.469 309.484 255.831 309.165 256.292 308.931C256.757 308.698 257.286 308.581 257.878 308.581C258.465 308.581 258.989 308.698 259.449 308.931C259.91 309.165 260.273 309.484 260.536 309.89C260.803 310.295 260.938 310.755 260.941 311.268C260.938 311.805 260.792 312.284 260.502 312.706C260.215 313.124 259.834 313.396 259.361 313.521V313.58C259.726 313.647 260.056 313.803 260.349 314.05C260.641 314.294 260.876 314.598 261.05 314.964C261.225 315.327 261.313 315.722 261.317 316.149C261.313 316.696 261.165 317.184 260.872 317.612C260.582 318.037 260.179 318.371 259.662 318.615C259.148 318.856 258.554 318.976 257.878 318.976ZM257.878 317.889C258.336 317.889 258.731 317.815 259.064 317.667C259.397 317.519 259.654 317.309 259.834 317.039C260.016 316.769 260.108 316.453 260.111 316.09C260.108 315.708 260.009 315.371 259.815 315.077C259.621 314.785 259.356 314.554 259.02 314.386C258.687 314.218 258.306 314.134 257.878 314.134C257.447 314.134 257.062 314.218 256.722 314.386C256.386 314.554 256.121 314.785 255.927 315.077C255.736 315.371 255.642 315.708 255.645 316.09C255.642 316.453 255.729 316.769 255.907 317.039C256.088 317.309 256.346 317.519 256.682 317.667C257.018 317.815 257.417 317.889 257.878 317.889ZM257.878 313.087C258.241 313.087 258.561 313.014 258.842 312.869C259.125 312.724 259.347 312.522 259.509 312.261C259.67 312.001 259.752 311.697 259.756 311.347C259.752 311.005 259.672 310.707 259.514 310.453C259.356 310.196 259.137 309.999 258.856 309.86C258.577 309.719 258.25 309.648 257.878 309.648C257.499 309.648 257.169 309.719 256.885 309.86C256.602 309.999 256.383 310.196 256.228 310.453C256.073 310.707 255.997 311.005 256.001 311.347C255.997 311.697 256.075 312.001 256.233 312.261C256.394 312.522 256.616 312.724 256.9 312.869C257.183 313.014 257.51 313.087 257.878 313.087Z" fill="#A16207"/>
<path d="M297.573 318.837V308.719H303.64V309.806H298.799V313.225H303.186V314.311H298.799V318.837H297.573ZM305.581 318.837V311.249H306.747V318.837H305.581ZM306.174 309.984C305.946 309.984 305.75 309.906 305.585 309.751C305.424 309.596 305.343 309.411 305.343 309.193C305.343 308.976 305.424 308.789 305.585 308.635C305.75 308.48 305.946 308.403 306.174 308.403C306.401 308.403 306.595 308.48 306.757 308.635C306.921 308.789 307.004 308.976 307.004 309.193C307.004 309.411 306.921 309.596 306.757 309.751C306.595 309.906 306.401 309.984 306.174 309.984ZM310.049 308.719V318.837H308.882V308.719H310.049ZM315.366 318.995C314.634 318.995 314.004 318.834 313.473 318.511C312.947 318.185 312.54 317.731 312.253 317.148C311.97 316.561 311.828 315.879 311.828 315.102C311.828 314.325 311.97 313.639 312.253 313.047C312.54 312.451 312.938 311.987 313.449 311.653C313.962 311.317 314.562 311.15 315.247 311.15C315.642 311.15 316.033 311.216 316.418 311.347C316.803 311.479 317.154 311.693 317.471 311.989C317.787 312.283 318.039 312.671 318.227 313.155C318.415 313.639 318.508 314.236 318.508 314.944V315.438H312.658V314.43H317.322C317.322 314.002 317.237 313.62 317.066 313.284C316.897 312.948 316.657 312.683 316.344 312.489C316.035 312.294 315.669 312.197 315.247 312.197C314.783 312.197 314.381 312.312 314.042 312.543C313.706 312.77 313.447 313.067 313.266 313.432C313.085 313.798 312.994 314.19 312.994 314.608V315.28C312.994 315.853 313.093 316.339 313.29 316.738C313.491 317.133 313.77 317.434 314.126 317.642C314.481 317.846 314.895 317.948 315.366 317.948C315.672 317.948 315.949 317.905 316.196 317.82C316.446 317.731 316.662 317.599 316.843 317.424C317.024 317.246 317.165 317.026 317.263 316.762L318.39 317.079C318.271 317.461 318.072 317.797 317.792 318.086C317.512 318.373 317.166 318.597 316.754 318.758C316.342 318.917 315.88 318.995 315.366 318.995ZM324.175 318.837V317.948L327.515 314.292C327.907 313.863 328.23 313.491 328.483 313.175C328.737 312.856 328.925 312.556 329.047 312.276C329.172 311.993 329.235 311.697 329.235 311.387C329.235 311.031 329.149 310.723 328.977 310.463C328.81 310.203 328.579 310.002 328.286 309.86C327.992 309.719 327.663 309.648 327.297 309.648C326.909 309.648 326.57 309.729 326.28 309.89C325.993 310.048 325.771 310.27 325.613 310.557C325.458 310.844 325.381 311.179 325.381 311.564H324.215C324.215 310.972 324.351 310.451 324.625 310.003C324.898 309.555 325.27 309.206 325.741 308.956C326.216 308.706 326.748 308.581 327.337 308.581C327.93 308.581 328.456 308.706 328.913 308.956C329.371 309.206 329.73 309.544 329.99 309.969C330.25 310.394 330.381 310.867 330.381 311.387C330.381 311.759 330.313 312.123 330.178 312.478C330.047 312.831 329.816 313.225 329.487 313.66C329.16 314.091 328.707 314.618 328.128 315.241L325.855 317.671V317.751H330.559V318.837H324.175ZM335.899 318.976C335.155 318.976 334.521 318.773 333.997 318.368C333.473 317.959 333.073 317.368 332.797 316.595C332.52 315.817 332.382 314.878 332.382 313.778C332.382 312.684 332.52 311.751 332.797 310.977C333.077 310.199 333.478 309.607 334.002 309.198C334.529 308.787 335.162 308.581 335.899 308.581C336.637 308.581 337.268 308.787 337.792 309.198C338.319 309.607 338.721 310.199 338.998 310.977C339.277 311.751 339.417 312.684 339.417 313.778C339.417 314.878 339.279 315.817 339.002 316.595C338.726 317.368 338.326 317.959 337.802 318.368C337.278 318.773 336.644 318.976 335.899 318.976ZM335.899 317.888C336.637 317.888 337.21 317.533 337.619 316.821C338.027 316.11 338.232 315.095 338.232 313.778C338.232 312.902 338.138 312.156 337.95 311.54C337.766 310.924 337.498 310.455 337.149 310.132C336.803 309.809 336.387 309.648 335.899 309.648C335.168 309.648 334.597 310.008 334.185 310.73C333.773 311.447 333.567 312.464 333.567 313.778C333.567 314.654 333.66 315.399 333.844 316.012C334.029 316.624 334.294 317.09 334.639 317.409C334.989 317.729 335.409 317.888 335.899 317.888ZM341.295 318.837V317.948L344.634 314.292C345.027 313.863 345.35 313.491 345.603 313.175C345.857 312.856 346.045 312.556 346.166 312.276C346.291 311.993 346.354 311.697 346.354 311.387C346.354 311.031 346.269 310.723 346.097 310.463C345.929 310.203 345.699 310.002 345.405 309.86C345.112 309.719 344.783 309.648 344.417 309.648C344.029 309.648 343.689 309.729 343.4 309.89C343.113 310.048 342.89 310.27 342.733 310.557C342.577 310.844 342.5 311.179 342.5 311.564H341.334C341.334 310.972 341.471 310.451 341.744 310.003C342.017 309.555 342.39 309.206 342.861 308.956C343.335 308.706 343.867 308.581 344.457 308.581C345.05 308.581 345.575 308.706 346.033 308.956C346.49 309.206 346.849 309.544 347.11 309.969C347.37 310.394 347.501 310.867 347.501 311.387C347.501 311.759 347.433 312.123 347.297 312.478C347.166 312.831 346.936 313.225 346.606 313.66C346.28 314.091 345.827 314.618 345.247 315.241L342.975 317.671V317.751H347.678V318.837H341.295ZM352.881 318.976C352.301 318.976 351.779 318.86 351.315 318.63C350.85 318.399 350.478 318.083 350.198 317.681C349.918 317.279 349.765 316.821 349.738 316.308H350.924C350.97 316.766 351.178 317.144 351.546 317.444C351.919 317.74 352.364 317.888 352.881 317.888C353.296 317.888 353.665 317.792 353.987 317.597C354.314 317.403 354.569 317.136 354.753 316.797C354.941 316.454 355.035 316.067 355.035 315.636C355.035 315.194 354.938 314.801 354.744 314.455C354.552 314.106 354.289 313.831 353.953 313.63C353.617 313.429 353.233 313.327 352.801 313.324C352.492 313.32 352.174 313.368 351.848 313.467C351.522 313.562 351.254 313.686 351.043 313.837L349.896 313.699L350.509 308.719H355.766V309.806H351.537L351.181 312.79H351.24C351.448 312.625 351.708 312.489 352.021 312.38C352.334 312.271 352.66 312.217 352.999 312.217C353.619 312.217 354.17 312.365 354.655 312.661C355.142 312.955 355.524 313.356 355.8 313.867C356.081 314.378 356.221 314.96 356.221 315.616C356.221 316.261 356.076 316.838 355.786 317.345C355.499 317.85 355.104 318.247 354.6 318.541C354.096 318.831 353.523 318.976 352.881 318.976ZM362.116 318.837V311.249H363.282V318.837H362.116ZM362.709 309.984C362.481 309.984 362.286 309.906 362.121 309.751C361.96 309.596 361.879 309.411 361.879 309.193C361.879 308.976 361.96 308.789 362.121 308.635C362.286 308.48 362.481 308.403 362.709 308.403C362.936 308.403 363.13 308.48 363.292 308.635C363.457 308.789 363.539 308.976 363.539 309.193C363.539 309.411 363.457 309.596 363.292 309.751C363.13 309.906 362.936 309.984 362.709 309.984ZM366.584 314.272V318.837H365.418V311.249H366.544V312.434H366.643C366.821 312.049 367.091 311.739 367.453 311.505C367.816 311.268 368.283 311.15 368.856 311.15C369.37 311.15 369.82 311.255 370.205 311.466C370.591 311.674 370.89 311.989 371.105 312.414C371.318 312.836 371.425 313.37 371.425 314.015V318.837H370.259V314.094C370.259 313.498 370.105 313.034 369.795 312.701C369.486 312.365 369.061 312.197 368.52 312.197C368.148 312.197 367.816 312.278 367.523 312.439C367.233 312.601 367.004 312.836 366.835 313.146C366.668 313.455 366.584 313.831 366.584 314.272ZM376.639 318.995C375.928 318.995 375.315 318.828 374.801 318.492C374.287 318.156 373.892 317.693 373.615 317.103C373.339 316.514 373.201 315.84 373.201 315.082C373.201 314.311 373.342 313.632 373.626 313.042C373.912 312.449 374.31 311.987 374.821 311.653C375.335 311.317 375.935 311.15 376.62 311.15C377.153 311.15 377.634 311.249 378.062 311.446C378.49 311.644 378.841 311.92 379.114 312.276C379.388 312.632 379.558 313.047 379.624 313.521H378.458C378.369 313.175 378.171 312.869 377.864 312.602C377.562 312.332 377.153 312.197 376.639 312.197C376.185 312.197 375.786 312.316 375.443 312.553C375.105 312.787 374.839 313.118 374.648 313.546C374.461 313.971 374.367 314.47 374.367 315.043C374.367 315.629 374.459 316.14 374.643 316.574C374.831 317.009 375.094 317.347 375.434 317.587C375.777 317.828 376.178 317.948 376.639 317.948C376.943 317.948 377.217 317.895 377.464 317.79C377.711 317.685 377.921 317.533 378.092 317.335C378.263 317.138 378.385 316.901 378.458 316.624H379.624C379.558 317.072 379.395 317.475 379.135 317.834C378.877 318.19 378.536 318.474 378.112 318.684C377.69 318.892 377.199 318.995 376.639 318.995ZM384.411 318.995C383.726 318.995 383.125 318.832 382.608 318.506C382.094 318.18 381.692 317.724 381.402 317.138C381.116 316.551 380.973 315.866 380.973 315.082C380.973 314.292 381.116 313.602 381.402 313.012C381.692 312.423 382.094 311.965 382.608 311.639C383.125 311.313 383.726 311.15 384.411 311.15C385.096 311.15 385.696 311.313 386.209 311.639C386.727 311.965 387.128 312.423 387.415 313.012C387.705 313.602 387.85 314.292 387.85 315.082C387.85 315.866 387.705 316.551 387.415 317.138C387.128 317.724 386.727 318.18 386.209 318.506C385.696 318.832 385.096 318.995 384.411 318.995ZM384.411 317.948C384.931 317.948 385.36 317.815 385.696 317.548C386.031 317.281 386.28 316.931 386.442 316.496C386.603 316.061 386.684 315.589 386.684 315.082C386.684 314.575 386.603 314.103 386.442 313.664C386.28 313.226 386.031 312.872 385.696 312.602C385.36 312.332 384.931 312.197 384.411 312.197C383.891 312.197 383.462 312.332 383.126 312.602C382.79 312.872 382.542 313.226 382.381 313.664C382.219 314.103 382.138 314.575 382.138 315.082C382.138 315.589 382.219 316.061 382.381 316.496C382.542 316.931 382.79 317.281 383.126 317.548C383.462 317.815 383.891 317.948 384.411 317.948ZM389.63 318.837V311.249H390.756V312.434H390.855C391.013 312.029 391.268 311.715 391.621 311.491C391.974 311.263 392.397 311.15 392.89 311.15C393.391 311.15 393.808 311.263 394.141 311.491C394.477 311.715 394.738 312.029 394.926 312.434H395.005C395.199 312.042 395.491 311.731 395.88 311.5C396.269 311.267 396.735 311.15 397.278 311.15C397.956 311.15 398.511 311.362 398.943 311.787C399.375 312.208 399.59 312.866 399.59 313.758V318.837H398.424V313.758C398.424 313.198 398.271 312.798 397.964 312.558C397.658 312.317 397.297 312.197 396.883 312.197C396.349 312.197 395.936 312.359 395.642 312.682C395.35 313.001 395.203 313.406 395.203 313.897V318.837H394.017V313.639C394.017 313.208 393.877 312.861 393.597 312.597C393.317 312.33 392.957 312.197 392.515 312.197C392.212 312.197 391.929 312.278 391.665 312.439C391.405 312.601 391.194 312.825 391.033 313.111C390.874 313.395 390.796 313.722 390.796 314.094V318.837H389.63ZM404.904 318.995C404.173 318.995 403.542 318.834 403.011 318.511C402.485 318.185 402.078 317.731 401.791 317.148C401.508 316.561 401.366 315.879 401.366 315.102C401.366 314.325 401.508 313.639 401.791 313.047C402.078 312.451 402.477 311.987 402.987 311.653C403.501 311.317 404.1 311.15 404.785 311.15C405.181 311.15 405.571 311.216 405.956 311.347C406.342 311.479 406.692 311.693 407.009 311.989C407.325 312.283 407.577 312.671 407.765 313.155C407.952 313.639 408.046 314.236 408.046 314.944V315.438H402.196V314.43H406.861C406.861 314.002 406.775 313.62 406.604 313.284C406.435 312.948 406.195 312.683 405.882 312.489C405.573 312.294 405.207 312.197 404.785 312.197C404.321 312.197 403.919 312.312 403.58 312.543C403.244 312.77 402.985 313.067 402.804 313.432C402.623 313.798 402.532 314.19 402.532 314.608V315.28C402.532 315.853 402.631 316.339 402.828 316.738C403.03 317.133 403.308 317.434 403.664 317.642C404.019 317.846 404.433 317.948 404.904 317.948C405.21 317.948 405.487 317.905 405.734 317.82C405.984 317.731 406.2 317.599 406.381 317.424C406.562 317.246 406.703 317.026 406.801 316.762L407.928 317.079C407.809 317.461 407.61 317.797 407.33 318.086C407.05 318.373 406.704 318.597 406.292 318.758C405.88 318.917 405.418 318.995 404.904 318.995ZM417.033 311.249V312.236H413.1V311.249H417.033ZM414.247 309.43H415.413V316.663C415.413 316.993 415.461 317.24 415.556 317.404C415.655 317.566 415.78 317.675 415.932 317.731C416.086 317.783 416.25 317.81 416.421 317.81C416.549 317.81 416.655 317.803 416.737 317.79C416.819 317.774 416.885 317.76 416.934 317.751L417.171 318.798C417.093 318.828 416.982 318.857 416.84 318.887C416.699 318.919 416.52 318.936 416.302 318.936C415.973 318.936 415.65 318.865 415.334 318.724C415.021 318.582 414.76 318.366 414.553 318.076C414.349 317.787 414.247 317.421 414.247 316.98V309.43ZM421.02 319.015C420.54 319.015 420.103 318.924 419.711 318.743C419.319 318.559 419.008 318.294 418.778 317.948C418.547 317.599 418.431 317.178 418.431 316.683C418.431 316.248 418.517 315.896 418.689 315.626C418.86 315.353 419.089 315.139 419.375 314.983C419.662 314.829 419.978 314.714 420.324 314.638C420.673 314.558 421.024 314.496 421.376 314.45C421.837 314.391 422.211 314.346 422.498 314.316C422.787 314.284 422.998 314.229 423.13 314.154C423.265 314.078 423.333 313.946 423.333 313.758V313.719C423.333 313.231 423.199 312.853 422.933 312.583C422.669 312.312 422.269 312.177 421.732 312.177C421.176 312.177 420.739 312.299 420.423 312.543C420.106 312.787 419.884 313.047 419.756 313.324L418.649 312.929C418.847 312.467 419.11 312.108 419.439 311.851C419.772 311.591 420.134 311.41 420.527 311.308C420.922 311.203 421.311 311.15 421.692 311.15C421.936 311.15 422.216 311.179 422.532 311.239C422.852 311.294 423.16 311.411 423.456 311.589C423.756 311.767 424.005 312.036 424.202 312.395C424.4 312.754 424.499 313.235 424.499 313.837V318.837H423.333V317.81H423.274C423.194 317.974 423.063 318.151 422.878 318.339C422.694 318.526 422.449 318.686 422.142 318.818C421.836 318.949 421.462 319.015 421.02 319.015ZM421.199 317.968C421.66 317.968 422.048 317.877 422.365 317.696C422.684 317.515 422.924 317.281 423.086 316.995C423.25 316.708 423.333 316.407 423.333 316.09V315.023C423.283 315.082 423.175 315.137 423.007 315.186C422.842 315.233 422.651 315.274 422.433 315.31C422.219 315.342 422.01 315.372 421.806 315.399C421.605 315.422 421.442 315.441 421.317 315.458C421.014 315.498 420.73 315.562 420.467 315.651C420.207 315.736 419.996 315.866 419.834 316.041C419.677 316.212 419.598 316.446 419.598 316.743C419.598 317.148 419.747 317.454 420.047 317.662C420.35 317.866 420.734 317.968 421.199 317.968ZM427.496 311.249L429.315 314.351L431.133 311.249H432.477L430.026 315.043L432.477 318.837H431.133L429.315 315.893L427.496 318.837H426.152L428.563 315.043L426.152 311.249H427.496ZM438.054 318.837V311.249H439.18V312.395H439.259C439.398 312.019 439.648 311.715 440.01 311.481C440.372 311.247 440.781 311.13 441.235 311.13C441.321 311.13 441.428 311.132 441.557 311.135C441.685 311.138 441.782 311.143 441.848 311.15V312.335C441.809 312.325 441.718 312.311 441.576 312.291C441.438 312.268 441.291 312.257 441.137 312.257C440.768 312.257 440.438 312.334 440.148 312.489C439.862 312.64 439.635 312.851 439.466 313.121C439.302 313.388 439.219 313.692 439.219 314.035V318.837H438.054ZM446.181 318.995C445.45 318.995 444.819 318.834 444.289 318.511C443.762 318.185 443.355 317.731 443.069 317.148C442.785 316.561 442.643 315.879 442.643 315.102C442.643 314.325 442.785 313.639 443.069 313.047C443.355 312.451 443.754 311.987 444.264 311.653C444.778 311.317 445.377 311.15 446.063 311.15C446.458 311.15 446.848 311.216 447.233 311.347C447.619 311.479 447.969 311.693 448.286 311.989C448.602 312.283 448.854 312.671 449.042 313.155C449.229 313.639 449.323 314.236 449.323 314.944V315.438H443.473V314.43H448.138C448.138 314.002 448.052 313.62 447.88 313.284C447.713 312.948 447.472 312.683 447.16 312.489C446.849 312.294 446.484 312.197 446.063 312.197C445.598 312.197 445.197 312.312 444.857 312.543C444.521 312.77 444.262 313.067 444.081 313.432C443.9 313.798 443.809 314.19 443.809 314.608V315.28C443.809 315.853 443.908 316.339 444.106 316.738C444.307 317.133 444.585 317.434 444.941 317.642C445.297 317.846 445.71 317.948 446.181 317.948C446.488 317.948 446.764 317.905 447.011 317.82C447.261 317.731 447.477 317.599 447.658 317.424C447.839 317.246 447.98 317.026 448.079 316.762L449.205 317.079C449.086 317.461 448.887 317.797 448.607 318.086C448.327 318.373 447.981 318.597 447.569 318.758C447.158 318.917 446.695 318.995 446.181 318.995ZM454.397 311.249V312.236H450.465V311.249H454.397ZM451.611 309.43H452.777V316.663C452.777 316.993 452.824 317.24 452.92 317.404C453.019 317.566 453.144 317.675 453.296 317.731C453.45 317.783 453.613 317.81 453.785 317.81C453.913 317.81 454.019 317.803 454.101 317.79C454.184 317.774 454.249 317.76 454.298 317.751L454.536 318.798C454.457 318.828 454.346 318.857 454.205 318.887C454.063 318.919 453.884 318.936 453.666 318.936C453.337 318.936 453.014 318.865 452.698 318.724C452.385 318.582 452.124 318.366 451.917 318.076C451.713 317.787 451.611 317.421 451.611 316.98V309.43ZM460.934 315.735V311.249H462.1V318.837H460.934V317.553H460.855C460.677 317.938 460.401 318.266 460.025 318.536C459.649 318.803 459.175 318.936 458.602 318.936C458.128 318.936 457.706 318.833 457.337 318.625C456.968 318.414 456.678 318.098 456.467 317.676C456.257 317.251 456.152 316.716 456.152 316.071V311.249H457.318V315.991C457.318 316.545 457.472 316.986 457.782 317.315C458.095 317.645 458.493 317.81 458.977 317.81C459.267 317.81 459.562 317.735 459.862 317.587C460.165 317.439 460.419 317.212 460.623 316.906C460.831 316.599 460.934 316.209 460.934 315.735ZM464.236 318.837V311.249H465.362V312.395H465.441C465.58 312.019 465.83 311.715 466.192 311.481C466.554 311.247 466.963 311.13 467.418 311.13C467.503 311.13 467.61 311.132 467.738 311.135C467.867 311.138 467.965 311.143 468.03 311.15V312.335C467.991 312.325 467.9 312.311 467.759 312.291C467.62 312.268 467.473 312.257 467.319 312.257C466.95 312.257 466.62 312.334 466.33 312.489C466.044 312.64 465.817 312.851 465.649 313.121C465.484 313.388 465.402 313.692 465.402 314.035V318.837H464.236ZM470.578 314.272V318.837H469.412V311.249H470.539V312.434H470.638C470.815 312.049 471.085 311.739 471.448 311.505C471.81 311.268 472.278 311.15 472.851 311.15C473.365 311.15 473.814 311.255 474.2 311.466C474.585 311.674 474.885 311.989 475.099 312.414C475.313 312.836 475.421 313.37 475.421 314.015V318.837H474.254V314.094C474.254 313.498 474.099 313.034 473.79 312.701C473.48 312.365 473.055 312.197 472.515 312.197C472.143 312.197 471.81 312.278 471.517 312.439C471.227 312.601 470.998 312.836 470.831 313.146C470.662 313.455 470.578 313.831 470.578 314.272Z" fill="black"/>
</g>
</g>
</g>
</g>
<defs>
<filter id="filter0_d_124_139" x="43.8261" y="65.6202" width="610.087" height="386.087" filterUnits="userSpaceOnUse" color-interpolation-filters="sRGB">
<feFlood flood-opacity="0" result="BackgroundImageFix"/>
<feColorMatrix in="SourceAlpha" type="matrix" values="0 0 0 0 0 0 0 0 0 0 0 0 0 0 0 0 0 0 127 0" result="hardAlpha"/>
<feOffset dy="17.3913"/>
<feGaussianBlur stdDeviation="17.3913"/>
<feComposite in2="hardAlpha" operator="out"/>
<feColorMatrix type="matrix" values="0 0 0 0 0 0 0 0 0 0 0 0 0 0 0 0 0 0 0.2 0"/>
<feBlend mode="normal" in2="BackgroundImageFix" result="effect1_dropShadow_124_139"/>
<feBlend mode="normal" in="SourceGraphic" in2="effect1_dropShadow_124_139" result="shape"/>
</filter>
<clipPath id="clip0_124_139">
<rect y="0.22998" width="576" height="482.78" rx="18" fill="white"/>
</clipPath>
<clipPath id="clip1_124_139">
<rect width="576" height="482.78" fill="white" transform="translate(0 0.22998)"/>
</clipPath>
<clipPath id="clip2_124_139">
<rect width="576" height="482.783" fill="white" transform="translate(0 0.22876)"/>
</clipPath>
</defs>
</svg>
