<svg width="25" height="26" viewBox="0 0 25 26" fill="none" xmlns="http://www.w3.org/2000/svg">
<g clip-path="url(#clip0_124_300)">
<path d="M23.17 13.1616C23.17 12.3816 23.1 11.6316 22.97 10.9116H12.61V15.1666H18.53C18.275 16.5416 17.5 17.7066 16.335 18.4866V21.2466H19.89C21.97 19.3316 23.17 16.5116 23.17 13.1616Z" fill="#4285F4"/>
<path d="M12.6119 23.9115C15.5819 23.9115 18.0719 22.9265 19.8919 21.2465L16.3369 18.4865C15.3519 19.1465 14.0919 19.5365 12.6119 19.5365C9.74687 19.5365 7.32186 17.6015 6.45686 15.0015H2.78187V17.8515C4.59186 21.4465 8.31186 23.9115 12.6119 23.9115Z" fill="#34A853"/>
<path d="M6.45499 15.0012C6.23499 14.3412 6.10999 13.6362 6.10999 12.9112C6.10999 12.1862 6.23499 11.4812 6.45499 10.8212V7.97119H2.77999C2.00999 9.50404 1.60931 11.1958 1.60999 12.9112C1.60999 14.6862 2.03499 16.3662 2.77999 17.8512L6.45499 15.0012Z" fill="#FBBC05"/>
<path d="M12.6119 6.28662C14.2269 6.28662 15.6769 6.84162 16.8169 7.93162L19.9719 4.77662C18.0669 3.00162 15.5769 1.91162 12.6119 1.91162C8.31186 1.91162 4.59186 4.37662 2.78187 7.97162L6.45686 10.8216C7.32186 8.22162 9.74686 6.28662 12.6119 6.28662Z" fill="#EA4335"/>
</g>
<defs>
<clipPath id="clip0_124_300">
<rect width="24" height="25" fill="white" transform="translate(0.609985 0.200195)"/>
</clipPath>
</defs>
</svg>
