<svg width="152" height="35" viewBox="0 0 152 35" fill="none" xmlns="http://www.w3.org/2000/svg">
<g clip-path="url(#clip0_124_537)">
<path fill-rule="evenodd" clip-rule="evenodd" d="M13.7376 24.3182C12.6075 24.3182 11.5236 23.8692 10.7244 23.0701C9.92524 22.2709 9.47628 21.187 9.47628 20.0568V0.454544H0.953552V20.0568C0.953552 27.117 6.67742 32.8409 13.7376 32.8409H23.1126V24.3182H13.7376ZM39.3058 8.97727C38.2985 8.97727 37.3011 9.17567 36.3705 9.56115C35.4398 9.94663 34.5943 10.5116 33.882 11.2239C33.1697 11.9362 32.6047 12.7817 32.2193 13.7124C31.8338 14.643 31.6354 15.6404 31.6354 16.6477C31.6354 17.655 31.8338 18.6525 32.2193 19.5831C32.6047 20.5137 33.1697 21.3593 33.882 22.0716C34.5943 22.7838 35.4398 23.3488 36.3705 23.7343C37.3011 24.1198 38.2985 24.3182 39.3058 24.3182C41.3402 24.3182 43.2912 23.51 44.7297 22.0716C46.1681 20.6331 46.9763 18.6821 46.9763 16.6477C46.9763 14.6134 46.1681 12.6624 44.7297 11.2239C43.2912 9.78541 41.3402 8.97727 39.3058 8.97727ZM23.1126 16.6477C23.1126 7.70483 30.3629 0.454544 39.3058 0.454544C48.2487 0.454544 55.499 7.70483 55.499 16.6477C55.499 25.5906 48.2487 32.8409 39.3058 32.8409C30.3629 32.8409 23.1126 25.5906 23.1126 16.6477ZM131.351 8.97727C129.317 8.97727 127.366 9.78541 125.927 11.2239C124.489 12.6624 123.681 14.6134 123.681 16.6477C123.681 18.6821 124.489 20.6331 125.927 22.0716C127.366 23.51 129.317 24.3182 131.351 24.3182C133.386 24.3182 135.337 23.51 136.775 22.0716C138.214 20.6331 139.022 18.6821 139.022 16.6477C139.022 14.6134 138.214 12.6624 136.775 11.2239C135.337 9.78541 133.386 8.97727 131.351 8.97727ZM115.158 16.6477C115.158 7.70483 122.408 0.454544 131.351 0.454544C140.294 0.454544 147.544 7.70483 147.544 16.6477C147.544 25.5906 140.294 32.8409 131.351 32.8409C122.408 32.8409 115.158 25.5906 115.158 16.6477ZM73.3967 0.454544C64.4538 0.454544 57.2036 7.70483 57.2036 16.6477C57.2036 25.5906 64.4538 32.8409 73.3967 32.8409H97.2604C98.9385 32.8409 100.557 32.5852 102.079 32.1114L106.635 34.5455L111.551 25.3375C112.8 22.9935 113.453 20.3784 113.454 17.7224V16.6477C113.454 7.70483 106.203 0.454544 97.2604 0.454544H73.3967ZM104.931 16.6477C104.931 14.6134 104.123 12.6624 102.684 11.2239C101.246 9.78541 99.2947 8.97727 97.2604 8.97727H73.3967C72.3894 8.97727 71.392 9.17567 70.4614 9.56115C69.5308 9.94663 68.6852 10.5116 67.9729 11.2239C67.2606 11.9362 66.6956 12.7817 66.3102 13.7124C65.9247 14.643 65.7263 15.6404 65.7263 16.6477C65.7263 17.655 65.9247 18.6525 66.3102 19.5831C66.6956 20.5137 67.2606 21.3593 67.9729 22.0716C68.6852 22.7838 69.5308 23.3488 70.4614 23.7343C71.392 24.1198 72.3894 24.3182 73.3967 24.3182H97.2604C99.2844 24.3182 101.226 23.5183 102.663 22.0927C104.1 20.6671 104.915 18.7314 104.931 16.7074V16.6477Z" fill="#283841"/>
<path d="M151.806 2.58523C151.806 3.15032 151.581 3.69227 151.182 4.09185C150.782 4.49143 150.24 4.71591 149.675 4.71591C149.11 4.71591 148.568 4.49143 148.169 4.09185C147.769 3.69227 147.544 3.15032 147.544 2.58523C147.544 2.02013 147.769 1.47819 148.169 1.07861C148.568 0.679026 149.11 0.454544 149.675 0.454544C150.24 0.454544 150.782 0.679026 151.182 1.07861C151.581 1.47819 151.806 2.02013 151.806 2.58523Z" fill="#283841"/>
</g>
<defs>
<clipPath id="clip0_124_537">
<rect width="150.852" height="34.0909" fill="white" transform="translate(0.953552 0.454544)"/>
</clipPath>
</defs>
</svg>
