<svg width="576" height="484" viewBox="0 0 576 484" fill="none" xmlns="http://www.w3.org/2000/svg">
<g clip-path="url(#clip0_124_114)">
<g clip-path="url(#clip1_124_114)">
<g clip-path="url(#clip2_124_114)">
<path d="M576 0.448608H0V483.231H576V0.448608Z" fill="#EFF6FF"/>
<g filter="url(#filter0_d_124_114)">
<path d="M468.87 83.2312H106.435C91.0669 83.2312 78.6087 95.6894 78.6087 111.057V371.927C78.6087 387.295 91.0669 399.753 106.435 399.753H468.87C484.237 399.753 496.696 387.295 496.696 371.927V111.057C496.696 95.6894 484.237 83.2312 468.87 83.2312Z" fill="white"/>
</g>
<path d="M146.94 130.661C146.871 130.013 146.579 129.509 146.065 129.148C145.556 128.788 144.895 128.608 144.079 128.608C143.506 128.608 143.014 128.694 142.605 128.867C142.194 129.04 141.88 129.274 141.663 129.571C141.446 129.868 141.335 130.206 141.329 130.586C141.329 130.903 141.401 131.177 141.544 131.409C141.693 131.641 141.893 131.839 142.145 132.002C142.397 132.16 142.676 132.293 142.982 132.402C143.288 132.511 143.597 132.602 143.909 132.676L145.331 133.032C145.905 133.166 146.456 133.346 146.984 133.573C147.518 133.8 147.994 134.087 148.415 134.433C148.84 134.778 149.176 135.196 149.423 135.685C149.67 136.175 149.793 136.748 149.793 137.404C149.793 138.294 149.566 139.077 149.111 139.754C148.657 140.426 147.999 140.952 147.14 141.333C146.285 141.708 145.25 141.896 144.035 141.896C142.854 141.896 141.829 141.713 140.959 141.347C140.095 140.981 139.418 140.448 138.929 139.747C138.445 139.045 138.182 138.191 138.143 137.183H140.848C140.888 137.711 141.05 138.151 141.337 138.501C141.624 138.852 141.997 139.114 142.456 139.287C142.92 139.46 143.439 139.546 144.013 139.546C144.61 139.546 145.134 139.457 145.583 139.28C146.038 139.097 146.394 138.845 146.651 138.524C146.908 138.197 147.039 137.817 147.043 137.382C147.039 136.987 146.922 136.661 146.695 136.404C146.468 136.143 146.15 135.925 145.739 135.752C145.334 135.574 144.86 135.416 144.317 135.278L142.589 134.833C141.34 134.512 140.351 134.025 139.625 133.373C138.904 132.716 138.543 131.844 138.543 130.757C138.543 129.863 138.785 129.08 139.27 128.408C139.759 127.736 140.423 127.215 141.263 126.844C142.103 126.468 143.054 126.281 144.116 126.281C145.193 126.281 146.137 126.468 146.947 126.844C147.763 127.215 148.402 127.731 148.867 128.393C149.331 129.05 149.571 129.806 149.585 130.661H146.94ZM157.81 130.282V132.357H151.266V130.282H157.81ZM152.881 127.555H155.565V138.242C155.565 138.603 155.619 138.879 155.727 139.072C155.841 139.26 155.99 139.388 156.173 139.457C156.355 139.527 156.557 139.561 156.78 139.561C156.948 139.561 157.101 139.549 157.24 139.524C157.383 139.5 157.491 139.477 157.565 139.457L158.017 141.555C157.874 141.604 157.67 141.658 157.402 141.718C157.141 141.777 156.819 141.812 156.439 141.822C155.767 141.841 155.162 141.74 154.623 141.518C154.085 141.29 153.657 140.94 153.341 140.465C153.03 139.991 152.877 139.398 152.881 138.687V127.555ZM164.971 141.889C163.83 141.889 162.844 141.651 162.014 141.177C161.189 140.698 160.554 140.021 160.109 139.146C159.665 138.267 159.442 137.232 159.442 136.041C159.442 134.87 159.665 133.843 160.109 132.958C160.559 132.069 161.186 131.377 161.992 130.883C162.797 130.384 163.743 130.134 164.83 130.134C165.532 130.134 166.194 130.248 166.816 130.475C167.443 130.698 167.997 131.043 168.477 131.513C168.961 131.983 169.341 132.58 169.617 133.306C169.894 134.028 170.033 134.888 170.033 135.885V136.708H160.702V134.899H167.461C167.456 134.386 167.345 133.929 167.128 133.529C166.91 133.123 166.607 132.805 166.216 132.572C165.831 132.34 165.381 132.225 164.867 132.225C164.319 132.225 163.837 132.357 163.422 132.625C163.007 132.886 162.683 133.232 162.451 133.662C162.224 134.087 162.108 134.554 162.103 135.063V136.641C162.103 137.304 162.224 137.871 162.466 138.346C162.708 138.815 163.046 139.176 163.481 139.428C163.916 139.675 164.425 139.798 165.008 139.798C165.398 139.798 165.752 139.744 166.067 139.635C166.384 139.522 166.658 139.356 166.89 139.139C167.123 138.922 167.298 138.652 167.416 138.331L169.921 138.613C169.763 139.274 169.462 139.852 169.018 140.347C168.577 140.836 168.015 141.217 167.328 141.488C166.641 141.755 165.855 141.889 164.971 141.889ZM172.303 145.935V130.282H174.941V132.165H175.096C175.235 131.889 175.43 131.594 175.682 131.283C175.934 130.967 176.275 130.698 176.705 130.475C177.135 130.248 177.683 130.134 178.35 130.134C179.229 130.134 180.022 130.359 180.729 130.809C181.44 131.253 182.003 131.913 182.419 132.787C182.838 133.657 183.048 134.724 183.048 135.989C183.048 137.239 182.843 138.301 182.433 139.176C182.023 140.051 181.465 140.717 180.758 141.177C180.052 141.636 179.251 141.866 178.357 141.866C177.705 141.866 177.164 141.757 176.734 141.54C176.305 141.322 175.958 141.061 175.697 140.755C175.44 140.443 175.24 140.149 175.096 139.873H174.985V145.935H172.303ZM174.934 135.974C174.934 136.71 175.037 137.355 175.245 137.909C175.457 138.462 175.761 138.895 176.156 139.205C176.557 139.512 177.041 139.665 177.608 139.665C178.202 139.665 178.698 139.507 179.098 139.191C179.498 138.869 179.8 138.433 180.003 137.879C180.21 137.321 180.314 136.686 180.314 135.974C180.314 135.268 180.212 134.641 180.01 134.092C179.807 133.544 179.506 133.114 179.105 132.803C178.705 132.491 178.207 132.335 177.608 132.335C177.036 132.335 176.549 132.486 176.149 132.787C175.748 133.089 175.445 133.512 175.237 134.055C175.034 134.598 174.934 135.238 174.934 135.974ZM195.94 141.873C194.873 141.873 193.924 141.691 193.094 141.325C192.269 140.959 191.617 140.451 191.137 139.798C190.658 139.146 190.404 138.393 190.374 137.538H193.161C193.185 137.948 193.322 138.306 193.569 138.613C193.816 138.914 194.144 139.148 194.554 139.317C194.964 139.484 195.424 139.569 195.933 139.569C196.476 139.569 196.958 139.475 197.377 139.287C197.798 139.094 198.126 138.828 198.363 138.487C198.6 138.146 198.717 137.753 198.712 137.308C198.717 136.849 198.598 136.444 198.356 136.093C198.114 135.742 197.763 135.468 197.304 135.27C196.849 135.073 196.301 134.974 195.658 134.974H194.317V132.854H195.658C196.187 132.854 196.649 132.763 197.044 132.58C197.444 132.397 197.758 132.14 197.985 131.809C198.213 131.473 198.324 131.085 198.319 130.645C198.324 130.216 198.227 129.843 198.03 129.527C197.837 129.205 197.563 128.956 197.207 128.778C196.856 128.6 196.444 128.511 195.969 128.511C195.505 128.511 195.075 128.595 194.68 128.763C194.285 128.931 193.966 129.171 193.724 129.482C193.482 129.788 193.354 130.154 193.338 130.579H190.693C190.713 129.729 190.957 128.983 191.427 128.341C191.901 127.694 192.534 127.189 193.324 126.829C194.114 126.463 195.001 126.281 195.985 126.281C196.998 126.281 197.877 126.471 198.623 126.851C199.374 127.227 199.954 127.733 200.365 128.371C200.774 129.008 200.979 129.712 200.979 130.483C200.984 131.338 200.733 132.054 200.223 132.632C199.72 133.21 199.057 133.588 198.237 133.765V133.884C199.304 134.033 200.122 134.428 200.691 135.07C201.263 135.708 201.548 136.501 201.543 137.449C201.543 138.299 201.301 139.06 200.817 139.731C200.337 140.399 199.675 140.922 198.831 141.303C197.99 141.683 197.027 141.873 195.94 141.873ZM210.312 125.777L205.421 143.948H203.071L207.962 125.777H210.312ZM211.72 138.85V136.664L218.16 126.488H219.983V129.601H218.872L214.536 136.471V136.589H223.526V138.85H211.72ZM218.961 141.666V138.183L218.99 137.205V126.488H221.584V141.666H218.961Z" fill="black"/>
<path d="M182.204 200.796V188.654H189.816V190.231H184.035V193.931H189.419V195.502H184.035V199.219H189.887V200.796H182.204ZM193.894 195.389V200.796H192.121V191.69H193.823V193.172H193.935C194.145 192.69 194.473 192.302 194.92 192.01C195.37 191.717 195.937 191.571 196.621 191.571C197.242 191.571 197.785 191.701 198.252 191.962C198.718 192.219 199.08 192.603 199.336 193.113C199.593 193.622 199.722 194.253 199.722 195.004V200.796H197.949V195.217C197.949 194.557 197.777 194.042 197.433 193.67C197.089 193.294 196.617 193.107 196.016 193.107C195.606 193.107 195.24 193.196 194.92 193.374C194.603 193.551 194.352 193.812 194.166 194.156C193.985 194.496 193.894 194.907 193.894 195.389ZM206.351 191.69V193.113H201.376V191.69H206.351ZM202.71 189.508H204.483V198.122C204.483 198.467 204.534 198.725 204.637 198.899C204.739 199.069 204.872 199.186 205.034 199.249C205.2 199.308 205.38 199.338 205.574 199.338C205.716 199.338 205.841 199.328 205.947 199.308C206.054 199.288 206.137 199.273 206.196 199.261L206.516 200.725C206.413 200.765 206.267 200.804 206.078 200.844C205.888 200.888 205.651 200.911 205.366 200.915C204.899 200.923 204.465 200.84 204.062 200.666C203.658 200.492 203.332 200.223 203.084 199.859C202.835 199.496 202.71 199.039 202.71 198.49V189.508ZM212.138 200.98C211.241 200.98 210.468 200.789 209.82 200.405C209.176 200.018 208.678 199.474 208.326 198.775C207.978 198.071 207.805 197.247 207.805 196.302C207.805 195.37 207.978 194.547 208.326 193.836C208.678 193.125 209.168 192.569 209.796 192.17C210.429 191.771 211.168 191.571 212.014 191.571C212.528 191.571 213.025 191.656 213.508 191.826C213.99 191.996 214.423 192.263 214.806 192.627C215.19 192.99 215.492 193.462 215.713 194.044C215.935 194.62 216.045 195.322 216.045 196.148V196.777H208.806V195.448H214.308C214.308 194.982 214.214 194.569 214.024 194.209C213.834 193.846 213.567 193.56 213.224 193.349C212.883 193.14 212.484 193.036 212.026 193.036C211.528 193.036 211.093 193.158 210.721 193.403C210.354 193.644 210.069 193.96 209.868 194.352C209.67 194.739 209.571 195.16 209.571 195.614V196.652C209.571 197.261 209.678 197.779 209.891 198.206C210.109 198.632 210.411 198.958 210.799 199.184C211.186 199.405 211.638 199.516 212.156 199.516C212.492 199.516 212.799 199.468 213.075 199.374C213.352 199.274 213.591 199.128 213.793 198.935C213.994 198.741 214.148 198.502 214.255 198.218L215.933 198.52C215.798 199.013 215.558 199.447 215.21 199.818C214.865 200.186 214.433 200.472 213.911 200.678C213.393 200.879 212.802 200.98 212.138 200.98ZM218.013 200.796V191.69H219.726V193.137H219.821C219.987 192.646 220.279 192.261 220.698 191.98C221.121 191.696 221.599 191.553 222.133 191.553C222.243 191.553 222.374 191.557 222.525 191.565C222.678 191.573 222.799 191.583 222.886 191.595V193.29C222.815 193.271 222.688 193.249 222.506 193.225C222.325 193.198 222.143 193.184 221.961 193.184C221.542 193.184 221.169 193.273 220.84 193.45C220.516 193.624 220.259 193.868 220.07 194.18C219.88 194.488 219.785 194.84 219.785 195.235V200.796H218.013ZM232.674 200.98C231.793 200.98 231.034 200.78 230.398 200.381C229.766 199.978 229.279 199.423 228.939 198.716C228.6 198.008 228.429 197.198 228.429 196.284C228.429 195.36 228.603 194.543 228.951 193.836C229.299 193.125 229.789 192.569 230.422 192.17C231.054 191.771 231.799 191.571 232.657 191.571C233.348 191.571 233.965 191.699 234.506 191.957C235.048 192.209 235.485 192.565 235.817 193.024C236.152 193.482 236.352 194.018 236.415 194.63H234.69C234.595 194.204 234.378 193.836 234.038 193.528C233.702 193.219 233.251 193.065 232.687 193.065C232.192 193.065 231.759 193.196 231.388 193.457C231.021 193.713 230.734 194.081 230.528 194.559C230.323 195.034 230.22 195.595 230.22 196.243C230.22 196.907 230.321 197.48 230.522 197.962C230.723 198.444 231.009 198.818 231.376 199.083C231.747 199.348 232.184 199.48 232.687 199.48C233.022 199.48 233.327 199.419 233.599 199.297C233.876 199.17 234.107 198.99 234.293 198.757C234.483 198.524 234.615 198.243 234.69 197.915H236.415C236.352 198.504 236.161 199.029 235.841 199.492C235.52 199.955 235.091 200.318 234.554 200.583C234.02 200.848 233.394 200.98 232.674 200.98ZM242.147 200.98C241.293 200.98 240.548 200.785 239.912 200.393C239.276 200.002 238.782 199.454 238.43 198.751C238.078 198.047 237.902 197.225 237.902 196.284C237.902 195.34 238.078 194.514 238.43 193.806C238.782 193.099 239.276 192.549 239.912 192.158C240.548 191.767 241.293 191.571 242.147 191.571C243.001 191.571 243.746 191.767 244.383 192.158C245.018 192.549 245.513 193.099 245.864 193.806C246.216 194.514 246.392 195.34 246.392 196.284C246.392 197.225 246.216 198.047 245.864 198.751C245.513 199.454 245.018 200.002 244.383 200.393C243.746 200.785 243.001 200.98 242.147 200.98ZM242.153 199.492C242.707 199.492 243.165 199.346 243.528 199.053C243.892 198.761 244.161 198.371 244.335 197.885C244.513 197.399 244.602 196.864 244.602 196.279C244.602 195.697 244.513 195.164 244.335 194.678C244.161 194.188 243.892 193.795 243.528 193.498C243.165 193.201 242.707 193.053 242.153 193.053C241.596 193.053 241.133 193.201 240.766 193.498C240.402 193.795 240.131 194.188 239.953 194.678C239.779 195.164 239.693 195.697 239.693 196.279C239.693 196.864 239.779 197.399 239.953 197.885C240.131 198.371 240.402 198.761 240.766 199.053C241.133 199.346 241.596 199.492 242.153 199.492ZM248.371 200.796V191.69H250.072V193.172H250.185C250.375 192.67 250.685 192.279 251.116 191.998C251.547 191.713 252.063 191.571 252.664 191.571C253.272 191.571 253.782 191.713 254.193 191.998C254.608 192.282 254.915 192.674 255.112 193.172H255.207C255.425 192.686 255.77 192.298 256.245 192.01C256.719 191.717 257.284 191.571 257.94 191.571C258.767 191.571 259.44 191.83 259.962 192.348C260.488 192.865 260.751 193.646 260.751 194.69V200.796H258.978V194.856C258.978 194.239 258.81 193.793 258.474 193.516C258.138 193.239 257.736 193.101 257.27 193.101C256.693 193.101 256.245 193.278 255.924 193.635C255.604 193.986 255.444 194.439 255.444 194.992V200.796H253.677V194.743C253.677 194.249 253.523 193.852 253.215 193.551C252.906 193.251 252.506 193.101 252.011 193.101C251.675 193.101 251.365 193.189 251.08 193.368C250.8 193.541 250.573 193.784 250.399 194.097C250.229 194.409 250.144 194.771 250.144 195.182V200.796H248.371ZM263.126 204.211V191.69H264.858V193.166H265.006C265.109 192.977 265.257 192.757 265.45 192.508C265.645 192.259 265.913 192.042 266.257 191.856C266.601 191.666 267.055 191.571 267.621 191.571C268.355 191.571 269.012 191.757 269.589 192.129C270.166 192.5 270.618 193.036 270.947 193.735C271.279 194.435 271.445 195.276 271.445 196.261C271.445 197.245 271.281 198.089 270.952 198.792C270.625 199.492 270.174 200.032 269.601 200.411C269.027 200.787 268.374 200.974 267.638 200.974C267.085 200.974 266.632 200.881 266.28 200.696C265.933 200.51 265.66 200.293 265.462 200.044C265.265 199.795 265.112 199.573 265.006 199.379H264.899V204.211H263.126ZM264.863 196.243C264.863 196.883 264.957 197.445 265.142 197.927C265.328 198.409 265.597 198.787 265.949 199.059C266.301 199.328 266.731 199.462 267.241 199.462C267.77 199.462 268.214 199.322 268.569 199.041C268.925 198.757 269.194 198.371 269.375 197.885C269.561 197.399 269.654 196.852 269.654 196.243C269.654 195.642 269.563 195.102 269.382 194.625C269.203 194.146 268.935 193.769 268.575 193.492C268.219 193.215 267.775 193.077 267.241 193.077C266.727 193.077 266.292 193.21 265.937 193.474C265.585 193.739 265.318 194.108 265.137 194.583C264.954 195.057 264.863 195.61 264.863 196.243ZM276.081 200.998C275.504 200.998 274.982 200.891 274.515 200.678C274.049 200.46 273.68 200.146 273.407 199.735C273.138 199.324 273.004 198.82 273.004 198.223C273.004 197.709 273.103 197.287 273.3 196.954C273.498 196.622 273.765 196.36 274.101 196.166C274.437 195.972 274.813 195.826 275.227 195.727C275.642 195.628 276.065 195.553 276.496 195.502C277.041 195.438 277.485 195.387 277.824 195.348C278.164 195.304 278.411 195.235 278.566 195.14C278.719 195.045 278.797 194.891 278.797 194.678V194.636C278.797 194.119 278.65 193.717 278.358 193.433C278.069 193.148 277.638 193.006 277.065 193.006C276.468 193.006 275.998 193.138 275.654 193.403C275.314 193.664 275.079 193.955 274.949 194.275L273.283 193.896C273.48 193.342 273.769 192.895 274.148 192.555C274.531 192.211 274.973 191.962 275.471 191.809C275.969 191.65 276.492 191.571 277.041 191.571C277.405 191.571 277.791 191.614 278.198 191.701C278.609 191.784 278.992 191.939 279.347 192.164C279.708 192.389 280.002 192.712 280.231 193.13C280.461 193.546 280.575 194.085 280.575 194.749V200.796H278.844V199.551H278.773C278.658 199.781 278.486 200.006 278.257 200.227C278.028 200.449 277.733 200.632 277.373 200.778C277.014 200.925 276.583 200.998 276.081 200.998ZM276.466 199.575C276.957 199.575 277.375 199.478 277.723 199.285C278.075 199.091 278.342 198.838 278.524 198.526C278.71 198.209 278.802 197.871 278.802 197.512V196.338C278.739 196.401 278.616 196.46 278.435 196.516C278.257 196.567 278.054 196.613 277.824 196.652C277.595 196.688 277.372 196.721 277.154 196.753C276.937 196.78 276.755 196.804 276.609 196.824C276.265 196.867 275.951 196.94 275.666 197.043C275.385 197.146 275.16 197.294 274.99 197.488C274.824 197.678 274.741 197.931 274.741 198.247C274.741 198.686 274.903 199.018 275.227 199.243C275.551 199.464 275.965 199.575 276.466 199.575ZM284.709 195.389V200.796H282.936V191.69H284.638V193.172H284.751C284.96 192.69 285.288 192.302 285.735 192.01C286.185 191.717 286.753 191.571 287.437 191.571C288.057 191.571 288.6 191.701 289.066 191.962C289.533 192.219 289.895 192.603 290.152 193.113C290.408 193.622 290.537 194.253 290.537 195.004V200.796H288.765V195.217C288.765 194.557 288.593 194.042 288.248 193.67C287.905 193.294 287.432 193.107 286.831 193.107C286.42 193.107 286.055 193.196 285.735 193.374C285.418 193.551 285.167 193.812 284.982 194.156C284.8 194.496 284.709 194.907 284.709 195.389ZM293.709 204.211C293.444 204.211 293.203 204.19 292.986 204.146C292.768 204.107 292.606 204.063 292.499 204.016L292.927 202.563C293.251 202.65 293.539 202.688 293.792 202.676C294.045 202.664 294.269 202.569 294.462 202.392C294.659 202.213 294.833 201.923 294.984 201.52L295.203 200.915L291.871 191.69H293.768L296.074 198.757H296.17L298.476 191.69H300.379L296.626 202.012C296.452 202.486 296.231 202.888 295.962 203.215C295.693 203.548 295.373 203.797 295.002 203.962C294.63 204.129 294.199 204.211 293.709 204.211ZM309.873 200.974C309.137 200.974 308.481 200.787 307.904 200.411C307.331 200.032 306.881 199.492 306.552 198.792C306.228 198.089 306.066 197.245 306.066 196.261C306.066 195.276 306.23 194.435 306.559 193.735C306.89 193.036 307.345 192.5 307.922 192.129C308.499 191.757 309.153 191.571 309.885 191.571C310.449 191.571 310.904 191.666 311.248 191.856C311.596 192.042 311.864 192.259 312.054 192.508C312.248 192.757 312.398 192.977 312.505 193.166H312.611V188.654H314.385V200.796H312.653V199.379H312.505C312.398 199.573 312.244 199.795 312.042 200.044C311.845 200.293 311.572 200.51 311.224 200.696C310.877 200.881 310.426 200.974 309.873 200.974ZM310.264 199.462C310.774 199.462 311.205 199.328 311.556 199.059C311.912 198.787 312.181 198.409 312.362 197.927C312.548 197.445 312.641 196.883 312.641 196.243C312.641 195.61 312.55 195.057 312.369 194.583C312.186 194.108 311.92 193.739 311.568 193.474C311.217 193.21 310.782 193.077 310.264 193.077C309.73 193.077 309.286 193.215 308.93 193.492C308.574 193.769 308.305 194.146 308.124 194.625C307.946 195.102 307.857 195.642 307.857 196.243C307.857 196.852 307.948 197.399 308.129 197.885C308.311 198.371 308.58 198.757 308.936 199.041C309.295 199.322 309.738 199.462 310.264 199.462ZM320.84 200.98C319.942 200.98 319.169 200.789 318.521 200.405C317.877 200.018 317.379 199.474 317.027 198.775C316.68 198.071 316.506 197.247 316.506 196.302C316.506 195.37 316.68 194.547 317.027 193.836C317.379 193.125 317.869 192.569 318.497 192.17C319.13 191.771 319.869 191.571 320.715 191.571C321.229 191.571 321.727 191.656 322.209 191.826C322.691 191.996 323.124 192.263 323.507 192.627C323.891 192.99 324.193 193.462 324.415 194.044C324.636 194.62 324.746 195.322 324.746 196.148V196.777H317.507V195.448H323.009C323.009 194.982 322.915 194.569 322.725 194.209C322.535 193.846 322.269 193.56 321.924 193.349C321.585 193.14 321.185 193.036 320.727 193.036C320.229 193.036 319.794 193.158 319.423 193.403C319.055 193.644 318.77 193.96 318.568 194.352C318.371 194.739 318.272 195.16 318.272 195.614V196.652C318.272 197.261 318.379 197.779 318.593 198.206C318.81 198.632 319.112 198.958 319.5 199.184C319.887 199.405 320.339 199.516 320.857 199.516C321.193 199.516 321.5 199.468 321.776 199.374C322.053 199.274 322.292 199.128 322.494 198.935C322.695 198.741 322.849 198.502 322.956 198.218L324.634 198.52C324.499 199.013 324.258 199.447 323.91 199.818C323.567 200.186 323.134 200.472 322.612 200.678C322.095 200.879 321.503 200.98 320.84 200.98ZM330.964 191.69V193.113H325.99V191.69H330.964ZM327.324 189.508H329.097V198.122C329.097 198.467 329.149 198.725 329.251 198.899C329.354 199.069 329.486 199.186 329.648 199.249C329.814 199.308 329.994 199.338 330.188 199.338C330.33 199.338 330.454 199.328 330.561 199.308C330.668 199.288 330.751 199.273 330.81 199.261L331.13 200.725C331.027 200.765 330.881 200.804 330.691 200.844C330.502 200.888 330.265 200.911 329.98 200.915C329.514 200.923 329.079 200.84 328.676 200.666C328.273 200.492 327.946 200.223 327.697 199.859C327.448 199.496 327.324 199.039 327.324 198.49V189.508ZM335.576 200.998C334.998 200.998 334.477 200.891 334.01 200.678C333.544 200.46 333.174 200.146 332.902 199.735C332.633 199.324 332.499 198.82 332.499 198.223C332.499 197.709 332.598 197.287 332.795 196.954C332.993 196.622 333.259 196.36 333.595 196.166C333.931 195.972 334.307 195.826 334.722 195.727C335.137 195.628 335.56 195.553 335.991 195.502C336.536 195.438 336.979 195.387 337.319 195.348C337.658 195.304 337.905 195.235 338.06 195.14C338.214 195.045 338.291 194.891 338.291 194.678V194.636C338.291 194.119 338.145 193.717 337.853 193.433C337.564 193.148 337.133 193.006 336.56 193.006C335.963 193.006 335.493 193.138 335.149 193.403C334.809 193.664 334.574 193.955 334.443 194.275L332.777 193.896C332.975 193.342 333.263 192.895 333.643 192.555C334.026 192.211 334.467 191.962 334.965 191.809C335.463 191.65 335.987 191.571 336.536 191.571C336.899 191.571 337.285 191.614 337.693 191.701C338.103 191.784 338.487 191.939 338.842 192.164C339.202 192.389 339.496 192.712 339.726 193.13C339.955 193.546 340.07 194.085 340.07 194.749V200.796H338.339V199.551H338.267C338.152 199.781 337.981 200.006 337.752 200.227C337.522 200.449 337.228 200.632 336.868 200.778C336.508 200.925 336.078 200.998 335.576 200.998ZM335.961 199.575C336.451 199.575 336.87 199.478 337.218 199.285C337.569 199.091 337.837 198.838 338.018 198.526C338.204 198.209 338.297 197.871 338.297 197.512V196.338C338.234 196.401 338.111 196.46 337.929 196.516C337.752 196.567 337.548 196.613 337.319 196.652C337.089 196.688 336.866 196.721 336.649 196.753C336.431 196.78 336.25 196.804 336.103 196.824C335.759 196.867 335.445 196.94 335.16 197.043C334.88 197.146 334.655 197.294 334.485 197.488C334.319 197.678 334.236 197.931 334.236 198.247C334.236 198.686 334.398 199.018 334.722 199.243C335.046 199.464 335.459 199.575 335.961 199.575ZM342.431 200.796V191.69H344.204V200.796H342.431ZM343.326 190.284C343.018 190.284 342.753 190.181 342.531 189.976C342.314 189.767 342.205 189.518 342.205 189.229C342.205 188.937 342.314 188.688 342.531 188.482C342.753 188.273 343.018 188.168 343.326 188.168C343.634 188.168 343.897 188.273 344.115 188.482C344.336 188.688 344.447 188.937 344.447 189.229C344.447 189.518 344.336 189.767 344.115 189.976C343.897 190.181 343.634 190.284 343.326 190.284ZM348.361 188.654V200.796H346.589V188.654H348.361ZM357.57 193.913L355.963 194.197C355.896 193.992 355.789 193.796 355.643 193.61C355.501 193.425 355.307 193.273 355.062 193.154C354.817 193.036 354.511 192.977 354.143 192.977C353.641 192.977 353.222 193.089 352.886 193.314C352.55 193.535 352.383 193.822 352.383 194.174C352.383 194.478 352.495 194.723 352.721 194.909C352.945 195.095 353.309 195.247 353.811 195.365L355.258 195.697C356.096 195.891 356.721 196.19 357.131 196.593C357.542 196.996 357.748 197.52 357.748 198.164C357.748 198.709 357.59 199.196 357.274 199.622C356.961 200.045 356.525 200.378 355.963 200.618C355.406 200.86 354.76 200.98 354.025 200.98C353.005 200.98 352.173 200.763 351.528 200.328C350.884 199.889 350.489 199.267 350.343 198.46L352.056 198.2C352.163 198.646 352.383 198.984 352.714 199.213C353.046 199.438 353.479 199.551 354.013 199.551C354.594 199.551 355.058 199.431 355.406 199.189C355.754 198.945 355.928 198.646 355.928 198.294C355.928 198.01 355.821 197.771 355.608 197.577C355.398 197.384 355.076 197.237 354.641 197.138L353.1 196.801C352.25 196.606 351.622 196.298 351.215 195.875C350.811 195.452 350.609 194.917 350.609 194.268C350.609 193.731 350.76 193.261 351.06 192.858C351.361 192.455 351.776 192.14 352.305 191.915C352.835 191.685 353.441 191.571 354.125 191.571C355.11 191.571 355.885 191.784 356.449 192.211C357.015 192.634 357.389 193.201 357.57 193.913Z" fill="#111827"/>
<path d="M149.565 205.666C155.712 205.666 160.696 200.683 160.696 194.536C160.696 188.388 155.712 183.405 149.565 183.405C143.418 183.405 138.435 188.388 138.435 194.536C138.435 200.683 143.418 205.666 149.565 205.666Z" fill="#4ADE80"/>
<path d="M144.696 195.231L147.478 198.014L154.435 191.057" stroke="white" stroke-width="1.3913" stroke-linecap="round" stroke-linejoin="round"/>
<path d="M183.265 237.35L186.644 247.239H186.781L190.16 237.35H192.141L187.77 249.492H185.654L181.285 237.35H183.265ZM196.763 249.676C195.866 249.676 195.094 249.485 194.445 249.101C193.801 248.714 193.303 248.17 192.951 247.471C192.603 246.767 192.429 245.943 192.429 244.998C192.429 244.065 192.603 243.243 192.951 242.531C193.303 241.821 193.793 241.265 194.422 240.865C195.054 240.467 195.793 240.267 196.639 240.267C197.153 240.267 197.651 240.352 198.133 240.522C198.615 240.691 199.048 240.959 199.432 241.322C199.815 241.686 200.117 242.158 200.339 242.739C200.56 243.316 200.671 244.018 200.671 244.844V245.473H193.432V244.144H198.934C198.934 243.678 198.838 243.265 198.649 242.905C198.459 242.542 198.192 242.255 197.848 242.045C197.508 241.836 197.109 241.731 196.65 241.731C196.152 241.731 195.718 241.854 195.346 242.099C194.979 242.34 194.694 242.656 194.493 243.048C194.295 243.435 194.196 243.856 194.196 244.31V245.348C194.196 245.957 194.303 246.474 194.516 246.902C194.734 247.328 195.036 247.654 195.423 247.88C195.811 248.101 196.264 248.211 196.781 248.211C197.117 248.211 197.423 248.164 197.7 248.07C197.977 247.97 198.216 247.824 198.417 247.631C198.619 247.437 198.774 247.198 198.88 246.913L200.558 247.215C200.424 247.709 200.182 248.143 199.834 248.514C199.491 248.881 199.058 249.168 198.536 249.374C198.018 249.575 197.427 249.676 196.763 249.676ZM202.637 249.492V240.385H204.351V241.832H204.446C204.611 241.342 204.904 240.957 205.323 240.676C205.746 240.392 206.224 240.249 206.758 240.249C206.869 240.249 206.999 240.253 207.149 240.261C207.304 240.269 207.424 240.279 207.511 240.291V241.986C207.44 241.967 207.313 241.945 207.131 241.921C206.95 241.894 206.768 241.88 206.586 241.88C206.167 241.88 205.793 241.969 205.466 242.146C205.142 242.32 204.884 242.563 204.695 242.876C204.505 243.184 204.41 243.535 204.41 243.931V249.492H202.637ZM209.045 249.492V240.385H210.817V249.492H209.045ZM209.94 238.98C209.632 238.98 209.367 238.877 209.146 238.672C208.929 238.463 208.819 238.214 208.819 237.925C208.819 237.633 208.929 237.384 209.146 237.178C209.367 236.968 209.632 236.864 209.94 236.864C210.248 236.864 210.511 236.968 210.729 237.178C210.95 237.384 211.061 237.633 211.061 237.925C211.061 238.214 210.95 238.463 210.729 238.672C210.511 238.877 210.248 238.98 209.94 238.98ZM217.537 240.385V241.809H212.39V240.385H217.537ZM213.801 249.492V239.33C213.801 238.761 213.926 238.289 214.175 237.913C214.424 237.534 214.754 237.251 215.165 237.065C215.576 236.876 216.023 236.781 216.505 236.781C216.861 236.781 217.165 236.81 217.418 236.87C217.671 236.925 217.859 236.977 217.981 237.024L217.566 238.458C217.483 238.435 217.377 238.407 217.246 238.376C217.116 238.34 216.957 238.322 216.771 238.322C216.341 238.322 216.033 238.429 215.847 238.642C215.665 238.856 215.574 239.164 215.574 239.567V249.492H213.801ZM220.486 252.907C220.221 252.907 219.981 252.886 219.763 252.842C219.546 252.803 219.384 252.759 219.277 252.712L219.704 251.259C220.028 251.346 220.317 251.384 220.569 251.372C220.822 251.36 221.046 251.265 221.239 251.087C221.437 250.909 221.61 250.618 221.761 250.216L221.98 249.61L218.648 240.385H220.545L222.851 247.453H222.947L225.253 240.385H227.156L223.403 250.707C223.229 251.182 223.008 251.583 222.739 251.911C222.47 252.243 222.15 252.493 221.779 252.658C221.407 252.824 220.976 252.907 220.486 252.907ZM236.65 249.67C235.914 249.67 235.258 249.482 234.681 249.107C234.109 248.728 233.658 248.188 233.329 247.488C233.005 246.785 232.843 245.941 232.843 244.957C232.843 243.972 233.007 243.13 233.336 242.431C233.667 241.731 234.122 241.196 234.699 240.824C235.277 240.453 235.93 240.267 236.662 240.267C237.226 240.267 237.681 240.362 238.025 240.552C238.373 240.737 238.642 240.954 238.831 241.203C239.025 241.453 239.176 241.672 239.282 241.862H239.389V237.35H241.162V249.492H239.43V248.075H239.282C239.176 248.269 239.021 248.49 238.819 248.739C238.622 248.989 238.349 249.206 238.001 249.391C237.654 249.577 237.203 249.67 236.65 249.67ZM237.041 248.158C237.551 248.158 237.982 248.024 238.333 247.755C238.689 247.482 238.958 247.105 239.139 246.623C239.326 246.141 239.418 245.579 239.418 244.939C239.418 244.306 239.327 243.753 239.146 243.279C238.964 242.804 238.697 242.435 238.345 242.17C237.994 241.905 237.559 241.773 237.041 241.773C236.507 241.773 236.063 241.911 235.707 242.188C235.351 242.465 235.082 242.842 234.901 243.32C234.723 243.798 234.634 244.338 234.634 244.939C234.634 245.548 234.725 246.095 234.906 246.581C235.089 247.067 235.357 247.453 235.713 247.737C236.072 248.018 236.515 248.158 237.041 248.158ZM243.692 249.492V240.385H245.464V249.492H243.692ZM244.587 238.98C244.279 238.98 244.014 238.877 243.793 238.672C243.575 238.463 243.466 238.214 243.466 237.925C243.466 237.633 243.575 237.384 243.793 237.178C244.014 236.968 244.279 236.864 244.587 236.864C244.895 236.864 245.158 236.968 245.375 237.178C245.597 237.384 245.708 237.633 245.708 237.925C245.708 238.214 245.597 238.463 245.375 238.672C245.158 238.877 244.895 238.98 244.587 238.98ZM247.849 249.492V240.385H249.562V241.832H249.658C249.823 241.342 250.116 240.957 250.535 240.676C250.958 240.392 251.437 240.249 251.97 240.249C252.081 240.249 252.211 240.253 252.361 240.261C252.515 240.269 252.636 240.279 252.723 240.291V241.986C252.652 241.967 252.525 241.945 252.344 241.921C252.161 241.894 251.98 241.88 251.798 241.88C251.379 241.88 251.005 241.969 250.678 242.146C250.353 242.32 250.096 242.563 249.907 242.876C249.717 243.184 249.622 243.535 249.622 243.931V249.492H247.849ZM257.856 249.676C256.959 249.676 256.186 249.485 255.537 249.101C254.893 248.714 254.395 248.17 254.044 247.471C253.696 246.767 253.522 245.943 253.522 244.998C253.522 244.065 253.696 243.243 254.044 242.531C254.395 241.821 254.886 241.265 255.514 240.865C256.146 240.467 256.886 240.267 257.731 240.267C258.245 240.267 258.743 240.352 259.225 240.522C259.708 240.691 260.141 240.959 260.524 241.322C260.907 241.686 261.21 242.158 261.431 242.739C261.652 243.316 261.763 244.018 261.763 244.844V245.473H254.524V244.144H260.026C260.026 243.678 259.931 243.265 259.741 242.905C259.551 242.542 259.285 242.255 258.94 242.045C258.601 241.836 258.202 241.731 257.743 241.731C257.245 241.731 256.81 241.854 256.439 242.099C256.071 242.34 255.786 242.656 255.585 243.048C255.387 243.435 255.288 243.856 255.288 244.31V245.348C255.288 245.957 255.395 246.474 255.609 246.902C255.826 247.328 256.129 247.654 256.515 247.88C256.903 248.101 257.356 248.211 257.873 248.211C258.209 248.211 258.515 248.164 258.792 248.07C259.069 247.97 259.309 247.824 259.51 247.631C259.711 247.437 259.866 247.198 259.972 246.913L261.65 247.215C261.516 247.709 261.274 248.143 260.927 248.514C260.583 248.881 260.15 249.168 259.629 249.374C259.111 249.575 258.52 249.676 257.856 249.676ZM267.566 249.676C266.685 249.676 265.926 249.476 265.289 249.077C264.657 248.674 264.17 248.119 263.83 247.411C263.491 246.703 263.32 245.894 263.32 244.98C263.32 244.056 263.494 243.239 263.842 242.531C264.19 241.821 264.68 241.265 265.313 240.865C265.945 240.467 266.69 240.267 267.548 240.267C268.239 240.267 268.856 240.395 269.398 240.653C269.939 240.905 270.376 241.261 270.708 241.72C271.044 242.178 271.244 242.714 271.307 243.326H269.581C269.487 242.899 269.27 242.531 268.929 242.223C268.593 241.915 268.143 241.761 267.578 241.761C267.084 241.761 266.65 241.891 266.279 242.152C265.912 242.409 265.625 242.777 265.419 243.255C265.214 243.729 265.111 244.291 265.111 244.939C265.111 245.603 265.212 246.176 265.414 246.658C265.615 247.14 265.9 247.514 266.267 247.779C266.639 248.044 267.075 248.176 267.578 248.176C267.914 248.176 268.218 248.115 268.49 247.992C268.767 247.866 268.998 247.686 269.184 247.453C269.374 247.219 269.506 246.939 269.581 246.611H271.307C271.244 247.2 271.052 247.725 270.732 248.188C270.412 248.65 269.983 249.014 269.445 249.279C268.911 249.544 268.285 249.676 267.566 249.676ZM277.453 240.385V241.809H272.479V240.385H277.453ZM273.814 238.204H275.586V246.818C275.586 247.162 275.638 247.421 275.74 247.595C275.843 247.765 275.975 247.882 276.137 247.945C276.303 248.004 276.483 248.033 276.677 248.033C276.819 248.033 276.944 248.024 277.05 248.004C277.157 247.984 277.24 247.969 277.299 247.957L277.619 249.421C277.517 249.461 277.37 249.5 277.181 249.539C276.991 249.583 276.754 249.607 276.47 249.61C276.003 249.619 275.568 249.535 275.165 249.361C274.762 249.187 274.435 248.919 274.186 248.555C273.938 248.192 273.814 247.735 273.814 247.186V238.204ZM283.153 249.676C282.299 249.676 281.554 249.48 280.918 249.089C280.281 248.698 279.787 248.15 279.435 247.447C279.084 246.743 278.908 245.921 278.908 244.98C278.908 244.035 279.084 243.21 279.435 242.502C279.787 241.795 280.281 241.245 280.918 240.854C281.554 240.463 282.299 240.267 283.153 240.267C284.006 240.267 284.751 240.463 285.388 240.854C286.024 241.245 286.518 241.795 286.87 242.502C287.222 243.21 287.398 244.035 287.398 244.98C287.398 245.921 287.222 246.743 286.87 247.447C286.518 248.15 286.024 248.698 285.388 249.089C284.751 249.48 284.006 249.676 283.153 249.676ZM283.158 248.188C283.712 248.188 284.17 248.042 284.534 247.749C284.897 247.457 285.167 247.067 285.341 246.581C285.519 246.095 285.607 245.56 285.607 244.975C285.607 244.393 285.519 243.859 285.341 243.374C285.167 242.883 284.897 242.49 284.534 242.194C284.17 241.897 283.712 241.749 283.158 241.749C282.601 241.749 282.139 241.897 281.771 242.194C281.407 242.49 281.137 242.883 280.959 243.374C280.785 243.859 280.698 244.393 280.698 244.975C280.698 245.56 280.785 246.095 280.959 246.581C281.137 247.067 281.407 247.457 281.771 247.749C282.139 248.042 282.601 248.188 283.158 248.188ZM289.377 249.492V240.385H291.09V241.832H291.185C291.351 241.342 291.643 240.957 292.062 240.676C292.485 240.392 292.963 240.249 293.497 240.249C293.608 240.249 293.738 240.253 293.888 240.261C294.042 240.269 294.163 240.279 294.25 240.291V241.986C294.179 241.967 294.052 241.945 293.871 241.921C293.689 241.894 293.507 241.88 293.325 241.88C292.906 241.88 292.533 241.969 292.205 242.146C291.88 242.32 291.624 242.563 291.434 242.876C291.244 243.184 291.149 243.535 291.149 243.931V249.492H289.377ZM302.608 242.609L301.002 242.893C300.934 242.688 300.828 242.492 300.681 242.306C300.539 242.12 300.345 241.969 300.1 241.85C299.855 241.731 299.549 241.672 299.181 241.672C298.68 241.672 298.26 241.784 297.924 242.01C297.588 242.231 297.421 242.518 297.421 242.87C297.421 243.174 297.533 243.419 297.759 243.605C297.984 243.791 298.347 243.943 298.849 244.061L300.296 244.393C301.134 244.587 301.759 244.886 302.17 245.288C302.581 245.692 302.786 246.216 302.786 246.86C302.786 247.405 302.628 247.891 302.312 248.318C301.999 248.741 301.562 249.073 301.002 249.314C300.444 249.555 299.798 249.676 299.063 249.676C298.043 249.676 297.211 249.459 296.567 249.024C295.922 248.585 295.527 247.962 295.381 247.156L297.094 246.895C297.201 247.342 297.421 247.68 297.752 247.909C298.084 248.134 298.518 248.247 299.051 248.247C299.632 248.247 300.096 248.127 300.444 247.885C300.792 247.64 300.966 247.342 300.966 246.99C300.966 246.705 300.859 246.467 300.646 246.273C300.436 246.079 300.114 245.933 299.679 245.834L298.138 245.496C297.288 245.302 296.659 244.994 296.253 244.571C295.849 244.148 295.648 243.613 295.648 242.964C295.648 242.427 295.798 241.957 296.098 241.553C296.399 241.151 296.814 240.836 297.343 240.611C297.873 240.381 298.48 240.267 299.164 240.267C300.147 240.267 300.922 240.48 301.487 240.907C302.053 241.33 302.426 241.897 302.608 242.609Z" fill="#111827"/>
<path d="M149.565 254.362C155.712 254.362 160.696 249.378 160.696 243.231C160.696 237.084 155.712 232.101 149.565 232.101C143.418 232.101 138.435 237.084 138.435 243.231C138.435 249.378 143.418 254.362 149.565 254.362Z" fill="#4ADE80"/>
<path d="M144.696 243.927L147.478 246.709L154.435 239.753" stroke="white" stroke-width="1.3913" stroke-linecap="round" stroke-linejoin="round"/>
<path d="M182.204 298.188V286.045H186.531C187.476 286.045 188.259 286.218 188.879 286.561C189.5 286.905 189.965 287.375 190.273 287.972C190.581 288.565 190.735 289.233 190.735 289.976C190.735 290.723 190.579 291.395 190.267 291.992C189.958 292.585 189.492 293.055 188.867 293.403C188.247 293.747 187.466 293.919 186.526 293.919H183.549V292.366H186.36C186.957 292.366 187.441 292.263 187.812 292.058C188.184 291.848 188.456 291.563 188.63 291.203C188.804 290.844 188.891 290.435 188.891 289.976C188.891 289.518 188.804 289.111 188.63 288.755C188.456 288.399 188.182 288.12 187.807 287.919C187.435 287.718 186.945 287.617 186.336 287.617H184.035V298.188H182.204ZM192.741 298.188V289.081H194.454V290.528H194.549C194.715 290.038 195.007 289.652 195.426 289.372C195.849 289.087 196.328 288.945 196.861 288.945C196.972 288.945 197.103 288.949 197.252 288.956C197.407 288.964 197.527 288.975 197.614 288.986V290.682C197.543 290.662 197.416 290.641 197.235 290.616C197.053 290.589 196.871 290.575 196.689 290.575C196.27 290.575 195.897 290.664 195.569 290.842C195.245 291.016 194.988 291.259 194.798 291.571C194.608 291.88 194.513 292.231 194.513 292.627V298.188H192.741ZM202.658 298.371C201.805 298.371 201.059 298.176 200.423 297.784C199.786 297.393 199.293 296.846 198.941 296.143C198.589 295.439 198.413 294.616 198.413 293.676C198.413 292.731 198.589 291.905 198.941 291.198C199.293 290.49 199.786 289.941 200.423 289.549C201.059 289.158 201.805 288.963 202.658 288.963C203.512 288.963 204.257 289.158 204.893 289.549C205.53 289.941 206.024 290.49 206.376 291.198C206.727 291.905 206.903 292.731 206.903 293.676C206.903 294.616 206.727 295.439 206.376 296.143C206.024 296.846 205.53 297.393 204.893 297.784C204.257 298.176 203.512 298.371 202.658 298.371ZM202.664 296.883C203.217 296.883 203.676 296.737 204.04 296.444C204.403 296.152 204.672 295.763 204.846 295.276C205.024 294.79 205.112 294.255 205.112 293.67C205.112 293.089 205.024 292.555 204.846 292.069C204.672 291.579 204.403 291.186 204.04 290.89C203.676 290.593 203.217 290.444 202.664 290.444C202.106 290.444 201.645 290.593 201.277 290.89C200.913 291.186 200.642 291.579 200.465 292.069C200.291 292.555 200.204 293.089 200.204 293.67C200.204 294.255 200.291 294.79 200.465 295.276C200.642 295.763 200.913 296.152 201.277 296.444C201.645 296.737 202.106 296.883 202.664 296.883ZM212.718 298.371C211.837 298.371 211.078 298.172 210.441 297.772C209.809 297.37 209.322 296.815 208.983 296.107C208.643 295.399 208.473 294.589 208.473 293.676C208.473 292.751 208.647 291.935 208.995 291.227C209.343 290.516 209.832 289.96 210.465 289.561C211.097 289.162 211.842 288.963 212.7 288.963C213.392 288.963 214.008 289.091 214.55 289.348C215.091 289.601 215.528 289.957 215.86 290.415C216.196 290.874 216.396 291.409 216.459 292.021H214.734C214.639 291.595 214.422 291.227 214.081 290.919C213.745 290.611 213.295 290.456 212.73 290.456C212.236 290.456 211.803 290.587 211.432 290.848C211.064 291.105 210.777 291.473 210.572 291.951C210.366 292.425 210.264 292.986 210.264 293.635C210.264 294.298 210.364 294.872 210.566 295.354C210.767 295.836 211.052 296.209 211.419 296.474C211.791 296.739 212.227 296.872 212.73 296.872C213.066 296.872 213.37 296.81 213.643 296.688C213.919 296.561 214.151 296.381 214.337 296.148C214.526 295.915 214.659 295.635 214.734 295.306H216.459C216.396 295.896 216.204 296.421 215.884 296.883C215.564 297.346 215.135 297.709 214.598 297.974C214.064 298.239 213.437 298.371 212.718 298.371ZM222.28 298.371C221.382 298.371 220.609 298.18 219.962 297.797C219.317 297.409 218.819 296.865 218.467 296.166C218.12 295.462 217.946 294.639 217.946 293.694C217.946 292.761 218.12 291.939 218.467 291.227C218.819 290.516 219.309 289.96 219.938 289.561C220.57 289.162 221.309 288.963 222.155 288.963C222.669 288.963 223.167 289.048 223.649 289.217C224.131 289.387 224.564 289.654 224.947 290.018C225.331 290.381 225.633 290.853 225.855 291.435C226.076 292.012 226.186 292.714 226.186 293.539V294.168H218.947V292.84H224.449C224.449 292.374 224.355 291.96 224.165 291.601C223.975 291.237 223.709 290.951 223.365 290.741C223.025 290.531 222.625 290.427 222.167 290.427C221.669 290.427 221.234 290.55 220.863 290.794C220.495 291.036 220.211 291.352 220.009 291.743C219.811 292.131 219.713 292.552 219.713 293.006V294.044C219.713 294.652 219.819 295.17 220.033 295.597C220.25 296.024 220.552 296.35 220.94 296.575C221.327 296.796 221.779 296.907 222.298 296.907C222.634 296.907 222.94 296.86 223.217 296.765C223.493 296.666 223.732 296.52 223.934 296.326C224.136 296.132 224.289 295.893 224.397 295.609L226.074 295.911C225.939 296.405 225.699 296.838 225.351 297.21C225.007 297.577 224.574 297.864 224.052 298.069C223.535 298.271 222.944 298.371 222.28 298.371ZM234.978 291.304L233.371 291.589C233.304 291.384 233.197 291.187 233.051 291.002C232.909 290.816 232.715 290.664 232.47 290.545C232.225 290.427 231.919 290.368 231.551 290.368C231.049 290.368 230.63 290.48 230.294 290.705C229.958 290.927 229.79 291.213 229.79 291.565C229.79 291.87 229.903 292.115 230.128 292.3C230.353 292.486 230.717 292.639 231.219 292.757L232.666 293.089C233.503 293.283 234.128 293.581 234.539 293.984C234.95 294.387 235.155 294.911 235.155 295.555C235.155 296.101 234.998 296.587 234.681 297.014C234.369 297.436 233.933 297.769 233.371 298.01C232.814 298.251 232.168 298.371 231.432 298.371C230.413 298.371 229.581 298.154 228.936 297.72C228.292 297.281 227.897 296.658 227.75 295.852L229.464 295.591C229.571 296.037 229.79 296.376 230.122 296.604C230.454 296.83 230.887 296.943 231.421 296.943C232.001 296.943 232.466 296.822 232.814 296.581C233.162 296.336 233.336 296.038 233.336 295.686C233.336 295.401 233.229 295.162 233.016 294.968C232.806 294.775 232.483 294.629 232.049 294.529L230.507 294.192C229.658 293.998 229.029 293.69 228.622 293.267C228.219 292.844 228.017 292.308 228.017 291.66C228.017 291.123 228.168 290.652 228.468 290.249C228.768 289.846 229.183 289.532 229.713 289.306C230.243 289.077 230.849 288.963 231.533 288.963C232.518 288.963 233.292 289.176 233.857 289.603C234.422 290.026 234.796 290.593 234.978 291.304ZM243.929 291.304L242.322 291.589C242.255 291.384 242.148 291.187 242.002 291.002C241.859 290.816 241.666 290.664 241.421 290.545C241.176 290.427 240.87 290.368 240.502 290.368C240 290.368 239.581 290.48 239.245 290.705C238.909 290.927 238.741 291.213 238.741 291.565C238.741 291.87 238.854 292.115 239.079 292.3C239.304 292.486 239.668 292.639 240.17 292.757L241.617 293.089C242.454 293.283 243.079 293.581 243.49 293.984C243.901 294.387 244.106 294.911 244.106 295.555C244.106 296.101 243.949 296.587 243.633 297.014C243.32 297.436 242.883 297.769 242.322 298.01C241.765 298.251 241.119 298.371 240.383 298.371C239.363 298.371 238.531 298.154 237.887 297.72C237.243 297.281 236.848 296.658 236.702 295.852L238.415 295.591C238.522 296.037 238.741 296.376 239.073 296.604C239.405 296.83 239.838 296.943 240.371 296.943C240.952 296.943 241.417 296.822 241.765 296.581C242.113 296.336 242.287 296.038 242.287 295.686C242.287 295.401 242.18 295.162 241.967 294.968C241.757 294.775 241.434 294.629 241 294.529L239.459 294.192C238.609 293.998 237.981 293.69 237.573 293.267C237.17 292.844 236.968 292.308 236.968 291.66C236.968 291.123 237.119 290.652 237.419 290.249C237.72 289.846 238.134 289.532 238.664 289.306C239.194 289.077 239.8 288.963 240.484 288.963C241.469 288.963 242.243 289.176 242.808 289.603C243.373 290.026 243.747 290.593 243.929 291.304ZM246.056 298.188V289.081H247.829V298.188H246.056ZM246.951 287.676C246.643 287.676 246.378 287.573 246.157 287.368C245.939 287.158 245.83 286.909 245.83 286.62C245.83 286.328 245.939 286.079 246.157 285.873C246.378 285.664 246.643 285.56 246.951 285.56C247.259 285.56 247.522 285.664 247.74 285.873C247.961 286.079 248.072 286.328 248.072 286.62C248.072 286.909 247.961 287.158 247.74 287.368C247.522 287.573 247.259 287.676 246.951 287.676ZM251.986 292.78V298.188H250.214V289.081H251.915V290.563H252.028C252.237 290.081 252.566 289.694 253.012 289.401C253.462 289.109 254.03 288.963 254.714 288.963C255.334 288.963 255.878 289.093 256.344 289.354C256.81 289.61 257.172 289.994 257.429 290.504C257.686 291.013 257.814 291.644 257.814 292.395V298.188H256.042V292.609C256.042 291.948 255.87 291.433 255.526 291.062C255.182 290.686 254.71 290.498 254.109 290.498C253.697 290.498 253.332 290.587 253.012 290.765C252.696 290.943 252.445 291.203 252.259 291.548C252.077 291.887 251.986 292.298 251.986 292.78ZM264.01 301.793C263.286 301.793 262.664 301.697 262.143 301.508C261.624 301.318 261.201 301.067 260.874 300.755C260.545 300.442 260.301 300.101 260.138 299.729L261.662 299.1C261.769 299.274 261.911 299.459 262.089 299.652C262.271 299.85 262.515 300.018 262.824 300.156C263.137 300.294 263.537 300.364 264.028 300.364C264.7 300.364 265.255 300.2 265.694 299.871C266.132 299.548 266.352 299.029 266.352 298.319V296.528H266.239C266.132 296.721 265.978 296.937 265.777 297.174C265.579 297.411 265.306 297.617 264.959 297.791C264.611 297.964 264.158 298.051 263.601 298.051C262.881 298.051 262.233 297.883 261.656 297.548C261.083 297.208 260.628 296.707 260.292 296.047C259.96 295.384 259.795 294.567 259.795 293.599C259.795 292.63 259.958 291.8 260.287 291.109C260.618 290.417 261.073 289.887 261.65 289.52C262.227 289.148 262.881 288.963 263.613 288.963C264.178 288.963 264.634 289.057 264.982 289.247C265.33 289.433 265.601 289.65 265.795 289.899C265.992 290.148 266.144 290.368 266.251 290.557H266.381V289.081H268.118V298.389C268.118 299.172 267.937 299.814 267.573 300.316C267.21 300.818 266.717 301.189 266.097 301.431C265.48 301.672 264.785 301.793 264.01 301.793ZM263.992 296.581C264.502 296.581 264.933 296.463 265.285 296.225C265.64 295.984 265.909 295.64 266.091 295.194C266.277 294.743 266.369 294.204 266.369 293.575C266.369 292.963 266.279 292.423 266.097 291.957C265.915 291.49 265.648 291.126 265.297 290.865C264.945 290.601 264.51 290.468 263.992 290.468C263.459 290.468 263.014 290.607 262.658 290.883C262.303 291.156 262.033 291.528 261.852 291.998C261.674 292.468 261.585 292.994 261.585 293.575C261.585 294.172 261.676 294.696 261.857 295.146C262.04 295.597 262.308 295.948 262.664 296.202C263.024 296.455 263.466 296.581 263.992 296.581ZM277.565 298.389C276.988 298.389 276.466 298.282 275.999 298.069C275.533 297.852 275.164 297.537 274.891 297.126C274.622 296.716 274.488 296.211 274.488 295.615C274.488 295.1 274.586 294.678 274.784 294.346C274.982 294.014 275.249 293.751 275.585 293.557C275.921 293.363 276.296 293.217 276.711 293.119C277.126 293.02 277.549 292.945 277.98 292.893C278.525 292.83 278.968 292.778 279.308 292.739C279.648 292.696 279.895 292.627 280.049 292.531C280.203 292.437 280.28 292.282 280.28 292.069V292.028C280.28 291.51 280.134 291.109 279.841 290.824C279.553 290.54 279.122 290.397 278.549 290.397C277.952 290.397 277.482 290.529 277.138 290.794C276.798 291.055 276.563 291.346 276.432 291.666L274.767 291.287C274.964 290.733 275.252 290.287 275.632 289.946C276.015 289.603 276.456 289.354 276.954 289.2C277.452 289.041 277.976 288.963 278.525 288.963C278.889 288.963 279.274 289.006 279.681 289.093C280.093 289.176 280.476 289.33 280.831 289.555C281.191 289.781 281.486 290.103 281.715 290.522C281.944 290.937 282.059 291.476 282.059 292.14V298.188H280.328V296.943H280.257C280.142 297.172 279.97 297.397 279.741 297.619C279.512 297.84 279.217 298.024 278.857 298.17C278.497 298.316 278.067 298.389 277.565 298.389ZM277.95 296.966C278.44 296.966 278.859 296.869 279.207 296.676C279.559 296.482 279.825 296.229 280.008 295.917C280.193 295.601 280.286 295.263 280.286 294.903V293.729C280.223 293.793 280.1 293.852 279.919 293.907C279.741 293.958 279.537 294.004 279.308 294.044C279.078 294.079 278.855 294.113 278.638 294.145C278.42 294.172 278.239 294.195 278.093 294.216C277.748 294.259 277.434 294.332 277.15 294.435C276.869 294.538 276.643 294.686 276.474 294.879C276.307 295.069 276.225 295.322 276.225 295.638C276.225 296.077 276.387 296.409 276.711 296.634C277.035 296.856 277.448 296.966 277.95 296.966ZM284.42 301.603V289.081H286.151V290.557H286.299C286.402 290.368 286.55 290.148 286.744 289.899C286.938 289.65 287.206 289.433 287.551 289.247C287.894 289.057 288.349 288.963 288.914 288.963C289.649 288.963 290.305 289.148 290.882 289.52C291.459 289.891 291.912 290.427 292.24 291.126C292.572 291.826 292.738 292.668 292.738 293.652C292.738 294.636 292.574 295.48 292.246 296.184C291.918 296.883 291.467 297.423 290.895 297.802C290.321 298.178 289.667 298.366 288.931 298.366C288.378 298.366 287.926 298.273 287.574 298.087C287.226 297.901 286.954 297.684 286.756 297.435C286.559 297.186 286.406 296.964 286.299 296.771H286.193V301.603H284.42ZM286.157 293.635C286.157 294.275 286.25 294.836 286.435 295.318C286.621 295.8 286.89 296.178 287.242 296.451C287.594 296.719 288.025 296.853 288.534 296.853C289.064 296.853 289.507 296.714 289.863 296.433C290.218 296.148 290.487 295.763 290.669 295.276C290.855 294.79 290.947 294.243 290.947 293.635C290.947 293.034 290.857 292.494 290.675 292.016C290.497 291.537 290.228 291.16 289.869 290.883C289.513 290.607 289.069 290.468 288.534 290.468C288.021 290.468 287.586 290.601 287.23 290.865C286.879 291.13 286.611 291.5 286.43 291.974C286.248 292.449 286.157 293.002 286.157 293.635ZM294.724 301.603V289.081H296.456V290.557H296.604C296.707 290.368 296.855 290.148 297.048 289.899C297.242 289.65 297.511 289.433 297.855 289.247C298.199 289.057 298.653 288.963 299.218 288.963C299.953 288.963 300.609 289.148 301.187 289.52C301.764 289.891 302.216 290.427 302.545 291.126C302.877 291.826 303.043 292.668 303.043 293.652C303.043 294.636 302.879 295.48 302.55 296.184C302.223 296.883 301.772 297.423 301.199 297.802C300.625 298.178 299.971 298.366 299.236 298.366C298.683 298.366 298.23 298.273 297.878 298.087C297.53 297.901 297.258 297.684 297.06 297.435C296.863 297.186 296.71 296.964 296.604 296.771H296.497V301.603H294.724ZM296.461 293.635C296.461 294.275 296.554 294.836 296.74 295.318C296.926 295.8 297.194 296.178 297.546 296.451C297.898 296.719 298.329 296.853 298.839 296.853C299.368 296.853 299.811 296.714 300.167 296.433C300.522 296.148 300.792 295.763 300.973 295.276C301.159 294.79 301.252 294.243 301.252 293.635C301.252 293.034 301.161 292.494 300.979 292.016C300.801 291.537 300.533 291.16 300.173 290.883C299.817 290.607 299.373 290.468 298.839 290.468C298.325 290.468 297.89 290.601 297.535 290.865C297.183 291.13 296.916 291.5 296.734 291.974C296.552 292.449 296.461 293.002 296.461 293.635ZM306.801 286.045V298.188H305.029V286.045H306.801ZM309.186 298.188V289.081H310.959V298.188H309.186ZM310.081 287.676C309.773 287.676 309.508 287.573 309.287 287.368C309.07 287.158 308.961 286.909 308.961 286.62C308.961 286.328 309.07 286.079 309.287 285.873C309.508 285.664 309.773 285.56 310.081 285.56C310.39 285.56 310.653 285.664 310.87 285.873C311.091 286.079 311.202 286.328 311.202 286.62C311.202 286.909 311.091 287.158 310.87 287.368C310.653 287.573 310.39 287.676 310.081 287.676ZM317.18 298.371C316.298 298.371 315.539 298.172 314.903 297.772C314.271 297.37 313.784 296.815 313.445 296.107C313.105 295.399 312.935 294.589 312.935 293.676C312.935 292.751 313.109 291.935 313.457 291.227C313.805 290.516 314.294 289.96 314.927 289.561C315.559 289.162 316.305 288.963 317.162 288.963C317.854 288.963 318.47 289.091 319.012 289.348C319.553 289.601 319.99 289.957 320.322 290.415C320.658 290.874 320.858 291.409 320.921 292.021H319.196C319.101 291.595 318.883 291.227 318.543 290.919C318.207 290.611 317.757 290.456 317.192 290.456C316.698 290.456 316.265 290.587 315.894 290.848C315.526 291.105 315.239 291.473 315.034 291.951C314.828 292.425 314.726 292.986 314.726 293.635C314.726 294.298 314.826 294.872 315.027 295.354C315.229 295.836 315.514 296.209 315.882 296.474C316.253 296.739 316.689 296.872 317.192 296.872C317.528 296.872 317.832 296.81 318.105 296.688C318.381 296.561 318.613 296.381 318.799 296.148C318.988 295.915 319.121 295.635 319.196 295.306H320.921C320.858 295.896 320.666 296.421 320.346 296.883C320.026 297.346 319.597 297.709 319.059 297.974C318.526 298.239 317.899 298.371 317.18 298.371ZM325.467 298.389C324.89 298.389 324.368 298.282 323.902 298.069C323.435 297.852 323.066 297.537 322.793 297.126C322.525 296.716 322.39 296.211 322.39 295.615C322.39 295.1 322.488 294.678 322.687 294.346C322.884 294.014 323.151 293.751 323.487 293.557C323.823 293.363 324.198 293.217 324.613 293.119C325.028 293.02 325.451 292.945 325.882 292.893C326.427 292.83 326.87 292.778 327.21 292.739C327.55 292.696 327.797 292.627 327.951 292.531C328.105 292.437 328.182 292.282 328.182 292.069V292.028C328.182 291.51 328.036 291.109 327.743 290.824C327.455 290.54 327.024 290.397 326.451 290.397C325.854 290.397 325.384 290.529 325.04 290.794C324.7 291.055 324.465 291.346 324.335 291.666L322.669 291.287C322.866 290.733 323.155 290.287 323.534 289.946C323.917 289.603 324.358 289.354 324.856 289.2C325.354 289.041 325.878 288.963 326.427 288.963C326.791 288.963 327.176 289.006 327.583 289.093C327.994 289.176 328.378 289.33 328.734 289.555C329.094 289.781 329.388 290.103 329.617 290.522C329.846 290.937 329.961 291.476 329.961 292.14V298.188H328.23V296.943H328.159C328.044 297.172 327.872 297.397 327.643 297.619C327.414 297.84 327.119 298.024 326.76 298.17C326.4 298.316 325.969 298.389 325.467 298.389ZM325.853 296.966C326.342 296.966 326.761 296.869 327.109 296.676C327.461 296.482 327.728 296.229 327.91 295.917C328.095 295.601 328.189 295.263 328.189 294.903V293.729C328.125 293.793 328.003 293.852 327.821 293.907C327.643 293.958 327.439 294.004 327.21 294.044C326.981 294.079 326.758 294.113 326.54 294.145C326.323 294.172 326.141 294.195 325.994 294.216C325.651 294.259 325.336 294.332 325.052 294.435C324.771 294.538 324.546 294.686 324.376 294.879C324.21 295.069 324.127 295.322 324.127 295.638C324.127 296.077 324.289 296.409 324.613 296.634C324.937 296.856 325.35 296.966 325.853 296.966ZM336.573 289.081V290.504H331.599V289.081H336.573ZM332.933 286.899H334.705V295.514C334.705 295.858 334.757 296.117 334.86 296.291C334.963 296.46 335.095 296.577 335.257 296.641C335.423 296.7 335.603 296.729 335.796 296.729C335.939 296.729 336.063 296.719 336.17 296.7C336.277 296.68 336.36 296.664 336.419 296.652L336.739 298.117C336.637 298.156 336.49 298.195 336.301 298.235C336.111 298.279 335.873 298.303 335.589 298.306C335.123 298.314 334.688 298.231 334.285 298.057C333.882 297.883 333.555 297.615 333.306 297.251C333.057 296.888 332.933 296.431 332.933 295.882V286.899ZM338.534 298.188V289.081H340.307V298.188H338.534ZM339.43 287.676C339.121 287.676 338.856 287.573 338.635 287.368C338.417 287.158 338.309 286.909 338.309 286.62C338.309 286.328 338.417 286.079 338.635 285.873C338.856 285.664 339.121 285.56 339.43 285.56C339.738 285.56 340.001 285.664 340.218 285.873C340.439 286.079 340.55 286.328 340.55 286.62C340.55 286.909 340.439 287.158 340.218 287.368C340.001 287.573 339.738 287.676 339.43 287.676ZM346.528 298.371C345.674 298.371 344.929 298.176 344.292 297.784C343.656 297.393 343.162 296.846 342.81 296.143C342.458 295.439 342.282 294.616 342.282 293.676C342.282 292.731 342.458 291.905 342.81 291.198C343.162 290.49 343.656 289.941 344.292 289.549C344.929 289.158 345.674 288.963 346.528 288.963C347.382 288.963 348.127 289.158 348.763 289.549C349.399 289.941 349.894 290.49 350.245 291.198C350.597 291.905 350.773 292.731 350.773 293.676C350.773 294.616 350.597 295.439 350.245 296.143C349.894 296.846 349.399 297.393 348.763 297.784C348.127 298.176 347.382 298.371 346.528 298.371ZM346.534 296.883C347.087 296.883 347.546 296.737 347.909 296.444C348.273 296.152 348.541 295.763 348.715 295.276C348.893 294.79 348.982 294.255 348.982 293.67C348.982 293.089 348.893 292.555 348.715 292.069C348.541 291.579 348.273 291.186 347.909 290.89C347.546 290.593 347.087 290.444 346.534 290.444C345.976 290.444 345.514 290.593 345.146 290.89C344.783 291.186 344.512 291.579 344.334 292.069C344.16 292.555 344.073 293.089 344.073 293.67C344.073 294.255 344.16 294.79 344.334 295.276C344.512 295.763 344.783 296.152 345.146 296.444C345.514 296.737 345.976 296.883 346.534 296.883ZM354.525 292.78V298.188H352.751V289.081H354.453V290.563H354.566C354.775 290.081 355.103 289.694 355.55 289.401C356.001 289.109 356.568 288.963 357.251 288.963C357.872 288.963 358.415 289.093 358.882 289.354C359.348 289.61 359.71 289.994 359.967 290.504C360.224 291.013 360.352 291.644 360.352 292.395V298.188H358.579V292.609C358.579 291.948 358.408 291.433 358.064 291.062C357.72 290.686 357.247 290.498 356.647 290.498C356.236 290.498 355.87 290.587 355.55 290.765C355.233 290.943 354.983 291.203 354.797 291.548C354.615 291.887 354.525 292.298 354.525 292.78Z" fill="#111827"/>
<path fill-rule="evenodd" clip-rule="evenodd" d="M149.565 303.057C155.713 303.057 160.696 298.074 160.696 291.927C160.696 285.779 155.713 280.796 149.565 280.796C143.418 280.796 138.435 285.779 138.435 291.927C138.435 298.074 143.418 303.057 149.565 303.057ZM150.261 286.362C150.261 285.978 149.949 285.666 149.565 285.666C149.181 285.666 148.87 285.978 148.87 286.362V291.927C148.87 292.111 148.943 292.289 149.073 292.419L153.009 296.354C153.28 296.625 153.72 296.625 153.992 296.354C154.264 296.082 154.264 295.642 153.992 295.37L150.261 291.639V286.362Z" fill="#FACC15"/>
<path d="M192.289 338.69H190.439C190.367 338.294 190.235 337.946 190.042 337.646C189.848 337.346 189.61 337.091 189.33 336.881C189.05 336.672 188.735 336.514 188.387 336.407C188.044 336.3 187.678 336.247 187.29 336.247C186.591 336.247 185.965 336.423 185.411 336.775C184.862 337.126 184.427 337.642 184.106 338.322C183.791 339.002 183.633 339.832 183.633 340.812C183.633 341.8 183.791 342.634 184.106 343.314C184.427 343.994 184.863 344.508 185.417 344.855C185.97 345.203 186.593 345.377 187.285 345.377C187.668 345.377 188.031 345.326 188.376 345.223C188.723 345.116 189.037 344.961 189.318 344.755C189.599 344.549 189.836 344.298 190.03 344.002C190.227 343.701 190.364 343.358 190.439 342.97L192.289 342.977C192.19 343.573 191.998 344.122 191.713 344.625C191.433 345.123 191.071 345.553 190.628 345.917C190.19 346.277 189.688 346.555 189.123 346.753C188.557 346.951 187.941 347.05 187.273 347.05C186.221 347.05 185.285 346.801 184.463 346.302C183.64 345.8 182.992 345.083 182.518 344.15C182.047 343.217 181.812 342.105 181.812 340.812C181.812 339.516 182.049 338.403 182.524 337.474C182.998 336.542 183.646 335.826 184.468 335.328C185.29 334.826 186.225 334.575 187.273 334.575C187.917 334.575 188.518 334.668 189.075 334.853C189.636 335.036 190.141 335.304 190.587 335.66C191.034 336.012 191.403 336.442 191.695 336.952C191.988 337.459 192.186 338.037 192.289 338.69ZM198.175 347.067C197.32 347.067 196.575 346.871 195.939 346.48C195.303 346.089 194.809 345.541 194.457 344.838C194.105 344.134 193.929 343.312 193.929 342.371C193.929 341.427 194.105 340.601 194.457 339.893C194.809 339.186 195.303 338.636 195.939 338.245C196.575 337.854 197.32 337.658 198.175 337.658C199.028 337.658 199.773 337.854 200.41 338.245C201.046 338.636 201.54 339.186 201.891 339.893C202.243 340.601 202.419 341.427 202.419 342.371C202.419 343.312 202.243 344.134 201.891 344.838C201.54 345.541 201.046 346.089 200.41 346.48C199.773 346.871 199.028 347.067 198.175 347.067ZM198.18 345.579C198.734 345.579 199.192 345.433 199.556 345.14C199.919 344.848 200.189 344.458 200.362 343.972C200.54 343.486 200.629 342.951 200.629 342.366C200.629 341.784 200.54 341.251 200.362 340.765C200.189 340.275 199.919 339.882 199.556 339.585C199.192 339.288 198.734 339.14 198.18 339.14C197.623 339.14 197.16 339.288 196.793 339.585C196.429 339.882 196.159 340.275 195.981 340.765C195.807 341.251 195.72 341.784 195.72 342.366C195.72 342.951 195.807 343.486 195.981 343.972C196.159 344.458 196.429 344.848 196.793 345.14C197.16 345.433 197.623 345.579 198.18 345.579ZM204.398 346.883V337.777H206.099V339.259H206.212C206.402 338.757 206.712 338.366 207.143 338.085C207.574 337.8 208.09 337.658 208.691 337.658C209.299 337.658 209.809 337.8 210.221 338.085C210.635 338.369 210.942 338.761 211.139 339.259H211.234C211.452 338.773 211.798 338.385 212.272 338.097C212.746 337.804 213.311 337.658 213.967 337.658C214.794 337.658 215.467 337.917 215.989 338.435C216.515 338.952 216.778 339.733 216.778 340.777V346.883H215.005V340.942C215.005 340.326 214.837 339.879 214.501 339.603C214.165 339.326 213.764 339.188 213.297 339.188C212.721 339.188 212.272 339.365 211.951 339.722C211.631 340.073 211.471 340.526 211.471 341.079V346.883H209.704V340.83C209.704 340.336 209.551 339.939 209.242 339.638C208.934 339.338 208.533 339.188 208.038 339.188C207.702 339.188 207.392 339.276 207.108 339.454C206.827 339.628 206.6 339.871 206.426 340.183C206.256 340.496 206.171 340.858 206.171 341.269V346.883H204.398ZM219.153 350.298V337.777H220.885V339.253H221.033C221.136 339.063 221.284 338.844 221.478 338.595C221.672 338.346 221.94 338.129 222.284 337.943C222.628 337.753 223.082 337.658 223.648 337.658C224.383 337.658 225.039 337.844 225.616 338.215C226.193 338.587 226.646 339.123 226.974 339.822C227.306 340.522 227.472 341.363 227.472 342.348C227.472 343.332 227.308 344.176 226.979 344.879C226.652 345.579 226.201 346.119 225.628 346.498C225.055 346.874 224.401 347.061 223.665 347.061C223.112 347.061 222.659 346.968 222.307 346.782C221.96 346.597 221.687 346.38 221.489 346.131C221.292 345.882 221.139 345.66 221.033 345.466H220.927V350.298H219.153ZM220.891 342.33C220.891 342.97 220.984 343.532 221.169 344.014C221.355 344.496 221.624 344.874 221.976 345.146C222.328 345.415 222.758 345.549 223.268 345.549C223.798 345.549 224.241 345.409 224.596 345.128C224.952 344.844 225.221 344.458 225.402 343.972C225.588 343.486 225.681 342.939 225.681 342.33C225.681 341.729 225.59 341.189 225.409 340.711C225.231 340.233 224.962 339.856 224.602 339.579C224.246 339.302 223.802 339.164 223.268 339.164C222.755 339.164 222.32 339.297 221.964 339.561C221.612 339.826 221.345 340.195 221.164 340.67C220.982 341.144 220.891 341.697 220.891 342.33ZM232.109 347.085C231.531 347.085 231.009 346.978 230.543 346.765C230.077 346.547 229.707 346.233 229.434 345.822C229.165 345.411 229.031 344.907 229.031 344.31C229.031 343.796 229.13 343.374 229.327 343.041C229.525 342.709 229.792 342.446 230.128 342.253C230.464 342.059 230.84 341.913 231.254 341.814C231.67 341.715 232.093 341.64 232.523 341.589C233.069 341.525 233.512 341.474 233.851 341.435C234.191 341.391 234.438 341.322 234.593 341.227C234.746 341.132 234.824 340.978 234.824 340.765V340.723C234.824 340.206 234.678 339.804 234.385 339.52C234.096 339.235 233.665 339.093 233.092 339.093C232.495 339.093 232.025 339.225 231.681 339.49C231.341 339.751 231.106 340.042 230.976 340.362L229.31 339.982C229.507 339.429 229.796 338.982 230.175 338.642C230.559 338.298 231 338.049 231.498 337.895C231.996 337.737 232.519 337.658 233.069 337.658C233.432 337.658 233.818 337.701 234.225 337.788C234.636 337.871 235.019 338.026 235.375 338.251C235.735 338.476 236.029 338.798 236.258 339.217C236.488 339.633 236.602 340.172 236.602 340.836V346.883H234.871V345.638H234.8C234.685 345.868 234.513 346.093 234.284 346.314C234.055 346.535 233.761 346.719 233.4 346.865C233.041 347.012 232.61 347.085 232.109 347.085ZM232.494 345.662C232.984 345.662 233.402 345.565 233.75 345.372C234.102 345.178 234.369 344.925 234.551 344.613C234.737 344.296 234.829 343.958 234.829 343.598V342.425C234.767 342.488 234.643 342.547 234.462 342.603C234.284 342.654 234.081 342.7 233.851 342.739C233.622 342.775 233.399 342.808 233.181 342.84C232.964 342.867 232.782 342.891 232.636 342.911C232.292 342.954 231.978 343.027 231.693 343.13C231.413 343.233 231.187 343.381 231.017 343.575C230.851 343.765 230.768 344.018 230.768 344.334C230.768 344.773 230.93 345.105 231.254 345.33C231.578 345.551 231.992 345.662 232.494 345.662ZM240.736 341.476V346.883H238.964V337.777H240.665V339.259H240.778C240.987 338.777 241.315 338.389 241.762 338.097C242.212 337.804 242.78 337.658 243.464 337.658C244.084 337.658 244.627 337.788 245.094 338.049C245.56 338.306 245.922 338.69 246.179 339.2C246.435 339.709 246.564 340.34 246.564 341.091V346.883H244.792V341.304C244.792 340.644 244.62 340.129 244.275 339.757C243.932 339.381 243.459 339.194 242.858 339.194C242.447 339.194 242.082 339.283 241.762 339.461C241.446 339.638 241.194 339.899 241.009 340.243C240.827 340.583 240.736 340.994 240.736 341.476ZM249.736 350.298C249.471 350.298 249.23 350.277 249.013 350.233C248.795 350.194 248.634 350.15 248.527 350.103L248.954 348.65C249.278 348.737 249.566 348.775 249.819 348.763C250.072 348.751 250.296 348.656 250.489 348.478C250.687 348.3 250.861 348.01 251.011 347.607L251.23 347.002L247.898 337.777H249.795L252.102 344.844H252.197L254.503 337.777H256.406L252.653 348.099C252.479 348.573 252.258 348.974 251.989 349.302C251.72 349.635 251.4 349.884 251.029 350.049C250.657 350.215 250.226 350.298 249.736 350.298ZM262.49 346.883V337.777H264.204V339.223H264.299C264.465 338.733 264.758 338.348 265.176 338.067C265.599 337.783 266.078 337.64 266.611 337.64C266.722 337.64 266.852 337.644 267.002 337.652C267.157 337.66 267.277 337.67 267.364 337.682V339.377C267.293 339.358 267.167 339.336 266.984 339.312C266.803 339.285 266.621 339.271 266.439 339.271C266.02 339.271 265.647 339.36 265.319 339.537C264.995 339.711 264.737 339.955 264.548 340.267C264.358 340.575 264.264 340.926 264.264 341.322V346.883H262.49ZM272.497 347.067C271.6 347.067 270.827 346.876 270.179 346.492C269.535 346.105 269.037 345.561 268.685 344.862C268.337 344.158 268.163 343.334 268.163 342.389C268.163 341.457 268.337 340.634 268.685 339.923C269.037 339.212 269.527 338.656 270.155 338.257C270.787 337.858 271.527 337.658 272.373 337.658C272.886 337.658 273.384 337.743 273.866 337.913C274.349 338.083 274.782 338.35 275.165 338.714C275.549 339.077 275.851 339.549 276.072 340.131C276.294 340.707 276.404 341.409 276.404 342.235V342.864H269.165V341.535H274.667C274.667 341.069 274.572 340.656 274.383 340.296C274.193 339.933 273.926 339.646 273.582 339.436C273.242 339.227 272.843 339.123 272.385 339.123C271.887 339.123 271.452 339.245 271.08 339.49C270.712 339.731 270.428 340.047 270.226 340.439C270.029 340.826 269.93 341.247 269.93 341.701V342.739C269.93 343.348 270.037 343.866 270.25 344.293C270.467 344.719 270.77 345.045 271.157 345.271C271.544 345.492 271.997 345.603 272.515 345.603C272.851 345.603 273.157 345.555 273.434 345.461C273.711 345.361 273.95 345.215 274.151 345.022C274.353 344.828 274.507 344.589 274.614 344.305L276.291 344.606C276.157 345.1 275.916 345.534 275.568 345.905C275.224 346.273 274.792 346.559 274.27 346.765C273.752 346.966 273.161 347.067 272.497 347.067ZM282.189 350.488C281.466 350.488 280.843 350.393 280.321 350.204C279.804 350.014 279.381 349.763 279.053 349.45C278.725 349.138 278.48 348.796 278.318 348.425L279.841 347.796C279.948 347.97 280.09 348.154 280.269 348.348C280.45 348.545 280.695 348.714 281.003 348.852C281.315 348.99 281.717 349.059 282.207 349.059C282.879 349.059 283.434 348.895 283.873 348.567C284.312 348.243 284.531 347.725 284.531 347.014V345.223H284.419C284.312 345.417 284.158 345.633 283.956 345.87C283.759 346.107 283.486 346.312 283.138 346.486C282.79 346.66 282.337 346.747 281.78 346.747C281.061 346.747 280.413 346.579 279.835 346.243C279.263 345.903 278.808 345.403 278.472 344.743C278.14 344.079 277.974 343.262 277.974 342.294C277.974 341.326 278.138 340.496 278.466 339.804C278.798 339.113 279.252 338.583 279.83 338.215C280.407 337.844 281.061 337.658 281.792 337.658C282.357 337.658 282.814 337.753 283.162 337.943C283.51 338.129 283.78 338.346 283.974 338.595C284.171 338.844 284.323 339.063 284.431 339.253H284.561V337.777H286.298V347.085C286.298 347.868 286.116 348.51 285.752 349.012C285.389 349.514 284.897 349.885 284.276 350.126C283.66 350.368 282.964 350.488 282.189 350.488ZM282.171 345.276C282.681 345.276 283.112 345.158 283.464 344.921C283.82 344.679 284.088 344.336 284.27 343.889C284.456 343.438 284.549 342.899 284.549 342.27C284.549 341.658 284.458 341.118 284.276 340.652C284.095 340.186 283.827 339.822 283.475 339.561C283.124 339.297 282.689 339.164 282.171 339.164C281.638 339.164 281.193 339.302 280.838 339.579C280.481 339.852 280.213 340.223 280.031 340.693C279.853 341.164 279.764 341.69 279.764 342.27C279.764 342.867 279.855 343.391 280.037 343.842C280.219 344.293 280.488 344.644 280.843 344.897C281.203 345.15 281.646 345.276 282.171 345.276ZM288.675 346.883V337.777H290.448V346.883H288.675ZM289.571 336.371C289.263 336.371 288.998 336.268 288.776 336.063C288.559 335.854 288.45 335.605 288.45 335.316C288.45 335.024 288.559 334.775 288.776 334.569C288.998 334.359 289.263 334.255 289.571 334.255C289.879 334.255 290.142 334.359 290.359 334.569C290.581 334.775 290.691 335.024 290.691 335.316C290.691 335.605 290.581 335.854 290.359 336.063C290.142 336.268 289.879 336.371 289.571 336.371ZM299.657 340L298.05 340.284C297.983 340.079 297.876 339.883 297.73 339.697C297.588 339.511 297.394 339.36 297.149 339.241C296.904 339.123 296.598 339.063 296.23 339.063C295.728 339.063 295.309 339.175 294.973 339.401C294.637 339.622 294.47 339.909 294.47 340.261C294.47 340.565 294.582 340.81 294.808 340.996C295.032 341.182 295.396 341.334 295.898 341.452L297.345 341.784C298.183 341.978 298.808 342.277 299.218 342.679C299.629 343.083 299.835 343.607 299.835 344.251C299.835 344.796 299.677 345.283 299.361 345.709C299.048 346.132 298.611 346.465 298.05 346.705C297.493 346.947 296.847 347.067 296.112 347.067C295.092 347.067 294.26 346.85 293.615 346.415C292.971 345.976 292.576 345.354 292.43 344.547L294.143 344.286C294.25 344.733 294.47 345.071 294.801 345.3C295.133 345.525 295.566 345.638 296.099 345.638C296.681 345.638 297.145 345.518 297.493 345.276C297.841 345.031 298.015 344.733 298.015 344.381C298.015 344.097 297.908 343.858 297.695 343.664C297.485 343.47 297.163 343.324 296.728 343.225L295.187 342.887C294.337 342.693 293.709 342.385 293.302 341.962C292.898 341.539 292.696 341.004 292.696 340.355C292.696 339.818 292.847 339.348 293.147 338.945C293.448 338.542 293.863 338.227 294.392 338.002C294.922 337.772 295.528 337.658 296.212 337.658C297.197 337.658 297.971 337.871 298.536 338.298C299.102 338.721 299.475 339.288 299.657 340ZM306.035 337.777V339.2H301.061V337.777H306.035ZM302.394 335.595H304.168V344.209C304.168 344.554 304.219 344.812 304.321 344.986C304.424 345.156 304.557 345.273 304.719 345.336C304.885 345.395 305.065 345.425 305.258 345.425C305.4 345.425 305.525 345.415 305.632 345.395C305.738 345.375 305.822 345.36 305.881 345.348L306.201 346.812C306.098 346.852 305.952 346.891 305.762 346.931C305.573 346.974 305.336 346.998 305.051 347.002C304.584 347.01 304.15 346.926 303.747 346.753C303.343 346.579 303.017 346.31 302.768 345.946C302.519 345.583 302.394 345.126 302.394 344.577V335.595ZM311.823 347.067C310.926 347.067 310.153 346.876 309.505 346.492C308.861 346.105 308.362 345.561 308.011 344.862C307.663 344.158 307.489 343.334 307.489 342.389C307.489 341.457 307.663 340.634 308.011 339.923C308.362 339.212 308.853 338.656 309.481 338.257C310.113 337.858 310.853 337.658 311.699 337.658C312.212 337.658 312.71 337.743 313.192 337.913C313.675 338.083 314.108 338.35 314.491 338.714C314.874 339.077 315.177 339.549 315.398 340.131C315.62 340.707 315.73 341.409 315.73 342.235V342.864H308.491V341.535H313.993C313.993 341.069 313.898 340.656 313.709 340.296C313.519 339.933 313.252 339.646 312.908 339.436C312.568 339.227 312.169 339.123 311.711 339.123C311.213 339.123 310.778 339.245 310.406 339.49C310.038 339.731 309.754 340.047 309.553 340.439C309.354 340.826 309.256 341.247 309.256 341.701V342.739C309.256 343.348 309.363 343.866 309.576 344.293C309.793 344.719 310.096 345.045 310.484 345.271C310.87 345.492 311.323 345.603 311.841 345.603C312.177 345.603 312.484 345.555 312.76 345.461C313.037 345.361 313.276 345.215 313.478 345.022C313.679 344.828 313.833 344.589 313.939 344.305L315.617 344.606C315.483 345.1 315.242 345.534 314.895 345.905C314.55 346.273 314.118 346.559 313.596 346.765C313.078 346.966 312.487 347.067 311.823 347.067ZM317.697 346.883V337.777H319.411V339.223H319.505C319.672 338.733 319.964 338.348 320.383 338.067C320.806 337.783 321.284 337.64 321.818 337.64C321.928 337.64 322.059 337.644 322.209 337.652C322.363 337.66 322.484 337.67 322.57 337.682V339.377C322.499 339.358 322.373 339.336 322.191 339.312C322.009 339.285 321.827 339.271 321.646 339.271C321.226 339.271 320.854 339.36 320.525 339.537C320.201 339.711 319.944 339.955 319.754 340.267C319.565 340.575 319.47 340.926 319.47 341.322V346.883H317.697ZM327.704 347.067C326.806 347.067 326.033 346.876 325.385 346.492C324.741 346.105 324.243 345.561 323.891 344.862C323.544 344.158 323.37 343.334 323.37 342.389C323.37 341.457 323.544 340.634 323.891 339.923C324.243 339.212 324.733 338.656 325.361 338.257C325.994 337.858 326.733 337.658 327.579 337.658C328.093 337.658 328.591 337.743 329.073 337.913C329.555 338.083 329.988 338.35 330.371 338.714C330.755 339.077 331.057 339.549 331.279 340.131C331.5 340.707 331.61 341.409 331.61 342.235V342.864H324.371V341.535H329.873C329.873 341.069 329.779 340.656 329.589 340.296C329.399 339.933 329.133 339.646 328.789 339.436C328.449 339.227 328.049 339.123 327.591 339.123C327.093 339.123 326.658 339.245 326.287 339.49C325.919 339.731 325.634 340.047 325.433 340.439C325.235 340.826 325.137 341.247 325.137 341.701V342.739C325.137 343.348 325.243 343.866 325.457 344.293C325.674 344.719 325.976 345.045 326.364 345.271C326.751 345.492 327.203 345.603 327.721 345.603C328.057 345.603 328.364 345.555 328.64 345.461C328.917 345.361 329.156 345.215 329.358 345.022C329.559 344.828 329.713 344.589 329.82 344.305L331.498 344.606C331.364 345.1 331.123 345.534 330.775 345.905C330.431 346.273 329.998 346.559 329.476 346.765C328.959 346.966 328.367 347.067 327.704 347.067ZM336.986 347.061C336.252 347.061 335.595 346.874 335.018 346.498C334.445 346.119 333.994 345.579 333.667 344.879C333.343 344.176 333.181 343.332 333.181 342.348C333.181 341.363 333.345 340.522 333.672 339.822C334.004 339.123 334.459 338.587 335.036 338.215C335.613 337.844 336.267 337.658 336.998 337.658C337.564 337.658 338.018 337.753 338.362 337.943C338.71 338.129 338.979 338.346 339.169 338.595C339.362 338.844 339.512 339.063 339.619 339.253H339.726V334.741H341.498V346.883H339.767V345.466H339.619C339.512 345.66 339.358 345.882 339.157 346.131C338.959 346.38 338.687 346.597 338.339 346.782C337.991 346.968 337.54 347.061 336.986 347.061ZM337.378 345.549C337.888 345.549 338.319 345.415 338.671 345.146C339.026 344.874 339.295 344.496 339.477 344.014C339.663 343.532 339.755 342.97 339.755 342.33C339.755 341.697 339.665 341.144 339.482 340.67C339.301 340.195 339.034 339.826 338.682 339.561C338.33 339.297 337.896 339.164 337.378 339.164C336.845 339.164 336.4 339.302 336.044 339.579C335.688 339.856 335.419 340.233 335.238 340.711C335.059 341.189 334.971 341.729 334.971 342.33C334.971 342.939 335.062 343.486 335.244 343.972C335.425 344.458 335.694 344.844 336.05 345.128C336.41 345.409 336.852 345.549 337.378 345.549Z" fill="#94A3B8"/>
<path d="M149.565 350.71C155.136 350.71 159.652 346.193 159.652 340.623C159.652 335.052 155.136 330.536 149.565 330.536C143.994 330.536 139.478 335.052 139.478 340.623C139.478 346.193 143.994 350.71 149.565 350.71Z" stroke="#94A3B8" stroke-width="2.08696"/>
<path d="M419.478 134.014C442.146 134.014 460.522 115.638 460.522 92.9704C460.522 70.3027 442.146 51.9269 419.478 51.9269C396.811 51.9269 378.435 70.3027 378.435 92.9704C378.435 115.638 396.811 134.014 419.478 134.014Z" fill="#BFDBFE"/>
<path fill-rule="evenodd" clip-rule="evenodd" d="M414.887 76.1356C415.971 74.6908 417.672 73.84 419.478 73.84C421.285 73.84 422.986 74.6908 424.07 76.1356L425.403 77.9137C427.201 80.3109 428.371 83.1026 428.827 86.0354L433.549 88.9864C435.506 90.2101 436.696 92.3561 436.696 94.6643V99.8059C436.696 103.361 432.954 105.673 429.774 104.083L426.679 102.536H412.278L409.183 104.083C406.002 105.673 402.261 103.361 402.261 99.8059V94.6643C402.261 92.3561 403.45 90.2101 405.408 88.9864L410.129 86.0354C410.586 83.1026 411.755 80.3109 413.553 77.9137L414.887 76.1356ZM413.739 88.8347V98.7095H425.217V88.8347C425.217 85.7245 424.209 82.6977 422.342 80.2094L421.009 78.4313C420.648 77.9499 420.081 77.6661 419.478 77.6661C418.876 77.6661 418.309 77.9499 417.948 78.4313L416.614 80.2094C414.748 82.6977 413.739 85.7245 413.739 88.8347ZM409.913 90.6831V99.44L407.471 100.661C406.835 100.979 406.087 100.517 406.087 99.8059V94.6643C406.087 93.6751 406.597 92.7554 407.436 92.2309L409.913 90.6831ZM429.043 99.44L431.485 100.661C432.121 100.979 432.87 100.517 432.87 99.8059V94.6643C432.87 93.6751 432.36 92.7554 431.521 92.2309L429.043 90.6831V99.44ZM417.565 87.2313C417.565 86.1746 418.422 85.3182 419.478 85.3182H419.498C420.554 85.3182 421.411 86.1746 421.411 87.2313C421.411 88.288 420.554 89.1443 419.498 89.1443H419.478C418.422 89.1443 417.565 88.288 417.565 87.2313ZM413.375 108.49C412.728 107.655 412.88 106.453 413.715 105.806C414.55 105.159 415.752 105.311 416.399 106.147C416.765 106.618 417.158 107.068 417.577 107.494C418.088 107.993 418.774 108.272 419.488 108.272C420.202 108.272 420.888 107.993 421.398 107.494C421.817 107.068 422.211 106.618 422.577 106.147C423.224 105.311 424.425 105.159 425.261 105.806C426.095 106.453 426.248 107.655 425.601 108.49C425.139 109.087 424.641 109.655 424.111 110.192L424.092 110.211C422.864 111.42 421.21 112.098 419.488 112.098C417.765 112.098 416.111 111.42 414.883 110.211L414.864 110.192C414.334 109.655 413.837 109.087 413.375 108.49Z" fill="#1E40AF"/>
</g>
</g>
</g>
<defs>
<filter id="filter0_d_124_114" x="43.8261" y="65.8399" width="487.652" height="386.087" filterUnits="userSpaceOnUse" color-interpolation-filters="sRGB">
<feFlood flood-opacity="0" result="BackgroundImageFix"/>
<feColorMatrix in="SourceAlpha" type="matrix" values="0 0 0 0 0 0 0 0 0 0 0 0 0 0 0 0 0 0 127 0" result="hardAlpha"/>
<feOffset dy="17.3913"/>
<feGaussianBlur stdDeviation="17.3913"/>
<feComposite in2="hardAlpha" operator="out"/>
<feColorMatrix type="matrix" values="0 0 0 0 0 0 0 0 0 0 0 0 0 0 0 0 0 0 0.2 0"/>
<feBlend mode="normal" in2="BackgroundImageFix" result="effect1_dropShadow_124_114"/>
<feBlend mode="normal" in="SourceGraphic" in2="effect1_dropShadow_124_114" result="shape"/>
</filter>
<clipPath id="clip0_124_114">
<rect y="0.449951" width="576" height="482.78" rx="18" fill="white"/>
</clipPath>
<clipPath id="clip1_124_114">
<rect width="576" height="482.78" fill="white" transform="translate(0 0.449951)"/>
</clipPath>
<clipPath id="clip2_124_114">
<rect width="576" height="482.783" fill="white" transform="translate(0 0.448608)"/>
</clipPath>
</defs>
</svg>
